{"glyphs":{"0":{"ha":910,"x_min":106,"x_max":804,"o":"m 360 -3 q 174 58 243 -3 q 106 240 106 118 l 106 782 q 175 966 106 901 q 360 1031 244 1031 l 558 1031 q 743 964 682 1031 q 804 782 804 897 l 804 240 q 739 58 804 118 q 558 -3 674 -3 l 360 -3 m 533 96 q 693 254 693 96 l 693 774 q 538 931 693 931 l 378 931 q 260 890 303 931 q 217 774 217 849 l 217 254 q 260 136 217 176 q 381 96 303 96 l 533 96 z "},"1":{"ha":503,"x_min":61,"x_max":382,"o":"m 271 924 l 61 867 l 61 938 l 282 1032 l 382 1032 l 382 0 l 271 0 l 271 924 z "},"2":{"ha":824,"x_min":75,"x_max":757,"o":"m 75 90 l 453 453 q 574 602 539 535 q 610 754 610 669 q 561 882 610 838 q 389 926 513 926 l 111 926 l 111 1011 q 259 1024 178 1018 q 413 1031 340 1031 q 649 962 578 1031 q 719 768 719 893 q 678 578 719 661 q 538 401 636 496 l 225 101 l 757 101 l 757 0 l 75 0 l 75 90 z "},"3":{"ha":813,"x_min":60,"x_max":714,"o":"m 431 -8 q 60 10 214 -8 l 60 94 l 394 94 q 549 128 494 94 q 603 250 603 161 l 603 318 q 551 428 603 393 q 425 465 499 463 l 163 475 l 163 556 l 421 567 q 589 700 589 574 l 589 768 q 538 885 589 844 q 386 926 488 926 l 94 926 l 94 1011 q 426 1031 243 1031 q 628 965 560 1029 q 697 790 697 901 l 697 703 q 651 572 697 618 q 550 515 606 526 q 624 482 586 507 q 688 412 661 457 q 714 304 714 367 l 714 233 q 640 54 714 117 q 431 -8 565 -8 z "},"4":{"ha":826,"x_min":36,"x_max":793,"o":"m 543 261 l 61 261 l 36 321 l 422 1022 l 535 1022 l 164 356 l 543 356 l 543 628 l 567 724 l 653 724 l 653 356 l 793 356 l 793 279 l 653 261 l 653 1 l 543 1 l 543 261 z "},"5":{"ha":875,"x_min":117,"x_max":788,"o":"m 469 -7 q 117 8 269 -7 l 117 93 l 471 93 q 621 138 564 93 q 678 261 678 183 l 678 372 q 634 486 678 446 q 507 526 590 526 l 397 526 q 249 410 268 526 l 144 410 l 174 1022 l 754 1022 l 754 922 l 269 922 l 251 547 q 313 599 269 578 q 418 621 357 621 l 540 621 q 722 557 657 621 q 788 392 788 493 l 788 240 q 701 56 788 119 q 469 -7 615 -7 z "},"6":{"ha":865,"x_min":99,"x_max":776,"o":"m 381 -4 q 226 40 288 -4 q 132 198 165 85 q 99 511 99 311 q 461 1031 99 1031 q 715 1015 581 1031 l 715 931 l 463 931 q 276 838 342 931 q 210 563 210 744 q 492 576 314 576 q 706 526 635 576 q 776 363 776 476 l 776 219 q 711 49 776 103 q 539 -4 646 -4 l 381 -4 m 518 96 q 627 126 588 96 q 667 236 667 157 l 667 344 q 619 454 667 426 q 467 482 571 482 l 210 482 q 231 247 210 332 q 294 129 253 163 q 399 96 335 96 l 518 96 z "},"7":{"ha":754,"x_min":46,"x_max":700,"o":"m 560 911 l 46 911 l 46 1022 l 664 1022 l 700 965 l 326 0 l 203 0 l 560 911 z "},"8":{"ha":893,"x_min":114,"x_max":781,"o":"m 363 -3 q 180 46 246 -3 q 114 200 114 94 l 114 347 q 153 460 114 415 q 244 518 193 506 q 133 699 133 565 l 133 815 q 195 977 133 925 q 358 1029 257 1029 l 550 1029 q 761 815 761 1029 l 761 699 q 733 596 761 646 q 657 532 706 546 q 749 469 718 519 q 781 356 781 418 l 781 200 q 550 -3 781 -3 l 363 -3 m 522 568 q 621 606 589 568 q 653 696 653 644 l 653 792 q 622 902 653 869 q 529 935 592 935 l 378 935 q 274 901 306 935 q 242 792 242 868 l 242 696 q 276 603 242 638 q 378 568 310 568 l 522 568 m 528 92 q 636 123 601 92 q 671 215 671 154 l 671 344 q 637 444 671 414 q 522 474 603 474 l 378 474 q 273 442 322 474 q 224 344 224 410 l 224 215 q 265 122 224 151 q 378 92 307 92 l 528 92 z "},"9":{"ha":865,"x_min":92,"x_max":768,"o":"m 407 -7 q 153 8 285 -7 l 153 93 l 406 93 q 592 186 526 93 q 658 461 658 279 q 376 447 554 447 q 163 497 233 447 q 92 661 92 547 l 92 804 q 156 974 92 919 q 328 1028 221 1028 l 486 1028 q 640 983 579 1028 q 735 826 701 939 q 768 513 768 713 q 407 -7 768 -7 m 658 542 q 637 776 658 692 q 574 894 615 861 q 468 928 533 928 l 349 928 q 240 897 279 928 q 200 788 200 865 l 200 679 q 249 570 200 599 q 401 542 297 542 l 658 542 z "},"\r":{"ha":375,"x_min":0,"x_max":0,"o":""}," ":{"ha":375,"x_min":0,"x_max":0,"o":""},"A":{"ha":936,"x_min":47,"x_max":889,"o":"m 397 1022 l 539 1022 l 889 0 l 775 0 l 672 292 l 261 292 l 161 0 l 47 0 l 397 1022 m 644 392 l 468 925 l 289 392 l 644 392 z "},"Á":{"ha":936,"x_min":47,"x_max":889,"o":"m 397 1022 l 539 1022 l 889 0 l 775 0 l 672 292 l 261 292 l 161 0 l 47 0 l 397 1022 m 644 392 l 468 925 l 289 392 l 644 392 m 586 1288 l 679 1288 l 506 1099 l 442 1099 l 586 1288 z "},"Ă":{"ha":936,"x_min":47,"x_max":889,"o":"m 397 1022 l 539 1022 l 889 0 l 775 0 l 672 292 l 261 292 l 161 0 l 47 0 l 397 1022 m 644 392 l 468 925 l 289 392 l 644 392 m 458 1096 q 326 1143 376 1096 q 276 1292 276 1190 l 331 1292 q 365 1183 331 1218 q 454 1149 399 1149 q 588 1292 588 1149 l 642 1292 q 592 1142 642 1188 q 458 1096 542 1096 z "},"Ắ":{"ha":936,"x_min":47,"x_max":889,"o":"m 397 1022 l 539 1022 l 889 0 l 775 0 l 672 292 l 261 292 l 161 0 l 47 0 l 397 1022 m 644 392 l 468 925 l 289 392 l 644 392 m 564 1440 l 657 1440 l 483 1251 l 419 1251 l 564 1440 m 331 1242 q 365 1160 331 1186 q 454 1135 400 1135 q 553 1160 518 1135 q 588 1242 588 1185 l 642 1242 q 592 1122 642 1158 q 458 1086 542 1086 q 327 1124 378 1086 q 276 1242 276 1161 l 331 1242 z "},"Ặ":{"ha":936,"x_min":47,"x_max":889,"o":"m 397 1022 l 539 1022 l 889 0 l 775 0 l 672 292 l 261 292 l 161 0 l 47 0 l 397 1022 m 644 392 l 468 925 l 289 392 l 644 392 m 458 1096 q 326 1143 376 1096 q 276 1292 276 1190 l 331 1292 q 365 1183 331 1218 q 454 1149 399 1149 q 588 1292 588 1149 l 642 1292 q 592 1142 642 1188 q 458 1096 542 1096 m 442 -292 q 426 -285 432 -292 q 419 -269 419 -279 l 419 -161 q 442 -139 419 -139 l 493 -139 q 508 -145 503 -139 q 514 -161 514 -151 l 514 -269 q 508 -285 514 -279 q 493 -292 503 -292 l 442 -292 z "},"Ằ":{"ha":936,"x_min":47,"x_max":889,"o":"m 397 1022 l 539 1022 l 889 0 l 775 0 l 672 292 l 261 292 l 161 0 l 47 0 l 397 1022 m 644 392 l 468 925 l 289 392 l 644 392 m 275 1440 l 368 1440 l 513 1251 l 449 1251 l 275 1440 m 331 1242 q 365 1160 331 1186 q 454 1135 400 1135 q 553 1160 518 1135 q 588 1242 588 1185 l 642 1242 q 592 1122 642 1158 q 458 1086 542 1086 q 327 1124 378 1086 q 276 1242 276 1161 l 331 1242 z "},"Ẳ":{"ha":936,"x_min":47,"x_max":889,"o":"m 397 1022 l 539 1022 l 889 0 l 775 0 l 672 292 l 261 292 l 161 0 l 47 0 l 397 1022 m 644 392 l 468 925 l 289 392 l 644 392 m 436 1244 q 514 1326 514 1268 q 447 1388 514 1388 q 397 1379 422 1388 l 397 1426 q 461 1435 422 1435 q 546 1406 518 1435 q 574 1328 574 1378 q 540 1248 574 1282 q 436 1193 506 1214 l 436 1244 m 458 1086 q 327 1124 378 1086 q 276 1242 276 1161 l 331 1242 q 365 1160 331 1186 q 454 1135 400 1135 q 553 1160 518 1135 q 588 1242 588 1185 l 642 1242 q 592 1122 642 1158 q 458 1086 542 1086 z "},"Ẵ":{"ha":936,"x_min":47,"x_max":889,"o":"m 397 1022 l 539 1022 l 889 0 l 775 0 l 672 292 l 261 292 l 161 0 l 47 0 l 397 1022 m 644 392 l 468 925 l 289 392 l 644 392 m 357 1406 q 408 1397 383 1406 q 467 1374 432 1389 q 556 1347 522 1347 q 610 1363 589 1347 q 631 1408 631 1379 l 686 1408 q 571 1292 682 1292 q 522 1299 546 1292 q 465 1322 497 1307 q 414 1343 435 1336 q 372 1350 393 1350 q 320 1335 340 1350 q 300 1290 300 1319 l 243 1290 q 278 1379 246 1353 q 357 1406 310 1406 m 331 1242 q 365 1160 331 1186 q 454 1135 400 1135 q 553 1160 518 1135 q 588 1242 588 1185 l 642 1242 q 592 1122 642 1158 q 458 1086 542 1086 q 327 1124 378 1086 q 276 1242 276 1161 l 331 1242 z "},"Â":{"ha":936,"x_min":47,"x_max":889,"o":"m 397 1022 l 539 1022 l 889 0 l 775 0 l 672 292 l 261 292 l 161 0 l 47 0 l 397 1022 m 644 392 l 468 925 l 289 392 l 644 392 m 433 1286 l 511 1286 l 664 1099 l 597 1099 l 471 1233 l 332 1099 l 264 1099 l 433 1286 z "},"Ấ":{"ha":936,"x_min":47,"x_max":889,"o":"m 397 1022 l 539 1022 l 889 0 l 775 0 l 672 292 l 261 292 l 161 0 l 47 0 l 397 1022 m 644 392 l 468 925 l 289 392 l 644 392 m 800 1385 l 649 1206 l 585 1206 l 706 1385 l 800 1385 m 511 1235 l 664 1099 l 597 1099 l 469 1183 l 331 1099 l 264 1099 l 432 1235 l 511 1235 z "},"Ậ":{"ha":936,"x_min":47,"x_max":889,"o":"m 397 1022 l 539 1022 l 889 0 l 775 0 l 672 292 l 261 292 l 161 0 l 47 0 l 397 1022 m 644 392 l 468 925 l 289 392 l 644 392 m 433 1286 l 511 1286 l 664 1099 l 597 1099 l 471 1233 l 332 1099 l 264 1099 l 433 1286 m 442 -292 q 426 -285 432 -292 q 419 -269 419 -279 l 419 -161 q 442 -139 419 -139 l 493 -139 q 508 -145 503 -139 q 514 -161 514 -151 l 514 -269 q 508 -285 514 -279 q 493 -292 503 -292 l 442 -292 z "},"Ầ":{"ha":936,"x_min":47,"x_max":889,"o":"m 397 1022 l 539 1022 l 889 0 l 775 0 l 672 292 l 261 292 l 161 0 l 47 0 l 397 1022 m 644 392 l 468 925 l 289 392 l 644 392 m 231 1385 l 351 1206 l 288 1206 l 136 1385 l 231 1385 m 511 1235 l 664 1099 l 597 1099 l 469 1183 l 331 1099 l 264 1099 l 432 1235 l 511 1235 z "},"Ẩ":{"ha":936,"x_min":47,"x_max":889,"o":"m 397 1022 l 539 1022 l 889 0 l 775 0 l 672 292 l 261 292 l 161 0 l 47 0 l 397 1022 m 644 392 l 468 925 l 289 392 l 644 392 m 617 1221 q 669 1251 653 1232 q 686 1292 686 1269 q 628 1343 686 1343 q 579 1335 610 1343 l 579 1376 q 642 1386 607 1386 q 717 1362 692 1386 q 742 1296 742 1338 q 711 1222 742 1254 q 617 1171 681 1189 l 617 1221 m 432 1235 l 511 1235 l 664 1099 l 597 1099 l 469 1183 l 331 1099 l 264 1099 l 432 1235 z "},"Ẫ":{"ha":936,"x_min":47,"x_max":889,"o":"m 397 1022 l 539 1022 l 889 0 l 775 0 l 672 292 l 261 292 l 161 0 l 47 0 l 397 1022 m 644 392 l 468 925 l 289 392 l 644 392 m 357 1415 q 408 1407 383 1415 q 467 1383 432 1399 q 556 1357 522 1357 q 610 1373 589 1357 q 631 1418 631 1389 l 686 1418 q 571 1300 682 1300 q 521 1308 544 1300 q 463 1331 497 1315 q 409 1351 431 1344 q 367 1358 388 1358 q 319 1343 338 1358 q 300 1300 300 1328 l 243 1300 q 278 1389 246 1363 q 357 1415 310 1415 m 664 1099 l 597 1099 l 469 1183 l 331 1099 l 264 1099 l 432 1235 l 511 1235 l 664 1099 z "},"Ȁ":{"ha":936,"x_min":47,"x_max":889,"o":"m 397 1022 l 539 1022 l 889 0 l 775 0 l 672 292 l 261 292 l 161 0 l 47 0 l 397 1022 m 644 392 l 468 925 l 289 392 l 644 392 m 182 1288 l 276 1288 l 421 1099 l 356 1099 l 182 1288 m 385 1288 l 479 1288 l 624 1099 l 558 1099 l 385 1288 z "},"Ä":{"ha":936,"x_min":47,"x_max":889,"o":"m 397 1022 l 539 1022 l 889 0 l 775 0 l 672 292 l 261 292 l 161 0 l 47 0 l 397 1022 m 644 392 l 468 925 l 289 392 l 644 392 m 268 1129 q 252 1135 258 1129 q 246 1151 246 1142 l 246 1260 q 268 1282 246 1282 l 319 1282 q 335 1276 329 1282 q 342 1260 342 1269 l 342 1151 q 335 1135 342 1142 q 319 1129 329 1129 l 268 1129 m 596 1129 q 580 1135 586 1129 q 574 1151 574 1142 l 574 1260 q 596 1282 574 1282 l 647 1282 q 663 1276 657 1282 q 668 1260 668 1269 l 668 1151 q 663 1135 668 1142 q 647 1129 657 1129 l 596 1129 z "},"Ạ":{"ha":936,"x_min":47,"x_max":889,"o":"m 397 1022 l 539 1022 l 889 0 l 775 0 l 672 292 l 261 292 l 161 0 l 47 0 l 397 1022 m 644 392 l 468 925 l 289 392 l 644 392 m 442 -292 q 426 -285 432 -292 q 419 -269 419 -279 l 419 -161 q 442 -139 419 -139 l 493 -139 q 508 -145 503 -139 q 514 -161 514 -151 l 514 -269 q 508 -285 514 -279 q 493 -292 503 -292 l 442 -292 z "},"À":{"ha":936,"x_min":47,"x_max":889,"o":"m 397 1022 l 539 1022 l 889 0 l 775 0 l 672 292 l 261 292 l 161 0 l 47 0 l 397 1022 m 644 392 l 468 925 l 289 392 l 644 392 m 269 1288 l 363 1288 l 507 1099 l 443 1099 l 269 1288 z "},"Ả":{"ha":936,"x_min":47,"x_max":889,"o":"m 397 1022 l 539 1022 l 889 0 l 775 0 l 672 292 l 261 292 l 161 0 l 47 0 l 397 1022 m 644 392 l 468 925 l 289 392 l 644 392 m 438 1121 q 515 1203 515 1144 q 449 1264 515 1264 q 399 1256 424 1264 l 399 1303 q 463 1311 424 1311 q 547 1283 519 1311 q 575 1204 575 1254 q 541 1124 575 1158 q 438 1069 507 1090 l 438 1121 z "},"Ȃ":{"ha":936,"x_min":47,"x_max":889,"o":"m 397 1022 l 539 1022 l 889 0 l 775 0 l 672 292 l 261 292 l 161 0 l 47 0 l 397 1022 m 644 392 l 468 925 l 289 392 l 644 392 m 464 1293 q 596 1246 546 1293 q 646 1097 646 1199 l 592 1097 q 557 1206 592 1172 q 468 1240 522 1240 q 335 1097 335 1240 l 281 1097 q 331 1247 281 1201 q 464 1293 381 1293 z "},"Ā":{"ha":936,"x_min":47,"x_max":889,"o":"m 397 1022 l 539 1022 l 889 0 l 775 0 l 672 292 l 261 292 l 161 0 l 47 0 l 397 1022 m 644 392 l 468 925 l 289 392 l 644 392 m 275 1221 l 643 1221 l 643 1156 l 275 1156 l 275 1221 z "},"Ą":{"ha":936,"x_min":47,"x_max":889,"o":"m 397 1022 l 539 1022 l 889 0 l 775 0 l 672 292 l 261 292 l 161 0 l 47 0 l 397 1022 m 644 392 l 468 925 l 289 392 l 644 392 m 817 -260 q 710 -225 749 -260 q 671 -136 671 -190 q 697 -60 671 -94 q 775 0 724 -25 l 817 0 q 729 -112 729 -49 q 760 -178 729 -154 q 844 -203 790 -203 l 853 -203 l 853 -256 q 817 -260 838 -260 z "},"Å":{"ha":936,"x_min":47,"x_max":889,"o":"m 397 1022 l 539 1022 l 889 0 l 775 0 l 672 292 l 261 292 l 161 0 l 47 0 l 397 1022 m 644 392 l 468 925 l 289 392 l 644 392 m 469 1061 q 352 1094 390 1061 q 314 1208 314 1128 q 353 1324 314 1290 q 469 1358 392 1358 q 585 1324 547 1358 q 622 1208 622 1290 q 585 1094 622 1128 q 469 1061 547 1061 m 469 1107 q 544 1128 522 1107 q 567 1208 567 1150 q 544 1290 567 1267 q 469 1313 522 1313 q 392 1290 417 1313 q 368 1208 368 1267 q 392 1129 368 1151 q 469 1107 417 1107 z "},"Ǻ":{"ha":936,"x_min":47,"x_max":889,"o":"m 469 1061 q 352 1094 390 1061 q 314 1208 314 1128 q 349 1321 314 1286 q 456 1358 385 1356 l 586 1529 l 679 1529 l 518 1354 q 597 1310 571 1346 q 622 1208 622 1275 q 585 1094 622 1128 q 469 1061 547 1061 m 469 1313 q 392 1290 417 1313 q 368 1208 368 1267 q 392 1129 368 1151 q 469 1107 417 1107 q 544 1128 522 1107 q 567 1208 567 1150 q 544 1290 567 1267 q 469 1313 522 1313 m 889 0 l 775 0 l 672 292 l 261 292 l 161 0 l 47 0 l 397 1022 l 539 1022 l 889 0 m 644 392 l 468 925 l 289 392 l 644 392 z "},"Ã":{"ha":936,"x_min":47,"x_max":889,"o":"m 397 1022 l 539 1022 l 889 0 l 775 0 l 672 292 l 261 292 l 161 0 l 47 0 l 397 1022 m 644 392 l 468 925 l 289 392 l 644 392 m 229 1121 q 269 1233 231 1197 q 363 1269 308 1269 q 420 1258 394 1269 q 483 1224 446 1246 q 534 1194 513 1204 q 578 1185 556 1185 q 638 1208 614 1185 q 663 1272 661 1231 l 718 1272 q 682 1161 717 1201 q 585 1121 647 1121 q 530 1132 556 1121 q 467 1167 504 1143 q 413 1197 435 1186 q 368 1207 390 1207 q 310 1185 333 1207 q 286 1121 288 1163 l 229 1121 z "},"Æ":{"ha":1339,"x_min":47,"x_max":1258,"o":"m 875 -6 q 723 33 775 -6 q 667 164 671 72 l 667 290 l 336 290 l 157 0 l 47 0 l 543 835 q 667 978 596 933 q 850 1022 739 1022 q 1199 1011 988 1022 l 1258 1008 l 1258 921 l 868 921 q 791 899 814 921 q 768 828 768 876 l 768 557 l 1199 550 l 1199 465 l 768 458 l 768 218 q 801 125 768 153 q 900 97 835 97 l 1258 97 l 1258 10 l 1222 8 q 875 -6 1006 -6 m 667 385 l 667 854 l 388 385 l 667 385 z "},"Ǽ":{"ha":1339,"x_min":47,"x_max":1258,"o":"m 875 -6 q 723 33 775 -6 q 667 164 671 72 l 667 290 l 336 290 l 157 0 l 47 0 l 543 835 q 667 978 596 933 q 850 1022 739 1022 q 1199 1011 988 1022 l 1258 1008 l 1258 921 l 868 921 q 791 899 814 921 q 768 828 768 876 l 768 557 l 1199 550 l 1199 465 l 768 458 l 768 218 q 801 125 768 153 q 900 97 835 97 l 1258 97 l 1258 10 l 1222 8 q 875 -6 1006 -6 m 667 385 l 667 854 l 388 385 l 667 385 m 854 1288 l 947 1288 l 774 1099 l 710 1099 l 854 1288 z "},"B":{"ha":838,"x_min":107,"x_max":776,"o":"m 107 1022 l 476 1022 q 740 760 740 1022 q 699 608 740 668 q 596 531 658 549 q 721 454 665 515 q 776 283 776 393 q 704 64 776 128 q 490 0 632 0 l 107 0 l 107 1022 m 483 569 q 593 620 551 569 q 635 756 635 671 q 476 922 635 922 l 218 922 l 218 569 l 483 569 m 488 99 q 624 143 576 99 q 671 301 671 188 q 619 433 671 385 q 488 482 567 482 l 218 482 l 218 99 l 488 99 z "},"Ḃ":{"ha":838,"x_min":107,"x_max":776,"o":"m 107 1022 l 476 1022 q 740 760 740 1022 q 699 608 740 668 q 596 531 658 549 q 721 454 665 515 q 776 283 776 393 q 704 64 776 128 q 490 0 632 0 l 107 0 l 107 1022 m 483 569 q 593 620 551 569 q 635 756 635 671 q 476 922 635 922 l 218 922 l 218 569 l 483 569 m 488 99 q 624 143 576 99 q 671 301 671 188 q 619 433 671 385 q 488 482 567 482 l 218 482 l 218 99 l 488 99 m 379 1139 q 363 1145 369 1139 q 357 1161 357 1151 l 357 1269 q 379 1292 357 1292 l 431 1292 q 446 1285 440 1292 q 451 1269 451 1279 l 451 1161 q 446 1145 451 1151 q 431 1139 440 1139 l 379 1139 z "},"C":{"ha":807,"x_min":82,"x_max":743,"o":"m 442 -8 q 233 33 310 -8 q 119 186 157 74 q 82 514 82 299 q 121 830 82 718 q 239 986 160 942 q 450 1031 318 1031 q 597 1020 514 1031 q 743 993 679 1010 l 743 911 q 618 925 694 918 q 467 932 542 932 q 304 898 363 932 q 219 774 246 864 q 192 513 192 685 q 217 245 192 335 q 300 123 243 156 q 464 90 357 90 q 743 108 640 90 l 743 25 q 599 1 679 10 q 442 -8 519 -8 z "},"Ć":{"ha":807,"x_min":82,"x_max":743,"o":"m 442 -8 q 233 33 310 -8 q 119 186 157 74 q 82 514 82 299 q 121 830 82 718 q 239 986 160 942 q 450 1031 318 1031 q 597 1020 514 1031 q 743 993 679 1010 l 743 911 q 618 925 694 918 q 467 932 542 932 q 304 898 363 932 q 219 774 246 864 q 192 513 192 685 q 217 245 192 335 q 300 123 243 156 q 464 90 357 90 q 743 108 640 90 l 743 25 q 599 1 679 10 q 442 -8 519 -8 m 568 1288 l 661 1288 l 488 1099 l 424 1099 l 568 1288 z "},"Č":{"ha":807,"x_min":82,"x_max":743,"o":"m 442 -8 q 233 33 310 -8 q 119 186 157 74 q 82 514 82 299 q 121 830 82 718 q 239 986 160 942 q 450 1031 318 1031 q 597 1020 514 1031 q 743 993 679 1010 l 743 911 q 618 925 694 918 q 467 932 542 932 q 304 898 363 932 q 219 774 246 864 q 192 513 192 685 q 217 245 192 335 q 300 123 243 156 q 464 90 357 90 q 743 108 640 90 l 743 25 q 599 1 679 10 q 442 -8 519 -8 m 256 1286 l 322 1286 l 450 1151 l 589 1286 l 656 1286 l 488 1099 l 410 1099 l 256 1286 z "},"Ç":{"ha":807,"x_min":82,"x_max":743,"o":"m 467 932 q 304 898 363 932 q 219 774 246 864 q 192 513 192 685 q 217 245 192 335 q 300 123 243 156 q 464 90 357 90 q 743 108 640 90 l 743 25 q 489 -7 633 -3 l 444 -75 q 544 -164 544 -81 q 510 -237 544 -211 q 411 -264 475 -264 l 365 -264 l 365 -218 l 396 -215 q 454 -197 435 -211 q 474 -153 474 -182 q 453 -110 474 -126 q 382 -92 433 -93 l 436 -8 q 232 34 307 -7 q 119 188 157 75 q 82 514 82 300 q 121 830 82 718 q 239 986 160 942 q 450 1031 318 1031 q 597 1020 514 1031 q 743 993 679 1010 l 743 911 q 618 925 694 918 q 467 932 542 932 z "},"Ḉ":{"ha":807,"x_min":82,"x_max":743,"o":"m 488 1099 l 424 1099 l 568 1288 l 661 1288 l 488 1099 m 467 932 q 304 898 363 932 q 219 774 246 864 q 192 513 192 685 q 217 245 192 335 q 300 123 243 156 q 464 90 357 90 q 743 108 640 90 l 743 25 q 489 -7 633 -3 l 444 -75 q 544 -164 544 -81 q 510 -237 544 -211 q 411 -264 475 -264 l 365 -264 l 365 -218 l 396 -215 q 454 -197 435 -211 q 474 -153 474 -182 q 453 -110 474 -126 q 382 -92 433 -93 l 436 -8 q 232 34 307 -7 q 119 188 157 75 q 82 514 82 300 q 121 830 82 718 q 239 986 160 942 q 450 1031 318 1031 q 597 1020 514 1031 q 743 993 679 1010 l 743 911 q 618 925 694 918 q 467 932 542 932 z "},"Ĉ":{"ha":807,"x_min":82,"x_max":743,"o":"m 442 -8 q 233 33 310 -8 q 119 186 157 74 q 82 514 82 299 q 121 830 82 718 q 239 986 160 942 q 450 1031 318 1031 q 597 1020 514 1031 q 743 993 679 1010 l 743 911 q 618 925 694 918 q 467 932 542 932 q 304 898 363 932 q 219 774 246 864 q 192 513 192 685 q 217 245 192 335 q 300 123 243 156 q 464 90 357 90 q 743 108 640 90 l 743 25 q 599 1 679 10 q 442 -8 519 -8 m 415 1286 l 493 1286 l 646 1099 l 579 1099 l 453 1233 l 314 1099 l 246 1099 l 415 1286 z "},"Ċ":{"ha":807,"x_min":82,"x_max":743,"o":"m 442 -8 q 233 33 310 -8 q 119 186 157 74 q 82 514 82 299 q 121 830 82 718 q 239 986 160 942 q 450 1031 318 1031 q 597 1020 514 1031 q 743 993 679 1010 l 743 911 q 618 925 694 918 q 467 932 542 932 q 304 898 363 932 q 219 774 246 864 q 192 513 192 685 q 217 245 192 335 q 300 123 243 156 q 464 90 357 90 q 743 108 640 90 l 743 25 q 599 1 679 10 q 442 -8 519 -8 m 422 1139 q 406 1145 413 1139 q 400 1161 400 1151 l 400 1269 q 422 1292 400 1292 l 474 1292 q 489 1285 483 1292 q 494 1269 494 1279 l 494 1161 q 489 1145 494 1151 q 474 1139 483 1139 l 422 1139 z "},"D":{"ha":929,"x_min":107,"x_max":847,"o":"m 107 1022 l 511 1022 q 769 894 690 1022 q 847 511 847 767 q 762 133 847 267 q 511 0 676 0 l 107 0 l 107 1022 m 503 99 q 679 208 621 99 q 738 511 738 317 q 713 753 738 663 q 638 883 689 843 q 503 922 586 922 l 218 922 l 218 99 l 503 99 z "},"Ð":{"ha":929,"x_min":21,"x_max":847,"o":"m 511 1022 q 769 894 690 1022 q 847 511 847 767 q 762 133 847 267 q 511 0 676 0 l 107 0 l 107 479 l 21 479 l 21 556 l 107 556 l 107 1022 l 511 1022 m 503 99 q 679 208 621 99 q 738 511 738 317 q 713 753 738 663 q 638 883 689 843 q 503 922 586 922 l 218 922 l 218 556 l 451 556 l 451 479 l 218 479 l 218 99 l 503 99 z "},"Ď":{"ha":929,"x_min":107,"x_max":847,"o":"m 107 1022 l 511 1022 q 769 894 690 1022 q 847 511 847 767 q 762 133 847 267 q 511 0 676 0 l 107 0 l 107 1022 m 503 99 q 679 208 621 99 q 738 511 738 317 q 713 753 738 663 q 638 883 689 843 q 503 922 586 922 l 218 922 l 218 99 l 503 99 m 247 1286 l 314 1286 l 442 1151 l 581 1286 l 647 1286 l 479 1099 l 401 1099 l 247 1286 z "},"Đ":{"ha":929,"x_min":21,"x_max":847,"o":"m 511 1022 q 769 894 690 1022 q 847 511 847 767 q 762 133 847 267 q 511 0 676 0 l 107 0 l 107 479 l 21 479 l 21 556 l 107 556 l 107 1022 l 511 1022 m 503 99 q 679 208 621 99 q 738 511 738 317 q 713 753 738 663 q 638 883 689 843 q 503 922 586 922 l 218 922 l 218 556 l 451 556 l 451 479 l 218 479 l 218 99 l 503 99 z "},"Ḋ":{"ha":929,"x_min":107,"x_max":847,"o":"m 107 1022 l 511 1022 q 769 894 690 1022 q 847 511 847 767 q 762 133 847 267 q 511 0 676 0 l 107 0 l 107 1022 m 503 99 q 679 208 621 99 q 738 511 738 317 q 713 753 738 663 q 638 883 689 843 q 503 922 586 922 l 218 922 l 218 99 l 503 99 m 414 1139 q 398 1145 404 1139 q 392 1161 392 1151 l 392 1269 q 414 1292 392 1292 l 465 1292 q 481 1285 475 1292 q 486 1269 486 1279 l 486 1161 q 481 1145 486 1151 q 465 1139 475 1139 l 414 1139 z "},"Ḍ":{"ha":929,"x_min":107,"x_max":847,"o":"m 107 1022 l 511 1022 q 769 894 690 1022 q 847 511 847 767 q 762 133 847 267 q 511 0 676 0 l 107 0 l 107 1022 m 503 99 q 679 208 621 99 q 738 511 738 317 q 713 753 738 663 q 638 883 689 843 q 503 922 586 922 l 218 922 l 218 99 l 503 99 m 396 -292 q 380 -285 386 -292 q 374 -269 374 -279 l 374 -161 q 396 -139 374 -139 l 447 -139 q 463 -145 457 -139 q 468 -161 468 -151 l 468 -269 q 463 -285 468 -279 q 447 -292 457 -292 l 396 -292 z "},"Ḏ":{"ha":929,"x_min":107,"x_max":847,"o":"m 107 1022 l 511 1022 q 769 894 690 1022 q 847 511 847 767 q 762 133 847 267 q 511 0 676 0 l 107 0 l 107 1022 m 503 99 q 679 208 621 99 q 738 511 738 317 q 713 753 738 663 q 638 883 689 843 q 503 922 586 922 l 218 922 l 218 99 l 503 99 m 233 -196 l 601 -196 l 601 -261 l 233 -261 l 233 -196 z "},"E":{"ha":815,"x_min":107,"x_max":736,"o":"m 315 -6 q 167 35 228 -6 q 107 193 107 76 l 107 817 q 165 974 107 925 q 308 1022 224 1022 q 654 1013 531 1018 l 736 1010 l 736 921 l 336 921 q 218 799 218 921 l 218 557 l 675 550 l 675 465 l 218 458 l 218 218 q 251 122 218 147 q 342 97 285 97 l 736 97 l 736 8 q 315 -6 472 -6 z "},"É":{"ha":815,"x_min":107,"x_max":736,"o":"m 315 -6 q 167 35 228 -6 q 107 193 107 76 l 107 817 q 165 974 107 925 q 308 1022 224 1022 q 654 1013 531 1018 l 736 1010 l 736 921 l 336 921 q 218 799 218 921 l 218 557 l 675 550 l 675 465 l 218 458 l 218 218 q 251 122 218 147 q 342 97 285 97 l 736 97 l 736 8 q 315 -6 472 -6 m 550 1288 l 643 1288 l 469 1099 l 406 1099 l 550 1288 z "},"Ĕ":{"ha":815,"x_min":107,"x_max":736,"o":"m 315 -6 q 167 35 228 -6 q 107 193 107 76 l 107 817 q 165 974 107 925 q 308 1022 224 1022 q 654 1013 531 1018 l 736 1010 l 736 921 l 336 921 q 218 799 218 921 l 218 557 l 675 550 l 675 465 l 218 458 l 218 218 q 251 122 218 147 q 342 97 285 97 l 736 97 l 736 8 q 315 -6 472 -6 m 422 1096 q 290 1143 340 1096 q 240 1292 240 1190 l 294 1292 q 328 1183 294 1218 q 418 1149 363 1149 q 551 1292 551 1149 l 606 1292 q 556 1142 606 1188 q 422 1096 506 1096 z "},"Ě":{"ha":815,"x_min":107,"x_max":736,"o":"m 315 -6 q 167 35 228 -6 q 107 193 107 76 l 107 817 q 165 974 107 925 q 308 1022 224 1022 q 654 1013 531 1018 l 736 1010 l 736 921 l 336 921 q 218 799 218 921 l 218 557 l 675 550 l 675 465 l 218 458 l 218 218 q 251 122 218 147 q 342 97 285 97 l 736 97 l 736 8 q 315 -6 472 -6 m 238 1286 l 304 1286 l 432 1151 l 571 1286 l 638 1286 l 469 1099 l 392 1099 l 238 1286 z "},"Ḝ":{"ha":815,"x_min":107,"x_max":736,"o":"m 422 1096 q 290 1143 340 1096 q 240 1292 240 1190 l 294 1292 q 329 1183 294 1218 q 418 1149 364 1149 q 551 1292 551 1149 l 606 1292 q 556 1142 606 1188 q 422 1096 506 1096 m 336 921 q 218 799 218 921 l 218 557 l 675 550 l 675 465 l 218 458 l 218 218 q 251 122 218 147 q 342 97 285 97 l 736 97 l 736 8 q 474 -3 585 0 l 426 -75 q 526 -164 526 -81 q 492 -237 526 -211 q 393 -264 457 -264 l 347 -264 l 347 -218 l 378 -215 q 436 -197 417 -211 q 456 -153 456 -182 q 435 -110 456 -126 q 364 -92 415 -93 l 422 -4 l 315 -6 q 167 35 228 -6 q 107 193 107 76 l 107 817 q 165 974 107 925 q 308 1022 224 1022 q 654 1013 531 1018 l 736 1010 l 736 921 l 336 921 z "},"Ê":{"ha":815,"x_min":107,"x_max":736,"o":"m 315 -6 q 167 35 228 -6 q 107 193 107 76 l 107 817 q 165 974 107 925 q 308 1022 224 1022 q 654 1013 531 1018 l 736 1010 l 736 921 l 336 921 q 218 799 218 921 l 218 557 l 675 550 l 675 465 l 218 458 l 218 218 q 251 122 218 147 q 342 97 285 97 l 736 97 l 736 8 q 315 -6 472 -6 m 397 1286 l 475 1286 l 628 1099 l 561 1099 l 435 1233 l 296 1099 l 228 1099 l 397 1286 z "},"Ế":{"ha":815,"x_min":107,"x_max":764,"o":"m 315 -6 q 167 35 228 -6 q 107 193 107 76 l 107 817 q 165 974 107 925 q 308 1022 224 1022 q 654 1013 531 1018 l 736 1010 l 736 921 l 336 921 q 218 799 218 921 l 218 557 l 675 550 l 675 465 l 218 458 l 218 218 q 251 122 218 147 q 342 97 285 97 l 736 97 l 736 8 q 315 -6 472 -6 m 764 1385 l 613 1206 l 549 1206 l 669 1385 l 764 1385 m 475 1235 l 628 1099 l 561 1099 l 433 1183 l 294 1099 l 228 1099 l 396 1235 l 475 1235 z "},"Ệ":{"ha":815,"x_min":107,"x_max":736,"o":"m 315 -6 q 167 35 228 -6 q 107 193 107 76 l 107 817 q 165 974 107 925 q 308 1022 224 1022 q 654 1013 531 1018 l 736 1010 l 736 921 l 336 921 q 218 799 218 921 l 218 557 l 675 550 l 675 465 l 218 458 l 218 218 q 251 122 218 147 q 342 97 285 97 l 736 97 l 736 8 q 315 -6 472 -6 m 397 1286 l 475 1286 l 628 1099 l 561 1099 l 435 1233 l 296 1099 l 228 1099 l 397 1286 m 418 -292 q 402 -285 408 -292 q 396 -269 396 -279 l 396 -161 q 418 -139 396 -139 l 469 -139 q 485 -145 479 -139 q 490 -161 490 -151 l 490 -269 q 485 -285 490 -279 q 469 -292 479 -292 l 418 -292 z "},"Ề":{"ha":815,"x_min":100,"x_max":736,"o":"m 315 -6 q 167 35 228 -6 q 107 193 107 76 l 107 817 q 165 974 107 925 q 308 1022 224 1022 q 654 1013 531 1018 l 736 1010 l 736 921 l 336 921 q 218 799 218 921 l 218 557 l 675 550 l 675 465 l 218 458 l 218 218 q 251 122 218 147 q 342 97 285 97 l 736 97 l 736 8 q 315 -6 472 -6 m 194 1385 l 315 1206 l 251 1206 l 100 1385 l 194 1385 m 475 1235 l 628 1099 l 561 1099 l 433 1183 l 294 1099 l 228 1099 l 396 1235 l 475 1235 z "},"Ể":{"ha":815,"x_min":107,"x_max":736,"o":"m 315 -6 q 167 35 228 -6 q 107 193 107 76 l 107 817 q 165 974 107 925 q 308 1022 224 1022 q 654 1013 531 1018 l 736 1010 l 736 921 l 336 921 q 218 799 218 921 l 218 557 l 675 550 l 675 465 l 218 458 l 218 218 q 251 122 218 147 q 342 97 285 97 l 736 97 l 736 8 q 315 -6 472 -6 m 581 1221 q 633 1251 617 1232 q 650 1292 650 1269 q 592 1343 650 1343 q 543 1335 574 1343 l 543 1376 q 606 1386 571 1386 q 681 1362 656 1386 q 706 1296 706 1338 q 675 1222 706 1254 q 581 1171 644 1189 l 581 1221 m 396 1235 l 475 1235 l 628 1099 l 561 1099 l 433 1183 l 294 1099 l 228 1099 l 396 1235 z "},"Ễ":{"ha":815,"x_min":107,"x_max":736,"o":"m 315 -6 q 167 35 228 -6 q 107 193 107 76 l 107 817 q 165 974 107 925 q 308 1022 224 1022 q 654 1013 531 1018 l 736 1010 l 736 921 l 336 921 q 218 799 218 921 l 218 557 l 675 550 l 675 465 l 218 458 l 218 218 q 251 122 218 147 q 342 97 285 97 l 736 97 l 736 8 q 315 -6 472 -6 m 321 1415 q 372 1407 347 1415 q 431 1383 396 1399 q 519 1357 486 1357 q 574 1373 553 1357 q 594 1418 594 1389 l 650 1418 q 535 1300 646 1300 q 485 1308 508 1300 q 426 1331 461 1315 q 373 1351 394 1344 q 331 1358 351 1358 q 283 1343 301 1358 q 264 1300 264 1328 l 207 1300 q 242 1389 210 1363 q 321 1415 274 1415 m 628 1099 l 561 1099 l 433 1183 l 294 1099 l 228 1099 l 396 1235 l 475 1235 l 628 1099 z "},"Ȅ":{"ha":815,"x_min":107,"x_max":736,"o":"m 315 -6 q 167 35 228 -6 q 107 193 107 76 l 107 817 q 165 974 107 925 q 308 1022 224 1022 q 654 1013 531 1018 l 736 1010 l 736 921 l 336 921 q 218 799 218 921 l 218 557 l 675 550 l 675 465 l 218 458 l 218 218 q 251 122 218 147 q 342 97 285 97 l 736 97 l 736 8 q 315 -6 472 -6 m 147 1288 l 242 1288 l 386 1099 l 321 1099 l 147 1288 m 350 1288 l 444 1288 l 589 1099 l 524 1099 l 350 1288 z "},"Ë":{"ha":815,"x_min":107,"x_max":736,"o":"m 315 -6 q 167 35 228 -6 q 107 193 107 76 l 107 817 q 165 974 107 925 q 308 1022 224 1022 q 654 1013 531 1018 l 736 1010 l 736 921 l 336 921 q 218 799 218 921 l 218 557 l 675 550 l 675 465 l 218 458 l 218 218 q 251 122 218 147 q 342 97 285 97 l 736 97 l 736 8 q 315 -6 472 -6 m 232 1129 q 216 1135 222 1129 q 210 1151 210 1142 l 210 1260 q 232 1282 210 1282 l 283 1282 q 299 1276 293 1282 q 306 1260 306 1269 l 306 1151 q 299 1135 306 1142 q 283 1129 293 1129 l 232 1129 m 560 1129 q 544 1135 550 1129 q 538 1151 538 1142 l 538 1260 q 560 1282 538 1282 l 611 1282 q 626 1276 621 1282 q 632 1260 632 1269 l 632 1151 q 626 1135 632 1142 q 611 1129 621 1129 l 560 1129 z "},"Ė":{"ha":815,"x_min":107,"x_max":736,"o":"m 315 -6 q 167 35 228 -6 q 107 193 107 76 l 107 817 q 165 974 107 925 q 308 1022 224 1022 q 654 1013 531 1018 l 736 1010 l 736 921 l 336 921 q 218 799 218 921 l 218 557 l 675 550 l 675 465 l 218 458 l 218 218 q 251 122 218 147 q 342 97 285 97 l 736 97 l 736 8 q 315 -6 472 -6 m 404 1139 q 388 1145 394 1139 q 382 1161 382 1151 l 382 1269 q 404 1292 382 1292 l 456 1292 q 471 1285 465 1292 q 476 1269 476 1279 l 476 1161 q 471 1145 476 1151 q 456 1139 465 1139 l 404 1139 z "},"Ẹ":{"ha":815,"x_min":107,"x_max":736,"o":"m 315 -6 q 167 35 228 -6 q 107 193 107 76 l 107 817 q 165 974 107 925 q 308 1022 224 1022 q 654 1013 531 1018 l 736 1010 l 736 921 l 336 921 q 218 799 218 921 l 218 557 l 675 550 l 675 465 l 218 458 l 218 218 q 251 122 218 147 q 342 97 285 97 l 736 97 l 736 8 q 315 -6 472 -6 m 418 -292 q 402 -285 408 -292 q 396 -269 396 -279 l 396 -161 q 418 -139 396 -139 l 469 -139 q 485 -145 479 -139 q 490 -161 490 -151 l 490 -269 q 485 -285 490 -279 q 469 -292 479 -292 l 418 -292 z "},"È":{"ha":815,"x_min":107,"x_max":736,"o":"m 315 -6 q 167 35 228 -6 q 107 193 107 76 l 107 817 q 165 974 107 925 q 308 1022 224 1022 q 654 1013 531 1018 l 736 1010 l 736 921 l 336 921 q 218 799 218 921 l 218 557 l 675 550 l 675 465 l 218 458 l 218 218 q 251 122 218 147 q 342 97 285 97 l 736 97 l 736 8 q 315 -6 472 -6 m 233 1288 l 326 1288 l 471 1099 l 407 1099 l 233 1288 z "},"Ẻ":{"ha":815,"x_min":107,"x_max":736,"o":"m 315 -6 q 167 35 228 -6 q 107 193 107 76 l 107 817 q 165 974 107 925 q 308 1022 224 1022 q 654 1013 531 1018 l 736 1010 l 736 921 l 336 921 q 218 799 218 921 l 218 557 l 675 550 l 675 465 l 218 458 l 218 218 q 251 122 218 147 q 342 97 285 97 l 736 97 l 736 8 q 315 -6 472 -6 m 401 1121 q 479 1203 479 1144 q 413 1264 479 1264 q 363 1256 388 1264 l 363 1303 q 426 1311 388 1311 q 511 1283 483 1311 q 539 1204 539 1254 q 505 1124 539 1158 q 401 1069 471 1090 l 401 1121 z "},"Ȇ":{"ha":815,"x_min":107,"x_max":736,"o":"m 315 -6 q 167 35 228 -6 q 107 193 107 76 l 107 817 q 165 974 107 925 q 308 1022 224 1022 q 654 1013 531 1018 l 736 1010 l 736 921 l 336 921 q 218 799 218 921 l 218 557 l 675 550 l 675 465 l 218 458 l 218 218 q 251 122 218 147 q 342 97 285 97 l 736 97 l 736 8 q 315 -6 472 -6 m 428 1293 q 560 1246 510 1293 q 610 1097 610 1199 l 556 1097 q 521 1206 556 1172 q 432 1240 486 1240 q 299 1097 299 1240 l 244 1097 q 294 1247 244 1201 q 428 1293 344 1293 z "},"Ē":{"ha":815,"x_min":107,"x_max":736,"o":"m 315 -6 q 167 35 228 -6 q 107 193 107 76 l 107 817 q 165 974 107 925 q 308 1022 224 1022 q 654 1013 531 1018 l 736 1010 l 736 921 l 336 921 q 218 799 218 921 l 218 557 l 675 550 l 675 465 l 218 458 l 218 218 q 251 122 218 147 q 342 97 285 97 l 736 97 l 736 8 q 315 -6 472 -6 m 239 1221 l 607 1221 l 607 1156 l 239 1156 l 239 1221 z "},"Ḗ":{"ha":815,"x_min":107,"x_max":736,"o":"m 315 -6 q 167 35 228 -6 q 107 193 107 76 l 107 817 q 165 974 107 925 q 308 1022 224 1022 q 654 1013 531 1018 l 736 1010 l 736 921 l 336 921 q 218 799 218 921 l 218 557 l 675 550 l 675 465 l 218 458 l 218 218 q 251 122 218 147 q 342 97 285 97 l 736 97 l 736 8 q 315 -6 472 -6 m 239 1221 l 607 1221 l 607 1156 l 239 1156 l 239 1221 m 544 1468 l 638 1468 l 464 1279 l 400 1279 l 544 1468 z "},"Ḕ":{"ha":815,"x_min":107,"x_max":736,"o":"m 315 -6 q 167 35 228 -6 q 107 193 107 76 l 107 817 q 165 974 107 925 q 308 1022 224 1022 q 654 1013 531 1018 l 736 1010 l 736 921 l 336 921 q 218 799 218 921 l 218 557 l 675 550 l 675 465 l 218 458 l 218 218 q 251 122 218 147 q 342 97 285 97 l 736 97 l 736 8 q 315 -6 472 -6 m 239 1221 l 607 1221 l 607 1156 l 239 1156 l 239 1221 m 221 1468 l 314 1468 l 458 1279 l 394 1279 l 221 1468 z "},"Ę":{"ha":815,"x_min":107,"x_max":771,"o":"m 771 -194 l 771 -247 q 735 -251 757 -251 q 628 -217 667 -251 q 589 -128 589 -182 q 614 -53 589 -87 q 688 6 639 -19 q 315 -6 449 -6 q 167 35 228 -6 q 107 193 107 76 l 107 817 q 165 974 107 925 q 308 1022 224 1022 q 654 1013 531 1018 l 736 1010 l 736 921 l 336 921 q 218 799 218 921 l 218 557 l 675 550 l 675 465 l 218 458 l 218 218 q 251 122 218 147 q 342 97 285 97 l 736 97 l 736 8 l 735 8 q 647 -104 647 -40 q 678 -170 647 -146 q 763 -194 708 -194 l 771 -194 z "},"Ẽ":{"ha":815,"x_min":107,"x_max":736,"o":"m 315 -6 q 167 35 228 -6 q 107 193 107 76 l 107 817 q 165 974 107 925 q 308 1022 224 1022 q 654 1013 531 1018 l 736 1010 l 736 921 l 336 921 q 218 799 218 921 l 218 557 l 675 550 l 675 465 l 218 458 l 218 218 q 251 122 218 147 q 342 97 285 97 l 736 97 l 736 8 q 315 -6 472 -6 m 194 1121 q 235 1233 196 1197 q 328 1269 274 1269 q 385 1258 360 1269 q 449 1224 411 1246 q 499 1194 478 1204 q 543 1185 521 1185 q 603 1208 579 1185 q 628 1272 626 1231 l 683 1272 q 647 1161 682 1201 q 550 1121 613 1121 q 495 1132 521 1121 q 432 1167 469 1143 q 378 1197 400 1186 q 333 1207 356 1207 q 276 1185 299 1207 q 251 1121 253 1163 l 194 1121 z "},"F":{"ha":788,"x_min":107,"x_max":736,"o":"m 107 817 q 165 974 107 925 q 308 1022 224 1022 l 386 1021 q 531 1017 419 1019 q 736 1008 643 1015 l 736 921 l 335 921 q 249 890 279 921 q 218 800 218 858 l 218 535 l 675 528 l 675 443 l 218 436 l 218 0 l 107 0 l 107 817 z "},"Ḟ":{"ha":788,"x_min":107,"x_max":736,"o":"m 107 817 q 165 974 107 925 q 308 1022 224 1022 l 386 1021 q 531 1017 419 1019 q 736 1008 643 1015 l 736 921 l 335 921 q 249 890 279 921 q 218 800 218 858 l 218 535 l 675 528 l 675 443 l 218 436 l 218 0 l 107 0 l 107 817 m 404 1139 q 388 1145 394 1139 q 382 1161 382 1151 l 382 1269 q 404 1292 382 1292 l 456 1292 q 471 1285 465 1292 q 476 1269 476 1279 l 476 1161 q 471 1145 476 1151 q 456 1139 465 1139 l 404 1139 z "},"G":{"ha":907,"x_min":82,"x_max":799,"o":"m 407 -7 q 210 48 281 -7 q 110 215 139 103 q 82 514 82 326 q 113 807 82 696 q 219 974 143 918 q 428 1031 294 1031 q 594 1021 507 1031 q 757 994 682 1011 l 757 913 q 614 926 701 919 q 444 932 526 932 q 290 890 344 932 q 213 759 235 849 q 192 513 192 669 q 213 257 192 346 q 288 131 235 168 q 440 94 340 94 q 569 110 501 94 q 693 147 636 125 l 693 449 l 446 449 l 446 531 q 675 544 536 544 q 799 539 756 544 l 799 0 l 718 0 l 701 72 q 563 17 639 40 q 407 -7 486 -7 z "},"Ğ":{"ha":907,"x_min":82,"x_max":799,"o":"m 407 -7 q 210 48 281 -7 q 110 215 139 103 q 82 514 82 326 q 113 807 82 696 q 219 974 143 918 q 428 1031 294 1031 q 594 1021 507 1031 q 757 994 682 1011 l 757 913 q 614 926 701 919 q 444 932 526 932 q 290 890 344 932 q 213 759 235 849 q 192 513 192 669 q 213 257 192 346 q 288 131 235 168 q 440 94 340 94 q 569 110 501 94 q 693 147 636 125 l 693 449 l 446 449 l 446 531 q 675 544 536 544 q 799 539 756 544 l 799 0 l 718 0 l 701 72 q 563 17 639 40 q 407 -7 486 -7 m 446 1096 q 314 1143 364 1096 q 264 1292 264 1190 l 318 1292 q 352 1183 318 1218 q 442 1149 386 1149 q 575 1292 575 1149 l 629 1292 q 579 1142 629 1188 q 446 1096 529 1096 z "},"Ǧ":{"ha":907,"x_min":82,"x_max":799,"o":"m 407 -7 q 210 48 281 -7 q 110 215 139 103 q 82 514 82 326 q 113 807 82 696 q 219 974 143 918 q 428 1031 294 1031 q 594 1021 507 1031 q 757 994 682 1011 l 757 913 q 614 926 701 919 q 444 932 526 932 q 290 890 344 932 q 213 759 235 849 q 192 513 192 669 q 213 257 192 346 q 288 131 235 168 q 440 94 340 94 q 569 110 501 94 q 693 147 636 125 l 693 449 l 446 449 l 446 531 q 675 544 536 544 q 799 539 756 544 l 799 0 l 718 0 l 701 72 q 563 17 639 40 q 407 -7 486 -7 m 261 1286 l 328 1286 l 456 1151 l 594 1286 l 661 1286 l 493 1099 l 415 1099 l 261 1286 z "},"Ĝ":{"ha":907,"x_min":82,"x_max":799,"o":"m 407 -7 q 210 48 281 -7 q 110 215 139 103 q 82 514 82 326 q 113 807 82 696 q 219 974 143 918 q 428 1031 294 1031 q 594 1021 507 1031 q 757 994 682 1011 l 757 913 q 614 926 701 919 q 444 932 526 932 q 290 890 344 932 q 213 759 235 849 q 192 513 192 669 q 213 257 192 346 q 288 131 235 168 q 440 94 340 94 q 569 110 501 94 q 693 147 636 125 l 693 449 l 446 449 l 446 531 q 675 544 536 544 q 799 539 756 544 l 799 0 l 718 0 l 701 72 q 563 17 639 40 q 407 -7 486 -7 m 421 1286 l 499 1286 l 651 1099 l 585 1099 l 458 1233 l 319 1099 l 251 1099 l 421 1286 z "},"Ģ":{"ha":907,"x_min":82,"x_max":799,"o":"m 407 -7 q 210 48 281 -7 q 110 215 139 103 q 82 514 82 326 q 113 807 82 696 q 219 974 143 918 q 428 1031 294 1031 q 594 1021 507 1031 q 757 994 682 1011 l 757 913 q 614 926 701 919 q 444 932 526 932 q 290 890 344 932 q 213 759 235 849 q 192 513 192 669 q 213 257 192 346 q 288 131 235 168 q 440 94 340 94 q 569 110 501 94 q 693 147 636 125 l 693 449 l 446 449 l 446 531 q 675 544 536 544 q 799 539 756 544 l 799 0 l 718 0 l 701 72 q 563 17 639 40 q 407 -7 486 -7 m 357 -236 l 399 -229 q 454 -213 435 -224 q 483 -174 474 -203 q 493 -87 493 -144 l 561 -87 q 549 -201 561 -160 q 503 -261 536 -242 q 410 -281 471 -281 l 357 -281 l 357 -236 z "},"Ġ":{"ha":907,"x_min":82,"x_max":799,"o":"m 407 -7 q 210 48 281 -7 q 110 215 139 103 q 82 514 82 326 q 113 807 82 696 q 219 974 143 918 q 428 1031 294 1031 q 594 1021 507 1031 q 757 994 682 1011 l 757 913 q 614 926 701 919 q 444 932 526 932 q 290 890 344 932 q 213 759 235 849 q 192 513 192 669 q 213 257 192 346 q 288 131 235 168 q 440 94 340 94 q 569 110 501 94 q 693 147 636 125 l 693 449 l 446 449 l 446 531 q 675 544 536 544 q 799 539 756 544 l 799 0 l 718 0 l 701 72 q 563 17 639 40 q 407 -7 486 -7 m 428 1139 q 412 1145 418 1139 q 406 1161 406 1151 l 406 1269 q 428 1292 406 1292 l 479 1292 q 494 1285 489 1292 q 500 1269 500 1279 l 500 1161 q 494 1145 500 1151 q 479 1139 489 1139 l 428 1139 z "},"Ḡ":{"ha":907,"x_min":82,"x_max":799,"o":"m 407 -7 q 210 48 281 -7 q 110 215 139 103 q 82 514 82 326 q 113 807 82 696 q 219 974 143 918 q 428 1031 294 1031 q 594 1021 507 1031 q 757 994 682 1011 l 757 913 q 614 926 701 919 q 444 932 526 932 q 290 890 344 932 q 213 759 235 849 q 192 513 192 669 q 213 257 192 346 q 288 131 235 168 q 440 94 340 94 q 569 110 501 94 q 693 147 636 125 l 693 449 l 446 449 l 446 531 q 675 544 536 544 q 799 539 756 544 l 799 0 l 718 0 l 701 72 q 563 17 639 40 q 407 -7 486 -7 m 263 1221 l 631 1221 l 631 1156 l 263 1156 l 263 1221 z "},"H":{"ha":947,"x_min":107,"x_max":839,"o":"m 107 1022 l 218 1022 l 218 549 l 729 549 l 729 1022 l 839 1022 l 839 0 l 729 0 l 729 450 l 218 450 l 218 0 l 107 0 l 107 1022 z "},"Ħ":{"ha":947,"x_min":21,"x_max":926,"o":"m 926 729 l 839 729 l 839 0 l 729 0 l 729 450 l 218 450 l 218 0 l 107 0 l 107 729 l 21 729 l 21 793 l 107 793 l 107 1022 l 218 1022 l 218 793 l 729 793 l 729 1022 l 839 1022 l 839 793 l 926 793 l 926 729 m 729 729 l 218 729 l 218 549 l 729 549 l 729 729 z "},"Ḫ":{"ha":947,"x_min":107,"x_max":839,"o":"m 107 1022 l 218 1022 l 218 549 l 729 549 l 729 1022 l 839 1022 l 839 0 l 729 0 l 729 450 l 218 450 l 218 0 l 107 0 l 107 1022 m 468 -307 q 336 -260 386 -307 q 286 -111 286 -212 l 340 -111 q 374 -220 340 -186 q 464 -254 408 -254 q 597 -111 597 -254 l 651 -111 q 601 -261 651 -215 q 468 -307 551 -307 z "},"Ĥ":{"ha":947,"x_min":107,"x_max":839,"o":"m 107 1022 l 218 1022 l 218 549 l 729 549 l 729 1022 l 839 1022 l 839 0 l 729 0 l 729 450 l 218 450 l 218 0 l 107 0 l 107 1022 m 439 1286 l 517 1286 l 669 1099 l 603 1099 l 476 1233 l 338 1099 l 269 1099 l 439 1286 z "},"Ḥ":{"ha":947,"x_min":107,"x_max":839,"o":"m 107 1022 l 218 1022 l 218 549 l 729 549 l 729 1022 l 839 1022 l 839 0 l 729 0 l 729 450 l 218 450 l 218 0 l 107 0 l 107 1022 m 447 -292 q 431 -285 438 -292 q 425 -269 425 -279 l 425 -161 q 447 -139 425 -139 l 499 -139 q 514 -145 508 -139 q 519 -161 519 -151 l 519 -269 q 514 -285 519 -279 q 499 -292 508 -292 l 447 -292 z "},"I":{"ha":325,"x_min":107,"x_max":218,"o":"m 107 1022 l 218 1022 l 218 0 l 107 0 l 107 1022 z "},"Í":{"ha":325,"x_min":107,"x_max":374,"o":"m 107 1022 l 218 1022 l 218 0 l 107 0 l 107 1022 m 281 1288 l 374 1288 l 200 1099 l 136 1099 l 281 1288 z "},"Ĭ":{"ha":325,"x_min":-29,"x_max":336,"o":"m 107 1022 l 218 1022 l 218 0 l 107 0 l 107 1022 m 153 1096 q 21 1143 71 1096 q -29 1292 -29 1190 l 25 1292 q 59 1183 25 1218 q 149 1149 93 1149 q 282 1292 282 1149 l 336 1292 q 286 1142 336 1188 q 153 1096 236 1096 z "},"Î":{"ha":325,"x_min":-42,"x_max":358,"o":"m 107 1022 l 218 1022 l 218 0 l 107 0 l 107 1022 m 128 1286 l 206 1286 l 358 1099 l 292 1099 l 165 1233 l 26 1099 l -42 1099 l 128 1286 z "},"Ȉ":{"ha":325,"x_min":-124,"x_max":318,"o":"m 107 1022 l 218 1022 l 218 0 l 107 0 l 107 1022 m -124 1288 l -29 1288 l 115 1099 l 50 1099 l -124 1288 m 79 1288 l 174 1288 l 318 1099 l 253 1099 l 79 1288 z "},"Ï":{"ha":325,"x_min":-60,"x_max":363,"o":"m 107 1022 l 218 1022 l 218 0 l 107 0 l 107 1022 m -37 1129 q -53 1135 -47 1129 q -60 1151 -60 1142 l -60 1260 q -37 1282 -60 1282 l 14 1282 q 30 1276 24 1282 q 36 1260 36 1269 l 36 1151 q 30 1135 36 1142 q 14 1129 24 1129 l -37 1129 m 290 1129 q 274 1135 281 1129 q 268 1151 268 1142 l 268 1260 q 290 1282 268 1282 l 342 1282 q 357 1276 351 1282 q 363 1260 363 1269 l 363 1151 q 357 1135 363 1142 q 342 1129 351 1129 l 290 1129 z "},"Ḯ":{"ha":325,"x_min":-60,"x_max":369,"o":"m 107 1022 l 218 1022 l 218 0 l 107 0 l 107 1022 m -37 1129 q -53 1135 -47 1129 q -60 1151 -60 1142 l -60 1260 q -37 1282 -60 1282 l 14 1282 q 30 1276 24 1282 q 36 1260 36 1269 l 36 1151 q 30 1135 36 1142 q 14 1129 24 1129 l -37 1129 m 290 1129 q 274 1135 281 1129 q 268 1151 268 1142 l 268 1260 q 290 1282 268 1282 l 342 1282 q 357 1276 351 1282 q 363 1260 363 1269 l 363 1151 q 357 1135 363 1142 q 342 1129 351 1129 l 290 1129 m 276 1514 l 369 1514 l 196 1325 l 132 1325 l 276 1514 z "},"İ":{"ha":325,"x_min":107,"x_max":218,"o":"m 107 1022 l 218 1022 l 218 0 l 107 0 l 107 1022 m 135 1139 q 119 1145 125 1139 q 113 1161 113 1151 l 113 1269 q 135 1292 113 1292 l 186 1292 q 201 1285 196 1292 q 207 1269 207 1279 l 207 1161 q 201 1145 207 1151 q 186 1139 196 1139 l 135 1139 z "},"Ị":{"ha":325,"x_min":107,"x_max":218,"o":"m 107 1022 l 218 1022 l 218 0 l 107 0 l 107 1022 m 136 -292 q 120 -285 126 -292 q 114 -269 114 -279 l 114 -161 q 136 -139 114 -139 l 188 -139 q 203 -145 197 -139 q 208 -161 208 -151 l 208 -269 q 203 -285 208 -279 q 188 -292 197 -292 l 136 -292 z "},"Ì":{"ha":325,"x_min":-36,"x_max":218,"o":"m 107 1022 l 218 1022 l 218 0 l 107 0 l 107 1022 m -36 1288 l 57 1288 l 201 1099 l 138 1099 l -36 1288 z "},"Ỉ":{"ha":325,"x_min":93,"x_max":269,"o":"m 107 1022 l 218 1022 l 218 0 l 107 0 l 107 1022 m 132 1121 q 210 1203 210 1144 q 143 1264 210 1264 q 93 1256 118 1264 l 93 1303 q 157 1311 118 1311 q 242 1283 214 1311 q 269 1204 269 1254 q 235 1124 269 1158 q 132 1069 201 1090 l 132 1121 z "},"Ȋ":{"ha":325,"x_min":-25,"x_max":340,"o":"m 107 1022 l 218 1022 l 218 0 l 107 0 l 107 1022 m 158 1293 q 290 1246 240 1293 q 340 1097 340 1199 l 286 1097 q 251 1206 286 1172 q 163 1240 217 1240 q 29 1097 29 1240 l -25 1097 q 25 1247 -25 1201 q 158 1293 75 1293 z "},"Ī":{"ha":325,"x_min":-31,"x_max":338,"o":"m 107 1022 l 218 1022 l 218 0 l 107 0 l 107 1022 m -31 1221 l 338 1221 l 338 1156 l -31 1156 l -31 1221 z "},"Į":{"ha":325,"x_min":71,"x_max":253,"o":"m 107 1022 l 218 1022 l 218 0 l 107 0 l 107 1022 m 217 -260 q 110 -225 149 -260 q 71 -136 71 -190 q 97 -60 71 -94 q 175 0 124 -25 l 217 0 q 129 -112 129 -49 q 160 -178 129 -154 q 244 -203 190 -203 l 253 -203 l 253 -256 q 217 -260 238 -260 z "},"Ĩ":{"ha":325,"x_min":-76,"x_max":413,"o":"m 107 1022 l 218 1022 l 218 0 l 107 0 l 107 1022 m -76 1121 q -36 1233 -75 1197 q 57 1269 3 1269 q 115 1258 89 1269 q 178 1224 140 1246 q 228 1194 207 1204 q 272 1185 250 1185 q 332 1208 308 1185 q 357 1272 356 1231 l 413 1272 q 376 1161 411 1201 q 279 1121 342 1121 q 224 1132 250 1121 q 161 1167 199 1143 q 107 1197 129 1186 q 63 1207 85 1207 q 5 1185 28 1207 q -19 1121 -18 1163 l -76 1121 z "},"J":{"ha":535,"x_min":38,"x_max":426,"o":"m 194 -8 q 111 1 156 -8 q 38 24 67 10 l 38 108 q 174 90 122 90 q 281 122 244 90 q 317 238 317 154 l 317 1022 l 426 1022 l 426 224 q 370 45 426 99 q 194 -8 314 -8 z "},"Ĵ":{"ha":535,"x_min":38,"x_max":568,"o":"m 194 -8 q 111 1 156 -8 q 38 24 67 10 l 38 108 q 174 90 122 90 q 281 122 244 90 q 317 238 317 154 l 317 1022 l 426 1022 l 426 224 q 370 45 426 99 q 194 -8 314 -8 m 338 1286 l 415 1286 l 568 1099 l 501 1099 l 375 1233 l 236 1099 l 168 1099 l 338 1286 z "},"K":{"ha":840,"x_min":107,"x_max":799,"o":"m 107 1022 l 218 1022 l 218 560 l 397 560 l 678 1022 l 794 1022 l 485 511 l 799 0 l 681 0 l 397 460 l 218 460 l 218 0 l 107 0 l 107 1022 z "},"Ķ":{"ha":840,"x_min":107,"x_max":799,"o":"m 107 1022 l 218 1022 l 218 560 l 397 560 l 678 1022 l 794 1022 l 485 511 l 799 0 l 681 0 l 397 460 l 218 460 l 218 0 l 107 0 l 107 1022 m 292 -236 l 333 -229 q 389 -213 369 -224 q 418 -174 408 -203 q 428 -87 428 -144 l 496 -87 q 483 -201 496 -160 q 438 -261 471 -242 q 344 -281 406 -281 l 292 -281 l 292 -236 z "},"L":{"ha":739,"x_min":107,"x_max":703,"o":"m 313 0 q 161 47 215 0 q 107 206 107 93 l 107 1022 l 218 1022 l 218 221 q 250 127 218 153 q 336 101 282 101 l 703 101 l 703 0 l 313 0 z "},"Ĺ":{"ha":739,"x_min":107,"x_max":703,"o":"m 313 0 q 161 47 215 0 q 107 206 107 93 l 107 1022 l 218 1022 l 218 221 q 250 127 218 153 q 336 101 282 101 l 703 101 l 703 0 l 313 0 m 281 1288 l 374 1288 l 200 1099 l 136 1099 l 281 1288 z "},"Ľ":{"ha":739,"x_min":107,"x_max":703,"o":"m 313 0 q 161 47 215 0 q 107 206 107 93 l 107 1022 l 218 1022 l 218 221 q 250 127 218 153 q 336 101 282 101 l 703 101 l 703 0 l 313 0 m 339 1004 l 339 1088 l 440 1088 l 440 1004 l 432 808 l 347 808 l 339 1004 z "},"Ļ":{"ha":739,"x_min":107,"x_max":703,"o":"m 313 0 q 161 47 215 0 q 107 206 107 93 l 107 1022 l 218 1022 l 218 221 q 250 127 218 153 q 336 101 282 101 l 703 101 l 703 0 l 313 0 m 265 -236 l 307 -229 q 363 -213 343 -224 q 392 -174 382 -203 q 401 -87 401 -144 l 469 -87 q 457 -201 469 -160 q 412 -261 444 -242 q 318 -281 379 -281 l 265 -281 l 265 -236 z "},"Ŀ":{"ha":739,"x_min":107,"x_max":703,"o":"m 313 0 q 161 47 215 0 q 107 206 107 93 l 107 1022 l 218 1022 l 218 221 q 250 127 218 153 q 336 101 282 101 l 703 101 l 703 0 l 313 0 m 514 489 q 498 494 504 489 q 492 510 492 500 l 492 575 q 514 597 492 597 l 575 597 q 599 575 599 597 l 599 510 q 575 489 599 489 l 514 489 z "},"Ḷ":{"ha":739,"x_min":107,"x_max":703,"o":"m 313 0 q 161 47 215 0 q 107 206 107 93 l 107 1022 l 218 1022 l 218 221 q 250 127 218 153 q 336 101 282 101 l 703 101 l 703 0 l 313 0 m 353 -292 q 337 -285 343 -292 q 331 -269 331 -279 l 331 -161 q 353 -139 331 -139 l 404 -139 q 419 -145 414 -139 q 425 -161 425 -151 l 425 -269 q 419 -285 425 -279 q 404 -292 414 -292 l 353 -292 z "},"Ḻ":{"ha":739,"x_min":107,"x_max":703,"o":"m 313 0 q 161 47 215 0 q 107 206 107 93 l 107 1022 l 218 1022 l 218 221 q 250 127 218 153 q 336 101 282 101 l 703 101 l 703 0 l 313 0 m 190 -196 l 558 -196 l 558 -261 l 190 -261 l 190 -196 z "},"Ł":{"ha":739,"x_min":3,"x_max":703,"o":"m 703 101 l 703 0 l 313 0 q 161 47 215 0 q 107 206 107 93 l 107 482 l 3 436 l 3 501 l 107 547 l 107 1022 l 218 1022 l 218 581 l 406 663 l 406 599 l 218 517 l 218 221 q 250 127 218 153 q 336 101 282 101 l 703 101 z "},"M":{"ha":1160,"x_min":79,"x_max":1081,"o":"m 974 0 l 876 849 l 631 0 l 529 0 l 279 842 l 186 0 l 79 0 l 196 1022 l 308 1022 l 581 139 l 847 1022 l 961 1022 l 1081 0 l 974 0 z "},"Ṁ":{"ha":1160,"x_min":79,"x_max":1081,"o":"m 974 0 l 876 849 l 631 0 l 529 0 l 279 842 l 186 0 l 79 0 l 196 1022 l 308 1022 l 581 139 l 847 1022 l 961 1022 l 1081 0 l 974 0 m 547 1139 q 531 1145 538 1139 q 525 1161 525 1151 l 525 1269 q 547 1292 525 1292 l 599 1292 q 614 1285 608 1292 q 619 1269 619 1279 l 619 1161 q 614 1145 619 1151 q 599 1139 608 1139 l 547 1139 z "},"Ṃ":{"ha":1160,"x_min":79,"x_max":1081,"o":"m 974 0 l 876 849 l 631 0 l 529 0 l 279 842 l 186 0 l 79 0 l 196 1022 l 308 1022 l 581 139 l 847 1022 l 961 1022 l 1081 0 l 974 0 m 549 -292 q 533 -285 539 -292 q 526 -269 526 -279 l 526 -161 q 549 -139 526 -139 l 600 -139 q 615 -145 610 -139 q 621 -161 621 -151 l 621 -269 q 615 -285 621 -279 q 600 -292 610 -292 l 549 -292 z "},"N":{"ha":949,"x_min":126,"x_max":860,"o":"m 126 1022 l 217 1022 l 750 190 l 750 1022 l 860 1022 l 860 0 l 769 0 l 236 832 l 236 0 l 126 0 l 126 1022 z "},"Ń":{"ha":949,"x_min":126,"x_max":860,"o":"m 126 1022 l 217 1022 l 750 190 l 750 1022 l 860 1022 l 860 0 l 769 0 l 236 832 l 236 0 l 126 0 l 126 1022 m 589 1288 l 682 1288 l 508 1099 l 444 1099 l 589 1288 z "},"Ň":{"ha":949,"x_min":126,"x_max":860,"o":"m 126 1022 l 217 1022 l 750 190 l 750 1022 l 860 1022 l 860 0 l 769 0 l 236 832 l 236 0 l 126 0 l 126 1022 m 276 1286 l 343 1286 l 471 1151 l 610 1286 l 676 1286 l 508 1099 l 431 1099 l 276 1286 z "},"Ņ":{"ha":949,"x_min":126,"x_max":860,"o":"m 126 1022 l 217 1022 l 750 190 l 750 1022 l 860 1022 l 860 0 l 769 0 l 236 832 l 236 0 l 126 0 l 126 1022 m 357 -236 l 399 -229 q 454 -213 435 -224 q 483 -174 474 -203 q 493 -87 493 -144 l 561 -87 q 549 -201 561 -160 q 503 -261 536 -242 q 410 -281 471 -281 l 357 -281 l 357 -236 z "},"Ṅ":{"ha":949,"x_min":126,"x_max":860,"o":"m 126 1022 l 217 1022 l 750 190 l 750 1022 l 860 1022 l 860 0 l 769 0 l 236 832 l 236 0 l 126 0 l 126 1022 m 444 -292 q 428 -285 435 -292 q 422 -269 422 -279 l 422 -161 q 444 -139 422 -139 l 496 -139 q 511 -145 506 -139 q 517 -161 517 -151 l 517 -269 q 511 -285 517 -279 q 496 -292 506 -292 l 444 -292 z "},"Ṇ":{"ha":949,"x_min":126,"x_max":860,"o":"m 126 1022 l 217 1022 l 750 190 l 750 1022 l 860 1022 l 860 0 l 769 0 l 236 832 l 236 0 l 126 0 l 126 1022 m 444 -292 q 428 -285 435 -292 q 422 -269 422 -279 l 422 -161 q 444 -139 422 -139 l 496 -139 q 511 -145 506 -139 q 517 -161 517 -151 l 517 -269 q 511 -285 517 -279 q 496 -292 506 -292 l 444 -292 z "},"Ŋ":{"ha":943,"x_min":126,"x_max":860,"o":"m 860 1022 l 860 -106 q 799 -284 860 -231 q 610 -337 738 -337 q 526 -328 571 -337 q 453 -306 482 -319 l 453 -221 q 593 -239 540 -239 q 710 -207 669 -239 q 750 -92 750 -175 l 750 31 l 236 832 l 236 0 l 126 0 l 126 1022 l 217 1022 l 750 190 l 750 1022 l 860 1022 z "},"Ṉ":{"ha":949,"x_min":126,"x_max":860,"o":"m 126 1022 l 217 1022 l 750 190 l 750 1022 l 860 1022 l 860 0 l 769 0 l 236 832 l 236 0 l 126 0 l 126 1022 m 282 -196 l 650 -196 l 650 -261 l 282 -261 l 282 -196 z "},"Ñ":{"ha":949,"x_min":126,"x_max":860,"o":"m 126 1022 l 217 1022 l 750 190 l 750 1022 l 860 1022 l 860 0 l 769 0 l 236 832 l 236 0 l 126 0 l 126 1022 m 233 1121 q 274 1233 235 1197 q 367 1269 313 1269 q 424 1258 399 1269 q 488 1224 450 1246 q 538 1194 517 1204 q 582 1185 560 1185 q 642 1208 618 1185 q 667 1272 665 1231 l 722 1272 q 686 1161 721 1201 q 589 1121 651 1121 q 534 1132 560 1121 q 471 1167 508 1143 q 417 1197 439 1186 q 372 1207 394 1207 q 315 1185 338 1207 q 290 1121 292 1163 l 233 1121 z "},"O":{"ha":953,"x_min":82,"x_max":871,"o":"m 476 -8 q 249 30 332 -8 q 124 178 167 68 q 82 507 82 289 q 126 837 82 724 q 253 990 169 950 q 476 1031 336 1031 q 704 991 621 1031 q 829 838 788 951 q 871 507 871 725 q 828 178 871 289 q 703 30 786 68 q 476 -8 621 -8 m 476 90 q 647 121 588 90 q 733 240 706 151 q 761 507 761 329 q 733 782 761 692 q 647 902 706 872 q 476 932 588 932 q 311 902 371 932 q 222 781 251 872 q 192 507 192 689 q 218 240 192 328 q 303 121 244 151 q 476 90 363 90 z "},"Ó":{"ha":953,"x_min":82,"x_max":871,"o":"m 476 -8 q 249 30 332 -8 q 124 178 167 68 q 82 507 82 289 q 126 837 82 724 q 253 990 169 950 q 476 1031 336 1031 q 704 991 621 1031 q 829 838 788 951 q 871 507 871 725 q 828 178 871 289 q 703 30 786 68 q 476 -8 621 -8 m 476 90 q 647 121 588 90 q 733 240 706 151 q 761 507 761 329 q 733 782 761 692 q 647 902 706 872 q 476 932 588 932 q 311 902 371 932 q 222 781 251 872 q 192 507 192 689 q 218 240 192 328 q 303 121 244 151 q 476 90 363 90 m 594 1288 l 688 1288 l 514 1099 l 450 1099 l 594 1288 z "},"Ŏ":{"ha":953,"x_min":82,"x_max":871,"o":"m 476 -8 q 249 30 332 -8 q 124 178 167 68 q 82 507 82 289 q 126 837 82 724 q 253 990 169 950 q 476 1031 336 1031 q 704 991 621 1031 q 829 838 788 951 q 871 507 871 725 q 828 178 871 289 q 703 30 786 68 q 476 -8 621 -8 m 476 90 q 647 121 588 90 q 733 240 706 151 q 761 507 761 329 q 733 782 761 692 q 647 902 706 872 q 476 932 588 932 q 311 902 371 932 q 222 781 251 872 q 192 507 192 689 q 218 240 192 328 q 303 121 244 151 q 476 90 363 90 m 467 1096 q 335 1143 385 1096 q 285 1292 285 1190 l 339 1292 q 373 1183 339 1218 q 463 1149 407 1149 q 596 1292 596 1149 l 650 1292 q 600 1142 650 1188 q 467 1096 550 1096 z "},"Ô":{"ha":953,"x_min":82,"x_max":871,"o":"m 476 -8 q 249 30 332 -8 q 124 178 167 68 q 82 507 82 289 q 126 837 82 724 q 253 990 169 950 q 476 1031 336 1031 q 704 991 621 1031 q 829 838 788 951 q 871 507 871 725 q 828 178 871 289 q 703 30 786 68 q 476 -8 621 -8 m 476 90 q 647 121 588 90 q 733 240 706 151 q 761 507 761 329 q 733 782 761 692 q 647 902 706 872 q 476 932 588 932 q 311 902 371 932 q 222 781 251 872 q 192 507 192 689 q 218 240 192 328 q 303 121 244 151 q 476 90 363 90 m 442 1286 l 519 1286 l 672 1099 l 606 1099 l 479 1233 l 340 1099 l 272 1099 l 442 1286 z "},"Ố":{"ha":953,"x_min":82,"x_max":871,"o":"m 476 -8 q 249 30 332 -8 q 124 178 167 68 q 82 507 82 289 q 126 837 82 724 q 253 990 169 950 q 476 1031 336 1031 q 704 991 621 1031 q 829 838 788 951 q 871 507 871 725 q 828 178 871 289 q 703 30 786 68 q 476 -8 621 -8 m 476 90 q 647 121 588 90 q 733 240 706 151 q 761 507 761 329 q 733 782 761 692 q 647 902 706 872 q 476 932 588 932 q 311 902 371 932 q 222 781 251 872 q 192 507 192 689 q 218 240 192 328 q 303 121 244 151 q 476 90 363 90 m 808 1385 l 657 1206 l 593 1206 l 714 1385 l 808 1385 m 519 1235 l 672 1099 l 606 1099 l 478 1183 l 339 1099 l 272 1099 l 440 1235 l 519 1235 z "},"Ộ":{"ha":953,"x_min":82,"x_max":871,"o":"m 476 -8 q 249 30 332 -8 q 124 178 167 68 q 82 507 82 289 q 126 837 82 724 q 253 990 169 950 q 476 1031 336 1031 q 704 991 621 1031 q 829 838 788 951 q 871 507 871 725 q 828 178 871 289 q 703 30 786 68 q 476 -8 621 -8 m 476 90 q 647 121 588 90 q 733 240 706 151 q 761 507 761 329 q 733 782 761 692 q 647 902 706 872 q 476 932 588 932 q 311 902 371 932 q 222 781 251 872 q 192 507 192 689 q 218 240 192 328 q 303 121 244 151 q 476 90 363 90 m 442 1286 l 519 1286 l 672 1099 l 606 1099 l 479 1233 l 340 1099 l 272 1099 l 442 1286 m 450 -292 q 434 -285 440 -292 q 428 -269 428 -279 l 428 -161 q 450 -139 428 -139 l 501 -139 q 517 -145 511 -139 q 522 -161 522 -151 l 522 -269 q 517 -285 522 -279 q 501 -292 511 -292 l 450 -292 z "},"Ồ":{"ha":953,"x_min":82,"x_max":871,"o":"m 476 -8 q 249 30 332 -8 q 124 178 167 68 q 82 507 82 289 q 126 837 82 724 q 253 990 169 950 q 476 1031 336 1031 q 704 991 621 1031 q 829 838 788 951 q 871 507 871 725 q 828 178 871 289 q 703 30 786 68 q 476 -8 621 -8 m 476 90 q 647 121 588 90 q 733 240 706 151 q 761 507 761 329 q 733 782 761 692 q 647 902 706 872 q 476 932 588 932 q 311 902 371 932 q 222 781 251 872 q 192 507 192 689 q 218 240 192 328 q 303 121 244 151 q 476 90 363 90 m 239 1385 l 360 1206 l 296 1206 l 144 1385 l 239 1385 m 519 1235 l 672 1099 l 606 1099 l 478 1183 l 339 1099 l 272 1099 l 440 1235 l 519 1235 z "},"Ổ":{"ha":953,"x_min":82,"x_max":871,"o":"m 476 -8 q 249 30 332 -8 q 124 178 167 68 q 82 507 82 289 q 126 837 82 724 q 253 990 169 950 q 476 1031 336 1031 q 704 991 621 1031 q 829 838 788 951 q 871 507 871 725 q 828 178 871 289 q 703 30 786 68 q 476 -8 621 -8 m 476 90 q 647 121 588 90 q 733 240 706 151 q 761 507 761 329 q 733 782 761 692 q 647 902 706 872 q 476 932 588 932 q 311 902 371 932 q 222 781 251 872 q 192 507 192 689 q 218 240 192 328 q 303 121 244 151 q 476 90 363 90 m 625 1221 q 678 1251 661 1232 q 694 1292 694 1269 q 636 1343 694 1343 q 588 1335 618 1343 l 588 1376 q 650 1386 615 1386 q 725 1362 700 1386 q 750 1296 750 1338 q 719 1222 750 1254 q 625 1171 689 1189 l 625 1221 m 440 1235 l 519 1235 l 672 1099 l 606 1099 l 478 1183 l 339 1099 l 272 1099 l 440 1235 z "},"Ỗ":{"ha":953,"x_min":82,"x_max":871,"o":"m 476 -8 q 249 30 332 -8 q 124 178 167 68 q 82 507 82 289 q 126 837 82 724 q 253 990 169 950 q 476 1031 336 1031 q 704 991 621 1031 q 829 838 788 951 q 871 507 871 725 q 828 178 871 289 q 703 30 786 68 q 476 -8 621 -8 m 476 90 q 647 121 588 90 q 733 240 706 151 q 761 507 761 329 q 733 782 761 692 q 647 902 706 872 q 476 932 588 932 q 311 902 371 932 q 222 781 251 872 q 192 507 192 689 q 218 240 192 328 q 303 121 244 151 q 476 90 363 90 m 365 1415 q 416 1407 392 1415 q 475 1383 440 1399 q 564 1357 531 1357 q 618 1373 597 1357 q 639 1418 639 1389 l 694 1418 q 579 1300 690 1300 q 529 1308 553 1300 q 471 1331 506 1315 q 417 1351 439 1344 q 375 1358 396 1358 q 327 1343 346 1358 q 308 1300 308 1328 l 251 1300 q 286 1389 254 1363 q 365 1415 318 1415 m 672 1099 l 606 1099 l 478 1183 l 339 1099 l 272 1099 l 440 1235 l 519 1235 l 672 1099 z "},"Ȍ":{"ha":953,"x_min":82,"x_max":871,"o":"m 476 -8 q 249 30 332 -8 q 124 178 167 68 q 82 507 82 289 q 126 837 82 724 q 253 990 169 950 q 476 1031 336 1031 q 704 991 621 1031 q 829 838 788 951 q 871 507 871 725 q 828 178 871 289 q 703 30 786 68 q 476 -8 621 -8 m 476 90 q 647 121 588 90 q 733 240 706 151 q 761 507 761 329 q 733 782 761 692 q 647 902 706 872 q 476 932 588 932 q 311 902 371 932 q 222 781 251 872 q 192 507 192 689 q 218 240 192 328 q 303 121 244 151 q 476 90 363 90 m 192 1288 l 286 1288 l 431 1099 l 365 1099 l 192 1288 m 394 1288 l 489 1288 l 633 1099 l 568 1099 l 394 1288 z "},"Ö":{"ha":953,"x_min":82,"x_max":871,"o":"m 476 -8 q 249 30 332 -8 q 124 178 167 68 q 82 507 82 289 q 126 837 82 724 q 253 990 169 950 q 476 1031 336 1031 q 704 991 621 1031 q 829 838 788 951 q 871 507 871 725 q 828 178 871 289 q 703 30 786 68 q 476 -8 621 -8 m 476 90 q 647 121 588 90 q 733 240 706 151 q 761 507 761 329 q 733 782 761 692 q 647 902 706 872 q 476 932 588 932 q 311 902 371 932 q 222 781 251 872 q 192 507 192 689 q 218 240 192 328 q 303 121 244 151 q 476 90 363 90 m 276 1129 q 260 1135 267 1129 q 254 1151 254 1142 l 254 1260 q 276 1282 254 1282 l 328 1282 q 344 1276 338 1282 q 350 1260 350 1269 l 350 1151 q 344 1135 350 1142 q 328 1129 338 1129 l 276 1129 m 604 1129 q 588 1135 594 1129 q 582 1151 582 1142 l 582 1260 q 604 1282 582 1282 l 656 1282 q 671 1276 665 1282 q 676 1260 676 1269 l 676 1151 q 671 1135 676 1142 q 656 1129 665 1129 l 604 1129 z "},"Ȫ":{"ha":953,"x_min":82,"x_max":871,"o":"m 476 -8 q 249 30 332 -8 q 124 178 167 68 q 82 507 82 289 q 126 837 82 724 q 253 990 169 950 q 476 1031 336 1031 q 704 991 621 1031 q 829 838 788 951 q 871 507 871 725 q 828 178 871 289 q 703 30 786 68 q 476 -8 621 -8 m 476 90 q 647 121 588 90 q 733 240 706 151 q 761 507 761 329 q 733 782 761 692 q 647 902 706 872 q 476 932 588 932 q 311 902 371 932 q 222 781 251 872 q 192 507 192 689 q 218 240 192 328 q 303 121 244 151 q 476 90 363 90 m 296 1129 q 280 1135 286 1129 q 274 1151 274 1142 l 274 1260 q 296 1282 274 1282 l 347 1282 q 363 1276 357 1282 q 369 1260 369 1269 l 369 1151 q 363 1135 369 1142 q 347 1129 357 1129 l 296 1129 m 624 1129 q 608 1135 614 1129 q 601 1151 601 1142 l 601 1260 q 624 1282 601 1282 l 675 1282 q 690 1276 685 1282 q 696 1260 696 1269 l 696 1151 q 690 1135 696 1142 q 675 1129 685 1129 l 624 1129 m 303 1451 l 671 1451 l 671 1386 l 303 1386 l 303 1451 z "},"Ȱ":{"ha":953,"x_min":82,"x_max":871,"o":"m 476 -8 q 249 30 332 -8 q 124 178 167 68 q 82 507 82 289 q 126 837 82 724 q 253 990 169 950 q 476 1031 336 1031 q 704 991 621 1031 q 829 838 788 951 q 871 507 871 725 q 828 178 871 289 q 703 30 786 68 q 476 -8 621 -8 m 476 90 q 647 121 588 90 q 733 240 706 151 q 761 507 761 329 q 733 782 761 692 q 647 902 706 872 q 476 932 588 932 q 311 902 371 932 q 222 781 251 872 q 192 507 192 689 q 218 240 192 328 q 303 121 244 151 q 476 90 363 90 m 449 1139 q 433 1145 439 1139 q 426 1161 426 1151 l 426 1269 q 449 1292 426 1292 l 500 1292 q 515 1285 510 1292 q 521 1269 521 1279 l 521 1161 q 515 1145 521 1151 q 500 1139 510 1139 l 449 1139 m 283 1443 l 651 1443 l 651 1378 l 283 1378 l 283 1443 z "},"Ọ":{"ha":953,"x_min":82,"x_max":871,"o":"m 476 -8 q 249 30 332 -8 q 124 178 167 68 q 82 507 82 289 q 126 837 82 724 q 253 990 169 950 q 476 1031 336 1031 q 704 991 621 1031 q 829 838 788 951 q 871 507 871 725 q 828 178 871 289 q 703 30 786 68 q 476 -8 621 -8 m 476 90 q 647 121 588 90 q 733 240 706 151 q 761 507 761 329 q 733 782 761 692 q 647 902 706 872 q 476 932 588 932 q 311 902 371 932 q 222 781 251 872 q 192 507 192 689 q 218 240 192 328 q 303 121 244 151 q 476 90 363 90 m 450 -292 q 434 -285 440 -292 q 428 -269 428 -279 l 428 -161 q 450 -139 428 -139 l 501 -139 q 517 -145 511 -139 q 522 -161 522 -151 l 522 -269 q 517 -285 522 -279 q 501 -292 511 -292 l 450 -292 z "},"Ò":{"ha":953,"x_min":82,"x_max":871,"o":"m 476 -8 q 249 30 332 -8 q 124 178 167 68 q 82 507 82 289 q 126 837 82 724 q 253 990 169 950 q 476 1031 336 1031 q 704 991 621 1031 q 829 838 788 951 q 871 507 871 725 q 828 178 871 289 q 703 30 786 68 q 476 -8 621 -8 m 476 90 q 647 121 588 90 q 733 240 706 151 q 761 507 761 329 q 733 782 761 692 q 647 902 706 872 q 476 932 588 932 q 311 902 371 932 q 222 781 251 872 q 192 507 192 689 q 218 240 192 328 q 303 121 244 151 q 476 90 363 90 m 278 1288 l 371 1288 l 515 1099 l 451 1099 l 278 1288 z "},"Ỏ":{"ha":953,"x_min":82,"x_max":871,"o":"m 476 -8 q 249 30 332 -8 q 124 178 167 68 q 82 507 82 289 q 126 837 82 724 q 253 990 169 950 q 476 1031 336 1031 q 704 991 621 1031 q 829 838 788 951 q 871 507 871 725 q 828 178 871 289 q 703 30 786 68 q 476 -8 621 -8 m 476 90 q 647 121 588 90 q 733 240 706 151 q 761 507 761 329 q 733 782 761 692 q 647 902 706 872 q 476 932 588 932 q 311 902 371 932 q 222 781 251 872 q 192 507 192 689 q 218 240 192 328 q 303 121 244 151 q 476 90 363 90 m 446 1121 q 524 1203 524 1144 q 457 1264 524 1264 q 407 1256 432 1264 l 407 1303 q 471 1311 432 1311 q 556 1283 528 1311 q 583 1204 583 1254 q 549 1124 583 1158 q 446 1069 515 1090 l 446 1121 z "},"Ơ":{"ha":953,"x_min":82,"x_max":889,"o":"m 747 963 q 841 801 811 910 q 871 507 871 693 q 828 178 871 289 q 703 30 786 68 q 476 -8 621 -8 q 249 30 332 -8 q 124 178 167 68 q 82 507 82 289 q 126 837 82 724 q 253 990 169 950 q 476 1031 336 1031 q 601 1022 546 1031 l 700 1022 q 781 1058 753 1022 q 810 1179 810 1094 l 889 1179 q 850 1024 889 1078 q 747 963 811 971 m 476 90 q 647 121 588 90 q 733 240 706 151 q 761 507 761 329 q 733 782 761 692 q 647 902 706 872 q 476 932 588 932 q 311 902 371 932 q 222 781 251 872 q 192 507 192 689 q 218 240 192 328 q 303 121 244 151 q 476 90 363 90 z "},"Ớ":{"ha":953,"x_min":82,"x_max":889,"o":"m 747 963 q 841 801 811 910 q 871 507 871 693 q 828 178 871 289 q 703 30 786 68 q 476 -8 621 -8 q 249 30 332 -8 q 124 178 167 68 q 82 507 82 289 q 126 837 82 724 q 253 990 169 950 q 476 1031 336 1031 q 601 1022 546 1031 l 700 1022 q 781 1058 753 1022 q 810 1179 810 1094 l 889 1179 q 850 1024 889 1078 q 747 963 811 971 m 476 90 q 647 121 588 90 q 733 240 706 151 q 761 507 761 329 q 733 782 761 692 q 647 902 706 872 q 476 932 588 932 q 311 902 371 932 q 222 781 251 872 q 192 507 192 689 q 218 240 192 328 q 303 121 244 151 q 476 90 363 90 m 578 1288 l 671 1288 l 497 1099 l 433 1099 l 578 1288 z "},"Ợ":{"ha":953,"x_min":82,"x_max":889,"o":"m 747 963 q 841 801 811 910 q 871 507 871 693 q 828 178 871 289 q 703 30 786 68 q 476 -8 621 -8 q 249 30 332 -8 q 124 178 167 68 q 82 507 82 289 q 126 837 82 724 q 253 990 169 950 q 476 1031 336 1031 q 601 1022 546 1031 l 700 1022 q 781 1058 753 1022 q 810 1179 810 1094 l 889 1179 q 850 1024 889 1078 q 747 963 811 971 m 476 90 q 647 121 588 90 q 733 240 706 151 q 761 507 761 329 q 733 782 761 692 q 647 902 706 872 q 476 932 588 932 q 311 902 371 932 q 222 781 251 872 q 192 507 192 689 q 218 240 192 328 q 303 121 244 151 q 476 90 363 90 m 450 -292 q 434 -285 440 -292 q 428 -269 428 -279 l 428 -161 q 450 -139 428 -139 l 501 -139 q 517 -145 511 -139 q 522 -161 522 -151 l 522 -269 q 517 -285 522 -279 q 501 -292 511 -292 l 450 -292 z "},"Ờ":{"ha":953,"x_min":82,"x_max":889,"o":"m 747 963 q 841 801 811 910 q 871 507 871 693 q 828 178 871 289 q 703 30 786 68 q 476 -8 621 -8 q 249 30 332 -8 q 124 178 167 68 q 82 507 82 289 q 126 837 82 724 q 253 990 169 950 q 476 1031 336 1031 q 601 1022 546 1031 l 700 1022 q 781 1058 753 1022 q 810 1179 810 1094 l 889 1179 q 850 1024 889 1078 q 747 963 811 971 m 476 90 q 647 121 588 90 q 733 240 706 151 q 761 507 761 329 q 733 782 761 692 q 647 902 706 872 q 476 932 588 932 q 311 902 371 932 q 222 781 251 872 q 192 507 192 689 q 218 240 192 328 q 303 121 244 151 q 476 90 363 90 m 257 1288 l 350 1288 l 494 1099 l 431 1099 l 257 1288 z "},"Ở":{"ha":953,"x_min":82,"x_max":889,"o":"m 747 963 q 841 801 811 910 q 871 507 871 693 q 828 178 871 289 q 703 30 786 68 q 476 -8 621 -8 q 249 30 332 -8 q 124 178 167 68 q 82 507 82 289 q 126 837 82 724 q 253 990 169 950 q 476 1031 336 1031 q 601 1022 546 1031 l 700 1022 q 781 1058 753 1022 q 810 1179 810 1094 l 889 1179 q 850 1024 889 1078 q 747 963 811 971 m 476 90 q 647 121 588 90 q 733 240 706 151 q 761 507 761 329 q 733 782 761 692 q 647 902 706 872 q 476 932 588 932 q 311 902 371 932 q 222 781 251 872 q 192 507 192 689 q 218 240 192 328 q 303 121 244 151 q 476 90 363 90 m 446 1121 q 524 1203 524 1144 q 457 1264 524 1264 q 407 1256 432 1264 l 407 1303 q 471 1311 432 1311 q 556 1283 528 1311 q 583 1204 583 1254 q 549 1124 583 1158 q 446 1069 515 1090 l 446 1121 z "},"Ỡ":{"ha":953,"x_min":82,"x_max":889,"o":"m 747 963 q 841 801 811 910 q 871 507 871 693 q 828 178 871 289 q 703 30 786 68 q 476 -8 621 -8 q 249 30 332 -8 q 124 178 167 68 q 82 507 82 289 q 126 837 82 724 q 253 990 169 950 q 476 1031 336 1031 q 601 1022 546 1031 l 700 1022 q 781 1058 753 1022 q 810 1179 810 1094 l 889 1179 q 850 1024 889 1078 q 747 963 811 971 m 476 90 q 647 121 588 90 q 733 240 706 151 q 761 507 761 329 q 733 782 761 692 q 647 902 706 872 q 476 932 588 932 q 311 902 371 932 q 222 781 251 872 q 192 507 192 689 q 218 240 192 328 q 303 121 244 151 q 476 90 363 90 m 231 1121 q 271 1233 232 1197 q 364 1269 310 1269 q 422 1258 396 1269 q 485 1224 447 1246 q 535 1194 514 1204 q 579 1185 557 1185 q 639 1208 615 1185 q 664 1272 663 1231 l 719 1272 q 683 1161 718 1201 q 586 1121 649 1121 q 531 1132 557 1121 q 468 1167 506 1143 q 414 1197 436 1186 q 369 1207 392 1207 q 312 1185 335 1207 q 288 1121 289 1163 l 231 1121 z "},"Ő":{"ha":953,"x_min":82,"x_max":871,"o":"m 476 -8 q 249 30 332 -8 q 124 178 167 68 q 82 507 82 289 q 126 837 82 724 q 253 990 169 950 q 476 1031 336 1031 q 704 991 621 1031 q 829 838 788 951 q 871 507 871 725 q 828 178 871 289 q 703 30 786 68 q 476 -8 621 -8 m 476 90 q 647 121 588 90 q 733 240 706 151 q 761 507 761 329 q 733 782 761 692 q 647 902 706 872 q 476 932 588 932 q 311 902 371 932 q 222 781 251 872 q 192 507 192 689 q 218 240 192 328 q 303 121 244 151 q 476 90 363 90 m 450 1288 l 540 1288 l 375 1099 l 311 1099 l 450 1288 m 658 1288 l 749 1288 l 583 1099 l 519 1099 l 658 1288 z "},"Ȏ":{"ha":953,"x_min":82,"x_max":871,"o":"m 476 -8 q 249 30 332 -8 q 124 178 167 68 q 82 507 82 289 q 126 837 82 724 q 253 990 169 950 q 476 1031 336 1031 q 704 991 621 1031 q 829 838 788 951 q 871 507 871 725 q 828 178 871 289 q 703 30 786 68 q 476 -8 621 -8 m 476 90 q 647 121 588 90 q 733 240 706 151 q 761 507 761 329 q 733 782 761 692 q 647 902 706 872 q 476 932 588 932 q 311 902 371 932 q 222 781 251 872 q 192 507 192 689 q 218 240 192 328 q 303 121 244 151 q 476 90 363 90 m 472 1293 q 604 1246 554 1293 q 654 1097 654 1199 l 600 1097 q 565 1206 600 1172 q 476 1240 531 1240 q 343 1097 343 1240 l 289 1097 q 339 1247 289 1201 q 472 1293 389 1293 z "},"Ō":{"ha":953,"x_min":82,"x_max":871,"o":"m 476 -8 q 249 30 332 -8 q 124 178 167 68 q 82 507 82 289 q 126 837 82 724 q 253 990 169 950 q 476 1031 336 1031 q 704 991 621 1031 q 829 838 788 951 q 871 507 871 725 q 828 178 871 289 q 703 30 786 68 q 476 -8 621 -8 m 476 90 q 647 121 588 90 q 733 240 706 151 q 761 507 761 329 q 733 782 761 692 q 647 902 706 872 q 476 932 588 932 q 311 902 371 932 q 222 781 251 872 q 192 507 192 689 q 218 240 192 328 q 303 121 244 151 q 476 90 363 90 m 283 1221 l 651 1221 l 651 1156 l 283 1156 l 283 1221 z "},"Ṓ":{"ha":953,"x_min":82,"x_max":871,"o":"m 476 -8 q 249 30 332 -8 q 124 178 167 68 q 82 507 82 289 q 126 837 82 724 q 253 990 169 950 q 476 1031 336 1031 q 704 991 621 1031 q 829 838 788 951 q 871 507 871 725 q 828 178 871 289 q 703 30 786 68 q 476 -8 621 -8 m 476 90 q 647 121 588 90 q 733 240 706 151 q 761 507 761 329 q 733 782 761 692 q 647 902 706 872 q 476 932 588 932 q 311 902 371 932 q 222 781 251 872 q 192 507 192 689 q 218 240 192 328 q 303 121 244 151 q 476 90 363 90 m 283 1221 l 651 1221 l 651 1156 l 283 1156 l 283 1221 m 590 1472 l 683 1472 l 510 1283 l 446 1283 l 590 1472 z "},"Ṑ":{"ha":953,"x_min":82,"x_max":871,"o":"m 476 -8 q 249 30 332 -8 q 124 178 167 68 q 82 507 82 289 q 126 837 82 724 q 253 990 169 950 q 476 1031 336 1031 q 704 991 621 1031 q 829 838 788 951 q 871 507 871 725 q 828 178 871 289 q 703 30 786 68 q 476 -8 621 -8 m 476 90 q 647 121 588 90 q 733 240 706 151 q 761 507 761 329 q 733 782 761 692 q 647 902 706 872 q 476 932 588 932 q 311 902 371 932 q 222 781 251 872 q 192 507 192 689 q 218 240 192 328 q 303 121 244 151 q 476 90 363 90 m 283 1221 l 651 1221 l 651 1156 l 283 1156 l 283 1221 m 264 1472 l 357 1472 l 501 1283 l 438 1283 l 264 1472 z "},"Ǫ":{"ha":953,"x_min":82,"x_max":871,"o":"m 568 -4 q 489 -112 489 -53 q 519 -178 489 -154 q 604 -203 550 -203 l 613 -203 l 613 -256 q 576 -260 599 -260 q 469 -225 508 -260 q 431 -136 431 -190 q 453 -65 431 -99 q 519 -7 475 -32 q 476 -8 506 -8 q 249 30 332 -8 q 124 178 167 68 q 82 507 82 289 q 126 837 82 724 q 253 990 169 950 q 476 1031 336 1031 q 704 991 621 1031 q 829 838 788 951 q 871 507 871 725 q 838 208 871 315 q 740 53 806 100 q 568 -4 675 6 m 192 507 q 218 240 192 328 q 303 121 244 151 q 476 90 363 90 q 647 121 588 90 q 733 240 706 151 q 761 507 761 329 q 733 782 761 692 q 647 902 706 872 q 476 932 588 932 q 311 902 371 932 q 222 781 251 872 q 192 507 192 689 z "},"Ø":{"ha":953,"x_min":82,"x_max":871,"o":"m 786 919 q 850 761 829 861 q 871 507 871 661 q 828 178 871 289 q 703 30 786 68 q 476 -8 621 -8 q 323 5 386 -8 q 214 51 260 18 l 181 0 l 100 0 l 165 100 q 103 256 124 157 q 82 507 82 354 q 126 837 82 724 q 253 990 169 950 q 476 1031 336 1031 q 629 1017 565 1031 q 739 969 693 1003 l 774 1022 l 854 1022 l 786 919 m 192 507 q 232 201 192 292 l 679 878 q 599 921 647 910 q 476 932 550 932 q 311 902 371 932 q 222 781 251 872 q 192 507 192 689 m 476 90 q 647 121 588 90 q 733 240 706 151 q 761 507 761 329 q 751 696 761 621 q 719 818 742 771 l 274 142 q 355 101 307 113 q 476 90 403 90 z "},"Ǿ":{"ha":953,"x_min":82,"x_max":871,"o":"m 786 919 q 850 761 829 861 q 871 507 871 661 q 828 178 871 289 q 703 30 786 68 q 476 -8 621 -8 q 323 5 386 -8 q 214 51 260 18 l 181 0 l 100 0 l 165 100 q 103 256 124 157 q 82 507 82 354 q 126 837 82 724 q 253 990 169 950 q 476 1031 336 1031 q 629 1017 565 1031 q 739 969 693 1003 l 774 1022 l 854 1022 l 786 919 m 192 507 q 232 201 192 292 l 679 878 q 599 921 647 910 q 476 932 550 932 q 311 902 371 932 q 222 781 251 872 q 192 507 192 689 m 476 90 q 647 121 588 90 q 733 240 706 151 q 761 507 761 329 q 751 696 761 621 q 719 818 742 771 l 274 142 q 355 101 307 113 q 476 90 403 90 m 594 1288 l 688 1288 l 514 1099 l 450 1099 l 594 1288 z "},"Õ":{"ha":953,"x_min":82,"x_max":871,"o":"m 476 -8 q 249 30 332 -8 q 124 178 167 68 q 82 507 82 289 q 126 837 82 724 q 253 990 169 950 q 476 1031 336 1031 q 704 991 621 1031 q 829 838 788 951 q 871 507 871 725 q 828 178 871 289 q 703 30 786 68 q 476 -8 621 -8 m 476 90 q 647 121 588 90 q 733 240 706 151 q 761 507 761 329 q 733 782 761 692 q 647 902 706 872 q 476 932 588 932 q 311 902 371 932 q 222 781 251 872 q 192 507 192 689 q 218 240 192 328 q 303 121 244 151 q 476 90 363 90 m 238 1121 q 278 1233 239 1197 q 371 1269 317 1269 q 428 1258 403 1269 q 492 1224 454 1246 q 542 1194 521 1204 q 586 1185 564 1185 q 646 1208 622 1185 q 671 1272 669 1231 l 726 1272 q 690 1161 725 1201 q 593 1121 656 1121 q 538 1132 564 1121 q 475 1167 513 1143 q 421 1197 443 1186 q 376 1207 399 1207 q 319 1185 342 1207 q 294 1121 296 1163 l 238 1121 z "},"Ṍ":{"ha":953,"x_min":82,"x_max":871,"o":"m 476 -8 q 249 30 332 -8 q 124 178 167 68 q 82 507 82 289 q 126 837 82 724 q 253 990 169 950 q 476 1031 336 1031 q 704 991 621 1031 q 829 838 788 951 q 871 507 871 725 q 828 178 871 289 q 703 30 786 68 q 476 -8 621 -8 m 476 90 q 647 121 588 90 q 733 240 706 151 q 761 507 761 329 q 733 782 761 692 q 647 902 706 872 q 476 932 588 932 q 311 902 371 932 q 222 781 251 872 q 192 507 192 689 q 218 240 192 328 q 303 121 244 151 q 476 90 363 90 m 238 1121 q 278 1233 239 1197 q 371 1269 317 1269 q 428 1258 403 1269 q 492 1224 454 1246 q 542 1194 521 1204 q 586 1185 564 1185 q 646 1208 622 1185 q 671 1272 669 1231 l 726 1272 q 690 1161 725 1201 q 593 1121 656 1121 q 538 1132 564 1121 q 475 1167 513 1143 q 421 1197 443 1186 q 376 1207 399 1207 q 319 1185 342 1207 q 294 1121 296 1163 l 238 1121 m 581 1506 l 674 1506 l 500 1317 l 436 1317 l 581 1506 z "},"Ṏ":{"ha":953,"x_min":82,"x_max":871,"o":"m 476 -8 q 249 30 332 -8 q 124 178 167 68 q 82 507 82 289 q 126 837 82 724 q 253 990 169 950 q 476 1031 336 1031 q 704 991 621 1031 q 829 838 788 951 q 871 507 871 725 q 828 178 871 289 q 703 30 786 68 q 476 -8 621 -8 m 476 90 q 647 121 588 90 q 733 240 706 151 q 761 507 761 329 q 733 782 761 692 q 647 902 706 872 q 476 932 588 932 q 311 902 371 932 q 222 781 251 872 q 192 507 192 689 q 218 240 192 328 q 303 121 244 151 q 476 90 363 90 m 238 1121 q 278 1233 239 1197 q 371 1269 317 1269 q 428 1258 403 1269 q 492 1224 454 1246 q 542 1194 521 1204 q 586 1185 564 1185 q 646 1208 622 1185 q 671 1272 669 1231 l 726 1272 q 690 1161 725 1201 q 593 1121 656 1121 q 538 1132 564 1121 q 475 1167 513 1143 q 421 1197 443 1186 q 376 1207 399 1207 q 319 1185 342 1207 q 294 1121 296 1163 l 238 1121 m 286 1347 q 270 1353 276 1347 q 264 1369 264 1360 l 264 1478 q 286 1500 264 1500 l 338 1500 q 353 1494 347 1500 q 360 1478 360 1488 l 360 1369 q 353 1353 360 1360 q 338 1347 347 1347 l 286 1347 m 614 1347 q 598 1353 604 1347 q 592 1369 592 1360 l 592 1478 q 614 1500 592 1500 l 665 1500 q 681 1494 675 1500 q 686 1478 686 1488 l 686 1369 q 681 1353 686 1360 q 665 1347 675 1347 l 614 1347 z "},"Ȭ":{"ha":953,"x_min":82,"x_max":871,"o":"m 476 -8 q 249 30 332 -8 q 124 178 167 68 q 82 507 82 289 q 126 837 82 724 q 253 990 169 950 q 476 1031 336 1031 q 704 991 621 1031 q 829 838 788 951 q 871 507 871 725 q 828 178 871 289 q 703 30 786 68 q 476 -8 621 -8 m 476 90 q 647 121 588 90 q 733 240 706 151 q 761 507 761 329 q 733 782 761 692 q 647 902 706 872 q 476 932 588 932 q 311 902 371 932 q 222 781 251 872 q 192 507 192 689 q 218 240 192 328 q 303 121 244 151 q 476 90 363 90 m 307 1439 l 675 1439 l 675 1374 l 307 1374 l 307 1439 m 238 1121 q 278 1233 239 1197 q 371 1269 317 1269 q 428 1258 403 1269 q 492 1224 454 1246 q 542 1194 521 1204 q 586 1185 564 1185 q 646 1208 622 1185 q 671 1272 669 1231 l 726 1272 q 690 1161 725 1201 q 593 1121 656 1121 q 538 1132 564 1121 q 475 1167 513 1143 q 421 1197 443 1186 q 376 1207 399 1207 q 319 1185 342 1207 q 294 1121 296 1163 l 238 1121 z "},"Œ":{"ha":1469,"x_min":82,"x_max":1390,"o":"m 990 921 q 872 799 872 921 l 872 557 l 1329 550 l 1329 465 l 872 458 l 872 218 q 906 122 872 147 q 996 97 939 97 l 1390 97 l 1390 8 q 967 -6 1124 -6 q 781 90 822 -6 q 661 13 733 33 q 476 -8 589 -8 q 249 30 332 -8 q 124 178 167 68 q 82 507 82 289 q 126 837 82 724 q 253 990 169 950 q 476 1031 336 1031 q 664 1008 590 1031 q 783 924 738 985 q 856 999 808 975 q 963 1022 904 1022 q 1308 1013 1185 1018 l 1390 1010 l 1390 921 l 990 921 m 476 90 q 647 121 588 90 q 733 240 706 151 q 761 507 761 329 q 733 782 761 692 q 647 902 706 872 q 476 932 588 932 q 311 902 371 932 q 222 781 251 872 q 192 507 192 689 q 218 240 192 328 q 303 121 244 151 q 476 90 363 90 z "},"P":{"ha":839,"x_min":107,"x_max":781,"o":"m 107 1022 l 514 1022 q 781 696 781 1022 q 701 432 781 504 q 508 360 621 360 q 374 365 468 360 q 218 374 279 369 l 218 0 l 107 0 l 107 1022 m 494 458 q 669 694 669 458 q 504 922 669 922 l 218 922 l 218 458 l 494 458 z "},"Ṗ":{"ha":839,"x_min":107,"x_max":781,"o":"m 107 1022 l 514 1022 q 781 696 781 1022 q 701 432 781 504 q 508 360 621 360 q 374 365 468 360 q 218 374 279 369 l 218 0 l 107 0 l 107 1022 m 494 458 q 669 694 669 458 q 504 922 669 922 l 218 922 l 218 458 l 494 458 m 375 1139 q 359 1145 365 1139 q 353 1161 353 1151 l 353 1269 q 375 1292 353 1292 l 426 1292 q 442 1285 436 1292 q 447 1269 447 1279 l 447 1161 q 442 1145 447 1151 q 426 1139 436 1139 l 375 1139 z "},"Þ":{"ha":778,"x_min":107,"x_max":719,"o":"m 107 1022 l 218 1022 l 218 835 l 453 835 q 644 771 568 835 q 719 531 719 707 q 640 285 719 353 q 449 218 560 218 q 341 224 417 218 q 218 233 265 229 l 218 0 l 107 0 l 107 1022 m 435 318 q 608 531 608 318 q 444 735 608 735 l 218 735 l 218 318 l 435 318 z "},"Q":{"ha":953,"x_min":82,"x_max":871,"o":"m 476 -8 q 249 30 332 -8 q 124 178 167 68 q 82 507 82 289 q 126 837 82 724 q 253 990 169 950 q 476 1031 336 1031 q 704 991 621 1031 q 829 838 788 951 q 871 507 871 725 q 828 178 871 289 q 703 30 786 68 q 476 -8 621 -8 m 476 90 q 647 121 588 90 q 733 240 706 151 q 761 507 761 329 q 733 782 761 692 q 647 902 706 872 q 476 932 588 932 q 311 902 371 932 q 222 781 251 872 q 192 507 192 689 q 218 240 192 328 q 303 121 244 151 q 476 90 363 90 m 703 -236 q 556 -187 619 -236 q 481 -49 492 -137 l 556 -49 q 612 -126 571 -100 q 701 -151 653 -151 q 774 -139 736 -151 l 774 -225 q 703 -236 736 -236 z "},"R":{"ha":844,"x_min":107,"x_max":790,"o":"m 107 1022 l 510 1022 q 702 958 629 1022 q 775 721 775 894 q 719 511 775 572 q 581 433 664 450 l 790 0 l 678 0 l 479 418 l 403 419 l 218 424 l 218 0 l 107 0 l 107 1022 m 493 508 q 620 553 575 508 q 665 721 665 597 q 619 880 665 838 q 493 922 574 922 l 218 922 l 218 508 l 493 508 z "},"Ŕ":{"ha":844,"x_min":107,"x_max":790,"o":"m 107 1022 l 510 1022 q 702 958 629 1022 q 775 721 775 894 q 719 511 775 572 q 581 433 664 450 l 790 0 l 678 0 l 479 418 l 403 419 l 218 424 l 218 0 l 107 0 l 107 1022 m 493 508 q 620 553 575 508 q 665 721 665 597 q 619 880 665 838 q 493 922 574 922 l 218 922 l 218 508 l 493 508 m 525 1288 l 618 1288 l 444 1099 l 381 1099 l 525 1288 z "},"Ř":{"ha":844,"x_min":107,"x_max":790,"o":"m 107 1022 l 510 1022 q 702 958 629 1022 q 775 721 775 894 q 719 511 775 572 q 581 433 664 450 l 790 0 l 678 0 l 479 418 l 403 419 l 218 424 l 218 0 l 107 0 l 107 1022 m 493 508 q 620 553 575 508 q 665 721 665 597 q 619 880 665 838 q 493 922 574 922 l 218 922 l 218 508 l 493 508 m 213 1286 l 279 1286 l 407 1151 l 546 1286 l 613 1286 l 444 1099 l 367 1099 l 213 1286 z "},"Ŗ":{"ha":844,"x_min":107,"x_max":790,"o":"m 107 1022 l 510 1022 q 702 958 629 1022 q 775 721 775 894 q 719 511 775 572 q 581 433 664 450 l 790 0 l 678 0 l 479 418 l 403 419 l 218 424 l 218 0 l 107 0 l 107 1022 m 493 508 q 620 553 575 508 q 665 721 665 597 q 619 880 665 838 q 493 922 574 922 l 218 922 l 218 508 l 493 508 m 296 -236 l 338 -229 q 393 -213 374 -224 q 422 -174 413 -203 q 432 -87 432 -144 l 500 -87 q 488 -201 500 -160 q 442 -261 475 -242 q 349 -281 410 -281 l 296 -281 l 296 -236 z "},"Ȑ":{"ha":844,"x_min":107,"x_max":790,"o":"m 107 1022 l 510 1022 q 702 958 629 1022 q 775 721 775 894 q 719 511 775 572 q 581 433 664 450 l 790 0 l 678 0 l 479 418 l 403 419 l 218 424 l 218 0 l 107 0 l 107 1022 m 493 508 q 620 553 575 508 q 665 721 665 597 q 619 880 665 838 q 493 922 574 922 l 218 922 l 218 508 l 493 508 m 122 1288 l 217 1288 l 361 1099 l 296 1099 l 122 1288 m 325 1288 l 419 1288 l 564 1099 l 499 1099 l 325 1288 z "},"Ṛ":{"ha":844,"x_min":107,"x_max":790,"o":"m 107 1022 l 510 1022 q 702 958 629 1022 q 775 721 775 894 q 719 511 775 572 q 581 433 664 450 l 790 0 l 678 0 l 479 418 l 403 419 l 218 424 l 218 0 l 107 0 l 107 1022 m 493 508 q 620 553 575 508 q 665 721 665 597 q 619 880 665 838 q 493 922 574 922 l 218 922 l 218 508 l 493 508 m 383 -292 q 367 -285 374 -292 q 361 -269 361 -279 l 361 -161 q 383 -139 361 -139 l 435 -139 q 450 -145 444 -139 q 456 -161 456 -151 l 456 -269 q 450 -285 456 -279 q 435 -292 444 -292 l 383 -292 z "},"Ȓ":{"ha":844,"x_min":107,"x_max":790,"o":"m 107 1022 l 510 1022 q 702 958 629 1022 q 775 721 775 894 q 719 511 775 572 q 581 433 664 450 l 790 0 l 678 0 l 479 418 l 403 419 l 218 424 l 218 0 l 107 0 l 107 1022 m 493 508 q 620 553 575 508 q 665 721 665 597 q 619 880 665 838 q 493 922 574 922 l 218 922 l 218 508 l 493 508 m 403 1293 q 535 1246 485 1293 q 585 1097 585 1199 l 531 1097 q 496 1206 531 1172 q 407 1240 461 1240 q 274 1097 274 1240 l 219 1097 q 269 1247 219 1201 q 403 1293 319 1293 z "},"Ṟ":{"ha":844,"x_min":107,"x_max":790,"o":"m 107 1022 l 510 1022 q 702 958 629 1022 q 775 721 775 894 q 719 511 775 572 q 581 433 664 450 l 790 0 l 678 0 l 479 418 l 403 419 l 218 424 l 218 0 l 107 0 l 107 1022 m 493 508 q 620 553 575 508 q 665 721 665 597 q 619 880 665 838 q 493 922 574 922 l 218 922 l 218 508 l 493 508 m 221 -196 l 589 -196 l 589 -261 l 221 -261 l 221 -196 z "},"S":{"ha":803,"x_min":83,"x_max":721,"o":"m 397 -8 q 235 -1 332 -8 q 88 17 139 7 l 88 101 q 393 90 196 90 q 557 124 499 90 q 615 244 615 157 l 615 314 q 463 458 615 458 l 353 458 q 152 516 221 458 q 83 706 83 574 l 83 764 q 158 967 83 904 q 381 1031 233 1031 q 531 1022 443 1031 q 675 1001 619 1013 l 675 918 q 392 931 488 931 q 239 894 289 931 q 189 760 189 857 l 189 713 q 231 598 189 632 q 357 564 274 564 l 475 564 q 658 499 596 564 q 721 326 721 435 l 721 247 q 634 48 721 104 q 397 -8 547 -8 z "},"Ś":{"ha":803,"x_min":83,"x_max":721,"o":"m 397 -8 q 235 -1 332 -8 q 88 17 139 7 l 88 101 q 393 90 196 90 q 557 124 499 90 q 615 244 615 157 l 615 314 q 463 458 615 458 l 353 458 q 152 516 221 458 q 83 706 83 574 l 83 764 q 158 967 83 904 q 381 1031 233 1031 q 531 1022 443 1031 q 675 1001 619 1013 l 675 918 q 392 931 488 931 q 239 894 289 931 q 189 760 189 857 l 189 713 q 231 598 189 632 q 357 564 274 564 l 475 564 q 658 499 596 564 q 721 326 721 435 l 721 247 q 634 48 721 104 q 397 -8 547 -8 m 511 1288 l 604 1288 l 431 1099 l 367 1099 l 511 1288 z "},"Ṥ":{"ha":803,"x_min":83,"x_max":721,"o":"m 397 -8 q 235 -1 332 -8 q 88 17 139 7 l 88 101 q 393 90 196 90 q 557 124 499 90 q 615 244 615 157 l 615 314 q 463 458 615 458 l 353 458 q 152 516 221 458 q 83 706 83 574 l 83 764 q 158 967 83 904 q 381 1031 233 1031 q 531 1022 443 1031 q 675 1001 619 1013 l 675 918 q 392 931 488 931 q 239 894 289 931 q 189 760 189 857 l 189 713 q 231 598 189 632 q 357 564 274 564 l 475 564 q 658 499 596 564 q 721 326 721 435 l 721 247 q 634 48 721 104 q 397 -8 547 -8 m 465 1288 l 558 1288 l 385 1099 l 321 1099 l 465 1288 m 417 1328 q 401 1334 407 1328 q 394 1350 394 1340 l 394 1458 q 417 1481 394 1481 l 468 1481 q 483 1474 478 1481 q 489 1458 489 1468 l 489 1350 q 483 1334 489 1340 q 468 1328 478 1328 l 417 1328 z "},"Š":{"ha":803,"x_min":83,"x_max":721,"o":"m 397 -8 q 235 -1 332 -8 q 88 17 139 7 l 88 101 q 393 90 196 90 q 557 124 499 90 q 615 244 615 157 l 615 314 q 463 458 615 458 l 353 458 q 152 516 221 458 q 83 706 83 574 l 83 764 q 158 967 83 904 q 381 1031 233 1031 q 531 1022 443 1031 q 675 1001 619 1013 l 675 918 q 392 931 488 931 q 239 894 289 931 q 189 760 189 857 l 189 713 q 231 598 189 632 q 357 564 274 564 l 475 564 q 658 499 596 564 q 721 326 721 435 l 721 247 q 634 48 721 104 q 397 -8 547 -8 m 199 1286 l 265 1286 l 393 1151 l 532 1286 l 599 1286 l 431 1099 l 353 1099 l 199 1286 z "},"Ṧ":{"ha":803,"x_min":83,"x_max":721,"o":"m 397 -8 q 235 -1 332 -8 q 88 17 139 7 l 88 101 q 393 90 196 90 q 557 124 499 90 q 615 244 615 157 l 615 314 q 463 458 615 458 l 353 458 q 152 516 221 458 q 83 706 83 574 l 83 764 q 158 967 83 904 q 381 1031 233 1031 q 531 1022 443 1031 q 675 1001 619 1013 l 675 918 q 392 931 488 931 q 239 894 289 931 q 189 760 189 857 l 189 713 q 231 598 189 632 q 357 564 274 564 l 475 564 q 658 499 596 564 q 721 326 721 435 l 721 247 q 634 48 721 104 q 397 -8 547 -8 m 199 1286 l 265 1286 l 393 1151 l 532 1286 l 599 1286 l 431 1099 l 353 1099 l 199 1286 m 365 1333 q 349 1340 356 1333 q 343 1356 343 1346 l 343 1464 q 365 1486 343 1486 l 417 1486 q 432 1480 426 1486 q 438 1464 438 1474 l 438 1356 q 432 1340 438 1346 q 417 1333 426 1333 l 365 1333 z "},"Ş":{"ha":803,"x_min":83,"x_max":721,"o":"m 475 564 q 658 499 596 564 q 721 326 721 435 l 721 247 q 640 53 721 110 q 419 -8 560 -4 l 375 -75 q 475 -164 475 -81 q 440 -237 475 -211 q 342 -264 406 -264 l 296 -264 l 296 -218 l 326 -215 q 385 -197 365 -211 q 404 -153 404 -182 q 384 -110 404 -126 q 313 -92 364 -93 l 368 -8 q 215 1 297 -6 q 88 17 132 8 l 88 101 q 393 90 196 90 q 557 124 499 90 q 615 244 615 157 l 615 314 q 463 458 615 458 l 353 458 q 152 516 221 458 q 83 706 83 574 l 83 764 q 158 967 83 904 q 381 1031 233 1031 q 531 1022 443 1031 q 675 1001 619 1013 l 675 918 q 392 931 488 931 q 239 894 289 931 q 189 760 189 857 l 189 713 q 231 598 189 632 q 357 564 274 564 l 475 564 z "},"Ŝ":{"ha":803,"x_min":83,"x_max":721,"o":"m 397 -8 q 235 -1 332 -8 q 88 17 139 7 l 88 101 q 393 90 196 90 q 557 124 499 90 q 615 244 615 157 l 615 314 q 463 458 615 458 l 353 458 q 152 516 221 458 q 83 706 83 574 l 83 764 q 158 967 83 904 q 381 1031 233 1031 q 531 1022 443 1031 q 675 1001 619 1013 l 675 918 q 392 931 488 931 q 239 894 289 931 q 189 760 189 857 l 189 713 q 231 598 189 632 q 357 564 274 564 l 475 564 q 658 499 596 564 q 721 326 721 435 l 721 247 q 634 48 721 104 q 397 -8 547 -8 m 358 1286 l 436 1286 l 589 1099 l 522 1099 l 396 1233 l 257 1099 l 189 1099 l 358 1286 z "},"Ș":{"ha":803,"x_min":83,"x_max":721,"o":"m 397 -8 q 235 -1 332 -8 q 88 17 139 7 l 88 101 q 393 90 196 90 q 557 124 499 90 q 615 244 615 157 l 615 314 q 463 458 615 458 l 353 458 q 152 516 221 458 q 83 706 83 574 l 83 764 q 158 967 83 904 q 381 1031 233 1031 q 531 1022 443 1031 q 675 1001 619 1013 l 675 918 q 392 931 488 931 q 239 894 289 931 q 189 760 189 857 l 189 713 q 231 598 189 632 q 357 564 274 564 l 475 564 q 658 499 596 564 q 721 326 721 435 l 721 247 q 634 48 721 104 q 397 -8 547 -8 m 279 -236 l 321 -229 q 376 -213 357 -224 q 406 -174 396 -203 q 415 -87 415 -144 l 483 -87 q 471 -201 483 -160 q 426 -261 458 -242 q 332 -281 393 -281 l 279 -281 l 279 -236 z "},"Ṡ":{"ha":803,"x_min":83,"x_max":721,"o":"m 397 -8 q 235 -1 332 -8 q 88 17 139 7 l 88 101 q 393 90 196 90 q 557 124 499 90 q 615 244 615 157 l 615 314 q 463 458 615 458 l 353 458 q 152 516 221 458 q 83 706 83 574 l 83 764 q 158 967 83 904 q 381 1031 233 1031 q 531 1022 443 1031 q 675 1001 619 1013 l 675 918 q 392 931 488 931 q 239 894 289 931 q 189 760 189 857 l 189 713 q 231 598 189 632 q 357 564 274 564 l 475 564 q 658 499 596 564 q 721 326 721 435 l 721 247 q 634 48 721 104 q 397 -8 547 -8 m 365 1139 q 349 1145 356 1139 q 343 1161 343 1151 l 343 1269 q 365 1292 343 1292 l 417 1292 q 432 1285 426 1292 q 438 1269 438 1279 l 438 1161 q 432 1145 438 1151 q 417 1139 426 1139 l 365 1139 z "},"Ṣ":{"ha":803,"x_min":83,"x_max":721,"o":"m 397 -8 q 235 -1 332 -8 q 88 17 139 7 l 88 101 q 393 90 196 90 q 557 124 499 90 q 615 244 615 157 l 615 314 q 463 458 615 458 l 353 458 q 152 516 221 458 q 83 706 83 574 l 83 764 q 158 967 83 904 q 381 1031 233 1031 q 531 1022 443 1031 q 675 1001 619 1013 l 675 918 q 392 931 488 931 q 239 894 289 931 q 189 760 189 857 l 189 713 q 231 598 189 632 q 357 564 274 564 l 475 564 q 658 499 596 564 q 721 326 721 435 l 721 247 q 634 48 721 104 q 397 -8 547 -8 m 367 -292 q 351 -285 357 -292 q 344 -269 344 -279 l 344 -161 q 367 -139 344 -139 l 418 -139 q 433 -145 428 -139 q 439 -161 439 -151 l 439 -269 q 433 -285 439 -279 q 418 -292 428 -292 l 367 -292 z "},"Ṩ":{"ha":803,"x_min":83,"x_max":721,"o":"m 397 -8 q 235 -1 332 -8 q 88 17 139 7 l 88 101 q 393 90 196 90 q 557 124 499 90 q 615 244 615 157 l 615 314 q 463 458 615 458 l 353 458 q 152 516 221 458 q 83 706 83 574 l 83 764 q 158 967 83 904 q 381 1031 233 1031 q 531 1022 443 1031 q 675 1001 619 1013 l 675 918 q 392 931 488 931 q 239 894 289 931 q 189 760 189 857 l 189 713 q 231 598 189 632 q 357 564 274 564 l 475 564 q 658 499 596 564 q 721 326 721 435 l 721 247 q 634 48 721 104 q 397 -8 547 -8 m 367 -292 q 351 -285 357 -292 q 344 -269 344 -279 l 344 -161 q 367 -139 344 -139 l 418 -139 q 433 -145 428 -139 q 439 -161 439 -151 l 439 -269 q 433 -285 439 -279 q 418 -292 428 -292 l 367 -292 m 365 1139 q 349 1145 356 1139 q 343 1161 343 1151 l 343 1269 q 365 1292 343 1292 l 417 1292 q 432 1285 426 1292 q 438 1269 438 1279 l 438 1161 q 432 1145 438 1151 q 417 1139 426 1139 l 365 1139 z "},"ẞ":{"ha":932,"x_min":107,"x_max":850,"o":"m 603 549 q 787 489 724 549 q 850 318 850 429 l 850 239 q 767 47 850 101 q 539 -8 683 -8 q 435 -2 499 -8 q 336 11 372 4 l 336 96 q 525 92 403 92 q 683 124 626 92 q 739 244 739 157 l 739 313 q 701 422 739 386 q 578 457 663 457 l 411 457 l 411 549 l 497 549 l 622 857 l 683 922 l 357 922 q 254 887 290 922 q 218 782 218 851 l 218 0 l 107 0 l 107 781 q 177 964 107 906 q 354 1022 247 1022 q 585 1018 463 1021 q 769 1014 708 1015 q 799 1013 779 1013 l 788 990 l 799 996 l 588 618 l 513 549 l 603 549 z "},"Ə":{"ha":849,"x_min":85,"x_max":767,"o":"m 418 -8 q 230 38 303 -8 q 121 188 157 85 q 85 463 85 292 l 85 542 l 656 542 q 626 785 654 703 q 532 900 597 868 q 343 932 467 932 q 191 924 249 932 q 124 914 133 915 l 124 997 q 376 1031 243 1031 q 601 990 518 1031 q 725 840 683 950 q 767 521 767 731 q 725 199 767 315 q 607 37 683 82 q 418 -8 531 -8 m 417 90 q 545 121 494 90 q 624 231 596 151 q 653 451 651 310 l 194 451 q 217 238 196 315 q 285 126 238 161 q 417 90 332 90 z "},"T":{"ha":786,"x_min":22,"x_max":764,"o":"m 339 922 l 22 922 l 22 1022 l 764 1022 l 764 922 l 449 922 l 449 0 l 339 0 l 339 922 z "},"Ŧ":{"ha":786,"x_min":22,"x_max":764,"o":"m 449 922 l 449 571 l 696 571 l 696 507 l 449 507 l 449 0 l 339 0 l 339 507 l 90 507 l 90 571 l 339 571 l 339 922 l 22 922 l 22 1022 l 764 1022 l 764 922 l 449 922 z "},"Ť":{"ha":786,"x_min":22,"x_max":764,"o":"m 339 922 l 22 922 l 22 1022 l 764 1022 l 764 922 l 449 922 l 449 0 l 339 0 l 339 922 m 199 1286 l 265 1286 l 393 1151 l 532 1286 l 599 1286 l 431 1099 l 353 1099 l 199 1286 z "},"Ţ":{"ha":786,"x_min":22,"x_max":764,"o":"m 424 0 l 375 -75 q 475 -164 475 -81 q 440 -237 475 -211 q 342 -264 406 -264 l 296 -264 l 296 -218 l 326 -215 q 385 -197 365 -211 q 404 -153 404 -182 q 384 -110 404 -126 q 313 -92 364 -93 l 372 0 l 339 0 l 339 922 l 22 922 l 22 1022 l 764 1022 l 764 922 l 449 922 l 449 0 l 424 0 z "},"Ț":{"ha":786,"x_min":22,"x_max":764,"o":"m 339 922 l 22 922 l 22 1022 l 764 1022 l 764 922 l 449 922 l 449 0 l 339 0 l 339 922 m 231 -236 l 272 -229 q 328 -213 308 -224 q 357 -174 347 -203 q 367 -87 367 -144 l 435 -87 q 422 -201 435 -160 q 377 -261 410 -242 q 283 -281 344 -281 l 231 -281 l 231 -236 z "},"Ṫ":{"ha":786,"x_min":22,"x_max":764,"o":"m 339 922 l 22 922 l 22 1022 l 764 1022 l 764 922 l 449 922 l 449 0 l 339 0 l 339 922 m 365 1139 q 349 1145 356 1139 q 343 1161 343 1151 l 343 1269 q 365 1292 343 1292 l 417 1292 q 432 1285 426 1292 q 438 1269 438 1279 l 438 1161 q 432 1145 438 1151 q 417 1139 426 1139 l 365 1139 z "},"Ṭ":{"ha":786,"x_min":22,"x_max":764,"o":"m 339 922 l 22 922 l 22 1022 l 764 1022 l 764 922 l 449 922 l 449 0 l 339 0 l 339 922 m 367 -292 q 351 -285 357 -292 q 344 -269 344 -279 l 344 -161 q 367 -139 344 -139 l 418 -139 q 433 -145 428 -139 q 439 -161 439 -151 l 439 -269 q 433 -285 439 -279 q 418 -292 428 -292 l 367 -292 z "},"Ṯ":{"ha":786,"x_min":22,"x_max":764,"o":"m 339 922 l 22 922 l 22 1022 l 764 1022 l 764 922 l 449 922 l 449 0 l 339 0 l 339 922 m 204 -196 l 572 -196 l 572 -261 l 204 -261 l 204 -196 z "},"U":{"ha":939,"x_min":93,"x_max":846,"o":"m 469 -8 q 189 64 285 -8 q 93 317 93 136 l 93 1022 l 204 1022 l 204 317 q 270 142 204 192 q 469 92 336 92 q 669 142 603 92 q 735 317 735 192 l 735 1022 l 846 1022 l 846 317 q 750 64 846 136 q 469 -8 654 -8 z "},"Ú":{"ha":939,"x_min":93,"x_max":846,"o":"m 469 -8 q 189 64 285 -8 q 93 317 93 136 l 93 1022 l 204 1022 l 204 317 q 270 142 204 192 q 469 92 336 92 q 669 142 603 92 q 735 317 735 192 l 735 1022 l 846 1022 l 846 317 q 750 64 846 136 q 469 -8 654 -8 m 582 1288 l 675 1288 l 501 1099 l 438 1099 l 582 1288 z "},"Ŭ":{"ha":939,"x_min":93,"x_max":846,"o":"m 469 -8 q 189 64 285 -8 q 93 317 93 136 l 93 1022 l 204 1022 l 204 317 q 270 142 204 192 q 469 92 336 92 q 669 142 603 92 q 735 317 735 192 l 735 1022 l 846 1022 l 846 317 q 750 64 846 136 q 469 -8 654 -8 m 454 1096 q 322 1143 372 1096 q 272 1292 272 1190 l 326 1292 q 360 1183 326 1218 q 450 1149 394 1149 q 583 1292 583 1149 l 638 1292 q 588 1142 638 1188 q 454 1096 538 1096 z "},"Û":{"ha":939,"x_min":93,"x_max":846,"o":"m 469 -8 q 189 64 285 -8 q 93 317 93 136 l 93 1022 l 204 1022 l 204 317 q 270 142 204 192 q 469 92 336 92 q 669 142 603 92 q 735 317 735 192 l 735 1022 l 846 1022 l 846 317 q 750 64 846 136 q 469 -8 654 -8 m 429 1286 l 507 1286 l 660 1099 l 593 1099 l 467 1233 l 328 1099 l 260 1099 l 429 1286 z "},"Ȕ":{"ha":939,"x_min":93,"x_max":846,"o":"m 469 -8 q 189 64 285 -8 q 93 317 93 136 l 93 1022 l 204 1022 l 204 317 q 270 142 204 192 q 469 92 336 92 q 669 142 603 92 q 735 317 735 192 l 735 1022 l 846 1022 l 846 317 q 750 64 846 136 q 469 -8 654 -8 m 179 1288 l 274 1288 l 418 1099 l 353 1099 l 179 1288 m 382 1288 l 476 1288 l 621 1099 l 556 1099 l 382 1288 z "},"Ü":{"ha":939,"x_min":93,"x_max":846,"o":"m 469 -8 q 189 64 285 -8 q 93 317 93 136 l 93 1022 l 204 1022 l 204 317 q 270 142 204 192 q 469 92 336 92 q 669 142 603 92 q 735 317 735 192 l 735 1022 l 846 1022 l 846 317 q 750 64 846 136 q 469 -8 654 -8 m 264 1129 q 248 1135 254 1129 q 242 1151 242 1142 l 242 1260 q 264 1282 242 1282 l 315 1282 q 331 1276 325 1282 q 338 1260 338 1269 l 338 1151 q 331 1135 338 1142 q 315 1129 325 1129 l 264 1129 m 592 1129 q 576 1135 582 1129 q 569 1151 569 1142 l 569 1260 q 592 1282 569 1282 l 643 1282 q 658 1276 653 1282 q 664 1260 664 1269 l 664 1151 q 658 1135 664 1142 q 643 1129 653 1129 l 592 1129 z "},"Ụ":{"ha":939,"x_min":93,"x_max":846,"o":"m 469 -8 q 189 64 285 -8 q 93 317 93 136 l 93 1022 l 204 1022 l 204 317 q 270 142 204 192 q 469 92 336 92 q 669 142 603 92 q 735 317 735 192 l 735 1022 l 846 1022 l 846 317 q 750 64 846 136 q 469 -8 654 -8 m 438 -292 q 422 -285 428 -292 q 415 -269 415 -279 l 415 -161 q 438 -139 415 -139 l 489 -139 q 504 -145 499 -139 q 510 -161 510 -151 l 510 -269 q 504 -285 510 -279 q 489 -292 499 -292 l 438 -292 z "},"Ù":{"ha":939,"x_min":93,"x_max":846,"o":"m 469 -8 q 189 64 285 -8 q 93 317 93 136 l 93 1022 l 204 1022 l 204 317 q 270 142 204 192 q 469 92 336 92 q 669 142 603 92 q 735 317 735 192 l 735 1022 l 846 1022 l 846 317 q 750 64 846 136 q 469 -8 654 -8 m 265 1288 l 358 1288 l 503 1099 l 439 1099 l 265 1288 z "},"Ủ":{"ha":939,"x_min":93,"x_max":846,"o":"m 469 -8 q 189 64 285 -8 q 93 317 93 136 l 93 1022 l 204 1022 l 204 317 q 270 142 204 192 q 469 92 336 92 q 669 142 603 92 q 735 317 735 192 l 735 1022 l 846 1022 l 846 317 q 750 64 846 136 q 469 -8 654 -8 m 433 1121 q 511 1203 511 1144 q 444 1264 511 1264 q 394 1256 419 1264 l 394 1303 q 458 1311 419 1311 q 543 1283 515 1311 q 571 1204 571 1254 q 537 1124 571 1158 q 433 1069 503 1090 l 433 1121 z "},"Ư":{"ha":939,"x_min":93,"x_max":979,"o":"m 979 1179 q 943 1029 979 1082 q 846 964 907 976 l 846 317 q 750 64 846 136 q 469 -8 654 -8 q 189 64 285 -8 q 93 317 93 136 l 93 1022 l 204 1022 l 204 317 q 270 142 204 192 q 469 92 336 92 q 669 142 603 92 q 735 317 735 192 l 735 1022 l 790 1022 q 872 1058 843 1022 q 900 1179 900 1094 l 979 1179 z "},"Ứ":{"ha":939,"x_min":93,"x_max":979,"o":"m 979 1179 q 943 1029 979 1082 q 846 964 907 976 l 846 317 q 750 64 846 136 q 469 -8 654 -8 q 189 64 285 -8 q 93 317 93 136 l 93 1022 l 204 1022 l 204 317 q 270 142 204 192 q 469 92 336 92 q 669 142 603 92 q 735 317 735 192 l 735 1022 l 790 1022 q 872 1058 843 1022 q 900 1179 900 1094 l 979 1179 m 568 1288 l 661 1288 l 488 1099 l 424 1099 l 568 1288 z "},"Ự":{"ha":939,"x_min":93,"x_max":979,"o":"m 979 1179 q 943 1029 979 1082 q 846 964 907 976 l 846 317 q 750 64 846 136 q 469 -8 654 -8 q 189 64 285 -8 q 93 317 93 136 l 93 1022 l 204 1022 l 204 317 q 270 142 204 192 q 469 92 336 92 q 669 142 603 92 q 735 317 735 192 l 735 1022 l 790 1022 q 872 1058 843 1022 q 900 1179 900 1094 l 979 1179 m 426 -292 q 410 -285 417 -292 q 404 -269 404 -279 l 404 -161 q 426 -139 404 -139 l 478 -139 q 493 -145 488 -139 q 499 -161 499 -151 l 499 -269 q 493 -285 499 -279 q 478 -292 488 -292 l 426 -292 z "},"Ừ":{"ha":939,"x_min":93,"x_max":979,"o":"m 979 1179 q 943 1029 979 1082 q 846 964 907 976 l 846 317 q 750 64 846 136 q 469 -8 654 -8 q 189 64 285 -8 q 93 317 93 136 l 93 1022 l 204 1022 l 204 317 q 270 142 204 192 q 469 92 336 92 q 669 142 603 92 q 735 317 735 192 l 735 1022 l 790 1022 q 872 1058 843 1022 q 900 1179 900 1094 l 979 1179 m 271 1288 l 364 1288 l 508 1099 l 444 1099 l 271 1288 z "},"Ử":{"ha":939,"x_min":93,"x_max":979,"o":"m 979 1179 q 943 1029 979 1082 q 846 964 907 976 l 846 317 q 750 64 846 136 q 469 -8 654 -8 q 189 64 285 -8 q 93 317 93 136 l 93 1022 l 204 1022 l 204 317 q 270 142 204 192 q 469 92 336 92 q 669 142 603 92 q 735 317 735 192 l 735 1022 l 790 1022 q 872 1058 843 1022 q 900 1179 900 1094 l 979 1179 m 440 1121 q 518 1203 518 1144 q 451 1264 518 1264 q 401 1256 426 1264 l 401 1303 q 465 1311 426 1311 q 550 1283 522 1311 q 578 1204 578 1254 q 544 1124 578 1158 q 440 1069 510 1090 l 440 1121 z "},"Ữ":{"ha":939,"x_min":93,"x_max":979,"o":"m 979 1179 q 943 1029 979 1082 q 846 964 907 976 l 846 317 q 750 64 846 136 q 469 -8 654 -8 q 189 64 285 -8 q 93 317 93 136 l 93 1022 l 204 1022 l 204 317 q 270 142 204 192 q 469 92 336 92 q 669 142 603 92 q 735 317 735 192 l 735 1022 l 790 1022 q 872 1058 843 1022 q 900 1179 900 1094 l 979 1179 m 235 1121 q 275 1233 236 1197 q 368 1269 314 1269 q 426 1258 400 1269 q 489 1224 451 1246 q 540 1194 518 1204 q 583 1185 561 1185 q 643 1208 619 1185 q 668 1272 667 1231 l 724 1272 q 688 1161 722 1201 q 590 1121 653 1121 q 535 1132 561 1121 q 472 1167 510 1143 q 418 1197 440 1186 q 374 1207 396 1207 q 316 1185 339 1207 q 292 1121 293 1163 l 235 1121 z "},"Ű":{"ha":939,"x_min":93,"x_max":846,"o":"m 469 -8 q 189 64 285 -8 q 93 317 93 136 l 93 1022 l 204 1022 l 204 317 q 270 142 204 192 q 469 92 336 92 q 669 142 603 92 q 735 317 735 192 l 735 1022 l 846 1022 l 846 317 q 750 64 846 136 q 469 -8 654 -8 m 438 1288 l 528 1288 l 363 1099 l 299 1099 l 438 1288 m 646 1288 l 736 1288 l 571 1099 l 507 1099 l 646 1288 z "},"Ȗ":{"ha":939,"x_min":93,"x_max":846,"o":"m 469 -8 q 189 64 285 -8 q 93 317 93 136 l 93 1022 l 204 1022 l 204 317 q 270 142 204 192 q 469 92 336 92 q 669 142 603 92 q 735 317 735 192 l 735 1022 l 846 1022 l 846 317 q 750 64 846 136 q 469 -8 654 -8 m 460 1293 q 592 1246 542 1293 q 642 1097 642 1199 l 588 1097 q 553 1206 588 1172 q 464 1240 518 1240 q 331 1097 331 1240 l 276 1097 q 326 1247 276 1201 q 460 1293 376 1293 z "},"Ū":{"ha":939,"x_min":93,"x_max":846,"o":"m 469 -8 q 189 64 285 -8 q 93 317 93 136 l 93 1022 l 204 1022 l 204 317 q 270 142 204 192 q 469 92 336 92 q 669 142 603 92 q 735 317 735 192 l 735 1022 l 846 1022 l 846 317 q 750 64 846 136 q 469 -8 654 -8 m 271 1221 l 639 1221 l 639 1156 l 271 1156 l 271 1221 z "},"Ṻ":{"ha":939,"x_min":93,"x_max":846,"o":"m 469 -8 q 189 64 285 -8 q 93 317 93 136 l 93 1022 l 204 1022 l 204 317 q 270 142 204 192 q 469 92 336 92 q 669 142 603 92 q 735 317 735 192 l 735 1022 l 846 1022 l 846 317 q 750 64 846 136 q 469 -8 654 -8 m 271 1221 l 639 1221 l 639 1156 l 271 1156 l 271 1221 m 264 1310 q 248 1316 254 1310 q 242 1332 242 1322 l 242 1440 q 264 1463 242 1463 l 315 1463 q 331 1456 325 1463 q 338 1440 338 1450 l 338 1332 q 331 1316 338 1322 q 315 1310 325 1310 l 264 1310 m 592 1310 q 576 1316 582 1310 q 569 1332 569 1322 l 569 1440 q 592 1463 569 1463 l 643 1463 q 658 1456 653 1463 q 664 1440 664 1450 l 664 1332 q 658 1316 664 1322 q 643 1310 653 1310 l 592 1310 z "},"Ų":{"ha":939,"x_min":93,"x_max":846,"o":"m 846 1022 l 846 317 q 780 92 846 167 q 585 -1 714 18 q 499 -112 499 -49 q 529 -178 499 -154 q 614 -203 560 -203 l 622 -203 l 622 -256 q 586 -260 608 -260 q 479 -225 518 -260 q 440 -136 440 -190 q 532 -7 440 -54 q 469 -8 511 -8 q 189 64 285 -8 q 93 317 93 136 l 93 1022 l 204 1022 l 204 317 q 270 142 204 192 q 469 92 336 92 q 669 142 603 92 q 735 317 735 192 l 735 1022 l 846 1022 z "},"Ů":{"ha":939,"x_min":93,"x_max":846,"o":"m 469 -8 q 189 64 285 -8 q 93 317 93 136 l 93 1022 l 204 1022 l 204 317 q 270 142 204 192 q 469 92 336 92 q 669 142 603 92 q 735 317 735 192 l 735 1022 l 846 1022 l 846 317 q 750 64 846 136 q 469 -8 654 -8 m 465 1061 q 348 1094 386 1061 q 310 1208 310 1128 q 349 1324 310 1290 q 465 1358 388 1358 q 581 1324 543 1358 q 618 1208 618 1290 q 581 1094 618 1128 q 465 1061 543 1061 m 465 1107 q 540 1128 518 1107 q 563 1208 563 1150 q 540 1290 563 1267 q 465 1313 518 1313 q 388 1290 413 1313 q 364 1208 364 1267 q 388 1129 364 1151 q 465 1107 413 1107 z "},"Ũ":{"ha":939,"x_min":93,"x_max":846,"o":"m 469 -8 q 189 64 285 -8 q 93 317 93 136 l 93 1022 l 204 1022 l 204 317 q 270 142 204 192 q 469 92 336 92 q 669 142 603 92 q 735 317 735 192 l 735 1022 l 846 1022 l 846 317 q 750 64 846 136 q 469 -8 654 -8 m 225 1121 q 265 1233 226 1197 q 358 1269 304 1269 q 416 1258 390 1269 q 479 1224 442 1246 q 530 1194 508 1204 q 574 1185 551 1185 q 633 1208 610 1185 q 658 1272 657 1231 l 714 1272 q 678 1161 713 1201 q 581 1121 643 1121 q 526 1132 551 1121 q 463 1167 500 1143 q 408 1197 431 1186 q 364 1207 386 1207 q 306 1185 329 1207 q 282 1121 283 1163 l 225 1121 z "},"Ṹ":{"ha":939,"x_min":93,"x_max":846,"o":"m 469 -8 q 189 64 285 -8 q 93 317 93 136 l 93 1022 l 204 1022 l 204 317 q 270 142 204 192 q 469 92 336 92 q 669 142 603 92 q 735 317 735 192 l 735 1022 l 846 1022 l 846 317 q 750 64 846 136 q 469 -8 654 -8 m 225 1121 q 265 1233 226 1197 q 358 1269 304 1269 q 416 1258 390 1269 q 479 1224 442 1246 q 530 1194 508 1204 q 574 1185 551 1185 q 633 1208 610 1185 q 658 1272 657 1231 l 714 1272 q 678 1161 713 1201 q 581 1121 643 1121 q 526 1132 551 1121 q 463 1167 500 1143 q 408 1197 431 1186 q 364 1207 386 1207 q 306 1185 329 1207 q 282 1121 283 1163 l 225 1121 m 582 1496 l 675 1496 l 501 1307 l 438 1307 l 582 1496 z "},"V":{"ha":936,"x_min":47,"x_max":889,"o":"m 47 1022 l 161 1022 l 469 115 l 776 1022 l 889 1022 l 539 0 l 397 0 l 47 1022 z "},"W":{"ha":1376,"x_min":47,"x_max":1329,"o":"m 47 1022 l 161 1022 l 381 151 l 633 1022 l 744 1022 l 996 151 l 1215 1022 l 1329 1022 l 1067 0 l 947 0 l 689 868 l 429 0 l 310 0 l 47 1022 z "},"Ẃ":{"ha":1376,"x_min":47,"x_max":1329,"o":"m 47 1022 l 161 1022 l 381 151 l 633 1022 l 744 1022 l 996 151 l 1215 1022 l 1329 1022 l 1067 0 l 947 0 l 689 868 l 429 0 l 310 0 l 47 1022 m 821 1288 l 914 1288 l 740 1099 l 676 1099 l 821 1288 z "},"Ŵ":{"ha":1376,"x_min":47,"x_max":1329,"o":"m 47 1022 l 161 1022 l 381 151 l 633 1022 l 744 1022 l 996 151 l 1215 1022 l 1329 1022 l 1067 0 l 947 0 l 689 868 l 429 0 l 310 0 l 47 1022 m 668 1286 l 746 1286 l 899 1099 l 832 1099 l 706 1233 l 567 1099 l 499 1099 l 668 1286 z "},"Ẅ":{"ha":1376,"x_min":47,"x_max":1329,"o":"m 47 1022 l 161 1022 l 381 151 l 633 1022 l 744 1022 l 996 151 l 1215 1022 l 1329 1022 l 1067 0 l 947 0 l 689 868 l 429 0 l 310 0 l 47 1022 m 503 1129 q 487 1135 493 1129 q 481 1151 481 1142 l 481 1260 q 503 1282 481 1282 l 554 1282 q 570 1276 564 1282 q 576 1260 576 1269 l 576 1151 q 570 1135 576 1142 q 554 1129 564 1129 l 503 1129 m 831 1129 q 815 1135 821 1129 q 808 1151 808 1142 l 808 1260 q 831 1282 808 1282 l 882 1282 q 897 1276 892 1282 q 903 1260 903 1269 l 903 1151 q 897 1135 903 1142 q 882 1129 892 1129 l 831 1129 z "},"Ẁ":{"ha":1376,"x_min":47,"x_max":1329,"o":"m 47 1022 l 161 1022 l 381 151 l 633 1022 l 744 1022 l 996 151 l 1215 1022 l 1329 1022 l 1067 0 l 947 0 l 689 868 l 429 0 l 310 0 l 47 1022 m 504 1288 l 597 1288 l 742 1099 l 678 1099 l 504 1288 z "},"X":{"ha":865,"x_min":49,"x_max":817,"o":"m 497 503 l 814 0 l 693 0 l 429 419 l 174 0 l 53 0 l 371 511 l 49 1022 l 169 1022 l 439 594 l 696 1022 l 817 1022 l 497 503 z "},"Y":{"ha":858,"x_min":49,"x_max":808,"o":"m 374 339 l 49 1022 l 164 1022 l 431 450 l 697 1022 l 808 1022 l 485 339 l 485 0 l 374 0 l 374 339 z "},"Ý":{"ha":858,"x_min":49,"x_max":808,"o":"m 374 339 l 49 1022 l 164 1022 l 431 450 l 697 1022 l 808 1022 l 485 339 l 485 0 l 374 0 l 374 339 m 549 1288 l 642 1288 l 468 1099 l 404 1099 l 549 1288 z "},"Ŷ":{"ha":858,"x_min":49,"x_max":808,"o":"m 374 339 l 49 1022 l 164 1022 l 431 450 l 697 1022 l 808 1022 l 485 339 l 485 0 l 374 0 l 374 339 m 396 1286 l 474 1286 l 626 1099 l 560 1099 l 433 1233 l 294 1099 l 226 1099 l 396 1286 z "},"Ÿ":{"ha":858,"x_min":49,"x_max":808,"o":"m 374 339 l 49 1022 l 164 1022 l 431 450 l 697 1022 l 808 1022 l 485 339 l 485 0 l 374 0 l 374 339 m 231 1129 q 215 1135 221 1129 q 208 1151 208 1142 l 208 1260 q 231 1282 208 1282 l 282 1282 q 298 1276 292 1282 q 304 1260 304 1269 l 304 1151 q 298 1135 304 1142 q 282 1129 292 1129 l 231 1129 m 558 1129 q 542 1135 549 1129 q 536 1151 536 1142 l 536 1260 q 558 1282 536 1282 l 610 1282 q 625 1276 619 1282 q 631 1260 631 1269 l 631 1151 q 625 1135 631 1142 q 610 1129 619 1129 l 558 1129 z "},"Ẏ":{"ha":858,"x_min":49,"x_max":808,"o":"m 374 339 l 49 1022 l 164 1022 l 431 450 l 697 1022 l 808 1022 l 485 339 l 485 0 l 374 0 l 374 339 m 404 -292 q 388 -285 394 -292 q 382 -269 382 -279 l 382 -161 q 404 -139 382 -139 l 456 -139 q 471 -145 465 -139 q 476 -161 476 -151 l 476 -269 q 471 -285 476 -279 q 456 -292 465 -292 l 404 -292 z "},"Ỵ":{"ha":858,"x_min":49,"x_max":808,"o":"m 374 339 l 49 1022 l 164 1022 l 431 450 l 697 1022 l 808 1022 l 485 339 l 485 0 l 374 0 l 374 339 m 404 -292 q 388 -285 394 -292 q 382 -269 382 -279 l 382 -161 q 404 -139 382 -139 l 456 -139 q 471 -145 465 -139 q 476 -161 476 -151 l 476 -269 q 471 -285 476 -279 q 456 -292 465 -292 l 404 -292 z "},"Ỳ":{"ha":858,"x_min":49,"x_max":808,"o":"m 374 339 l 49 1022 l 164 1022 l 431 450 l 697 1022 l 808 1022 l 485 339 l 485 0 l 374 0 l 374 339 m 232 1288 l 325 1288 l 469 1099 l 406 1099 l 232 1288 z "},"Ỷ":{"ha":858,"x_min":49,"x_max":808,"o":"m 374 339 l 49 1022 l 164 1022 l 431 450 l 697 1022 l 808 1022 l 485 339 l 485 0 l 374 0 l 374 339 m 400 1121 q 478 1203 478 1144 q 411 1264 478 1264 q 361 1256 386 1264 l 361 1303 q 425 1311 386 1311 q 510 1283 482 1311 q 538 1204 538 1254 q 503 1124 538 1158 q 400 1069 469 1090 l 400 1121 z "},"Ȳ":{"ha":858,"x_min":49,"x_max":808,"o":"m 374 339 l 49 1022 l 164 1022 l 431 450 l 697 1022 l 808 1022 l 485 339 l 485 0 l 374 0 l 374 339 m 238 1221 l 606 1221 l 606 1156 l 238 1156 l 238 1221 z "},"Ỹ":{"ha":858,"x_min":49,"x_max":808,"o":"m 374 339 l 49 1022 l 164 1022 l 431 450 l 697 1022 l 808 1022 l 485 339 l 485 0 l 374 0 l 374 339 m 192 1121 q 232 1233 193 1197 q 325 1269 271 1269 q 383 1258 357 1269 q 446 1224 408 1246 q 497 1194 475 1204 q 540 1185 518 1185 q 600 1208 576 1185 q 625 1272 624 1231 l 681 1272 q 644 1161 679 1201 q 547 1121 610 1121 q 492 1132 518 1121 q 429 1167 467 1143 q 375 1197 397 1186 q 331 1207 353 1207 q 273 1185 296 1207 q 249 1121 250 1163 l 192 1121 z "},"Z":{"ha":778,"x_min":60,"x_max":725,"o":"m 60 90 l 592 922 l 60 922 l 60 1022 l 725 1022 l 725 932 l 193 99 l 725 99 l 725 0 l 60 0 l 60 90 z "},"Ź":{"ha":778,"x_min":60,"x_max":725,"o":"m 60 90 l 592 922 l 60 922 l 60 1022 l 725 1022 l 725 932 l 193 99 l 725 99 l 725 0 l 60 0 l 60 90 m 504 1288 l 597 1288 l 424 1099 l 360 1099 l 504 1288 z "},"Ž":{"ha":778,"x_min":60,"x_max":725,"o":"m 60 90 l 592 922 l 60 922 l 60 1022 l 725 1022 l 725 932 l 193 99 l 725 99 l 725 0 l 60 0 l 60 90 m 192 1286 l 258 1286 l 386 1151 l 525 1286 l 592 1286 l 424 1099 l 346 1099 l 192 1286 z "},"Ż":{"ha":778,"x_min":60,"x_max":725,"o":"m 60 90 l 592 922 l 60 922 l 60 1022 l 725 1022 l 725 932 l 193 99 l 725 99 l 725 0 l 60 0 l 60 90 m 358 1139 q 342 1145 349 1139 q 336 1161 336 1151 l 336 1269 q 358 1292 336 1292 l 410 1292 q 425 1285 419 1292 q 431 1269 431 1279 l 431 1161 q 425 1145 431 1151 q 410 1139 419 1139 l 358 1139 z "},"Ẓ":{"ha":778,"x_min":60,"x_max":725,"o":"m 60 90 l 592 922 l 60 922 l 60 1022 l 725 1022 l 725 932 l 193 99 l 725 99 l 725 0 l 60 0 l 60 90 m 360 -292 q 344 -285 350 -292 q 338 -269 338 -279 l 338 -161 q 360 -139 338 -139 l 411 -139 q 426 -145 421 -139 q 432 -161 432 -151 l 432 -269 q 426 -285 432 -279 q 411 -292 421 -292 l 360 -292 z "},"a":{"ha":757,"x_min":63,"x_max":656,"o":"m 250 -8 q 115 42 167 -8 q 63 178 63 92 l 63 231 q 122 374 63 321 q 294 426 181 426 l 546 426 l 546 518 q 505 629 546 593 q 354 665 464 665 l 124 665 l 124 731 q 394 753 254 753 q 592 698 529 753 q 656 524 656 643 l 656 0 l 571 0 l 550 85 q 490 53 540 76 q 374 10 439 29 q 250 -8 308 -8 m 299 74 q 390 88 336 74 q 488 117 444 101 q 546 138 532 132 l 546 371 l 319 361 q 208 324 243 358 q 172 229 172 289 l 172 196 q 209 103 172 132 q 299 74 246 74 z "},"á":{"ha":757,"x_min":63,"x_max":656,"o":"m 250 -8 q 115 42 167 -8 q 63 178 63 92 l 63 231 q 122 374 63 321 q 294 426 181 426 l 546 426 l 546 518 q 505 629 546 593 q 354 665 464 665 l 124 665 l 124 731 q 394 753 254 753 q 592 698 529 753 q 656 524 656 643 l 656 0 l 571 0 l 550 85 q 490 53 540 76 q 374 10 439 29 q 250 -8 308 -8 m 299 74 q 390 88 336 74 q 488 117 444 101 q 546 138 532 132 l 546 371 l 319 361 q 208 324 243 358 q 172 229 172 289 l 172 196 q 209 103 172 132 q 299 74 246 74 m 475 1065 l 568 1065 l 394 876 l 331 876 l 475 1065 z "},"ă":{"ha":757,"x_min":63,"x_max":656,"o":"m 250 -8 q 115 42 167 -8 q 63 178 63 92 l 63 231 q 122 374 63 321 q 294 426 181 426 l 546 426 l 546 518 q 505 629 546 593 q 354 665 464 665 l 124 665 l 124 731 q 394 753 254 753 q 592 698 529 753 q 656 524 656 643 l 656 0 l 571 0 l 550 85 q 490 53 540 76 q 374 10 439 29 q 250 -8 308 -8 m 299 74 q 390 88 336 74 q 488 117 444 101 q 546 138 532 132 l 546 371 l 319 361 q 208 324 243 358 q 172 229 172 289 l 172 196 q 209 103 172 132 q 299 74 246 74 m 365 874 q 233 921 283 874 q 183 1069 183 968 l 238 1069 q 272 961 238 996 q 361 926 307 926 q 494 1069 494 926 l 549 1069 q 499 919 549 965 q 365 874 449 874 z "},"ắ":{"ha":757,"x_min":63,"x_max":656,"o":"m 250 -8 q 115 42 167 -8 q 63 178 63 92 l 63 231 q 122 374 63 321 q 294 426 181 426 l 546 426 l 546 518 q 505 629 546 593 q 354 665 464 665 l 124 665 l 124 731 q 394 753 254 753 q 592 698 529 753 q 656 524 656 643 l 656 0 l 571 0 l 550 85 q 490 53 540 76 q 374 10 439 29 q 250 -8 308 -8 m 299 74 q 390 88 336 74 q 488 117 444 101 q 546 138 532 132 l 546 371 l 319 361 q 208 324 243 358 q 172 229 172 289 l 172 196 q 209 103 172 132 q 299 74 246 74 m 471 1218 l 564 1218 l 390 1029 l 326 1029 l 471 1218 m 238 1019 q 272 938 238 964 q 361 913 307 913 q 460 938 425 913 q 494 1019 494 963 l 549 1019 q 499 900 549 936 q 365 864 449 864 q 234 901 285 864 q 183 1019 183 939 l 238 1019 z "},"ặ":{"ha":757,"x_min":63,"x_max":656,"o":"m 250 -8 q 115 42 167 -8 q 63 178 63 92 l 63 231 q 122 374 63 321 q 294 426 181 426 l 546 426 l 546 518 q 505 629 546 593 q 354 665 464 665 l 124 665 l 124 731 q 394 753 254 753 q 592 698 529 753 q 656 524 656 643 l 656 0 l 571 0 l 550 85 q 490 53 540 76 q 374 10 439 29 q 250 -8 308 -8 m 299 74 q 390 88 336 74 q 488 117 444 101 q 546 138 532 132 l 546 371 l 319 361 q 208 324 243 358 q 172 229 172 289 l 172 196 q 209 103 172 132 q 299 74 246 74 m 365 874 q 233 921 283 874 q 183 1069 183 968 l 238 1069 q 272 961 238 996 q 361 926 307 926 q 494 1069 494 926 l 549 1069 q 499 919 549 965 q 365 874 449 874 m 344 -292 q 328 -285 335 -292 q 322 -269 322 -279 l 322 -161 q 344 -139 322 -139 l 396 -139 q 412 -145 406 -139 q 418 -161 418 -151 l 418 -269 q 412 -285 418 -279 q 396 -292 406 -292 l 344 -292 z "},"ằ":{"ha":757,"x_min":63,"x_max":656,"o":"m 250 -8 q 115 42 167 -8 q 63 178 63 92 l 63 231 q 122 374 63 321 q 294 426 181 426 l 546 426 l 546 518 q 505 629 546 593 q 354 665 464 665 l 124 665 l 124 731 q 394 753 254 753 q 592 698 529 753 q 656 524 656 643 l 656 0 l 571 0 l 550 85 q 490 53 540 76 q 374 10 439 29 q 250 -8 308 -8 m 299 74 q 390 88 336 74 q 488 117 444 101 q 546 138 532 132 l 546 371 l 319 361 q 208 324 243 358 q 172 229 172 289 l 172 196 q 209 103 172 132 q 299 74 246 74 m 182 1218 l 275 1218 l 419 1029 l 356 1029 l 182 1218 m 238 1019 q 272 938 238 964 q 361 913 307 913 q 460 938 425 913 q 494 1019 494 963 l 549 1019 q 499 900 549 936 q 365 864 449 864 q 234 901 285 864 q 183 1019 183 939 l 238 1019 z "},"ẳ":{"ha":757,"x_min":63,"x_max":656,"o":"m 250 -8 q 115 42 167 -8 q 63 178 63 92 l 63 231 q 122 374 63 321 q 294 426 181 426 l 546 426 l 546 518 q 505 629 546 593 q 354 665 464 665 l 124 665 l 124 731 q 394 753 254 753 q 592 698 529 753 q 656 524 656 643 l 656 0 l 571 0 l 550 85 q 490 53 540 76 q 374 10 439 29 q 250 -8 308 -8 m 299 74 q 390 88 336 74 q 488 117 444 101 q 546 138 532 132 l 546 371 l 319 361 q 208 324 243 358 q 172 229 172 289 l 172 196 q 209 103 172 132 q 299 74 246 74 m 343 1022 q 421 1104 421 1046 q 354 1165 421 1165 q 304 1157 329 1165 l 304 1204 q 368 1213 329 1213 q 453 1184 425 1213 q 481 1106 481 1156 q 447 1026 481 1060 q 343 971 413 992 l 343 1022 m 365 864 q 234 901 285 864 q 183 1019 183 939 l 238 1019 q 272 938 238 964 q 361 913 307 913 q 460 938 425 913 q 494 1019 494 963 l 549 1019 q 499 900 549 936 q 365 864 449 864 z "},"ẵ":{"ha":757,"x_min":63,"x_max":656,"o":"m 250 -8 q 115 42 167 -8 q 63 178 63 92 l 63 231 q 122 374 63 321 q 294 426 181 426 l 546 426 l 546 518 q 505 629 546 593 q 354 665 464 665 l 124 665 l 124 731 q 394 753 254 753 q 592 698 529 753 q 656 524 656 643 l 656 0 l 571 0 l 550 85 q 490 53 540 76 q 374 10 439 29 q 250 -8 308 -8 m 299 74 q 390 88 336 74 q 488 117 444 101 q 546 138 532 132 l 546 371 l 319 361 q 208 324 243 358 q 172 229 172 289 l 172 196 q 209 103 172 132 q 299 74 246 74 m 264 1183 q 315 1175 290 1183 q 374 1151 339 1167 q 463 1125 429 1125 q 517 1141 496 1125 q 538 1186 538 1157 l 593 1186 q 478 1069 589 1069 q 428 1077 453 1069 q 372 1100 404 1085 q 321 1121 342 1114 q 279 1128 300 1128 q 227 1113 247 1128 q 207 1068 207 1097 l 150 1068 q 185 1157 153 1131 q 264 1183 217 1183 m 238 1019 q 272 938 238 964 q 361 913 307 913 q 460 938 425 913 q 494 1019 494 963 l 549 1019 q 499 900 549 936 q 365 864 449 864 q 234 901 285 864 q 183 1019 183 939 l 238 1019 z "},"â":{"ha":757,"x_min":63,"x_max":656,"o":"m 250 -8 q 115 42 167 -8 q 63 178 63 92 l 63 231 q 122 374 63 321 q 294 426 181 426 l 546 426 l 546 518 q 505 629 546 593 q 354 665 464 665 l 124 665 l 124 731 q 394 753 254 753 q 592 698 529 753 q 656 524 656 643 l 656 0 l 571 0 l 550 85 q 490 53 540 76 q 374 10 439 29 q 250 -8 308 -8 m 299 74 q 390 88 336 74 q 488 117 444 101 q 546 138 532 132 l 546 371 l 319 361 q 208 324 243 358 q 172 229 172 289 l 172 196 q 209 103 172 132 q 299 74 246 74 m 340 1064 l 418 1064 l 571 876 l 504 876 l 378 1011 l 239 876 l 171 876 l 340 1064 z "},"ấ":{"ha":757,"x_min":63,"x_max":707,"o":"m 250 -8 q 115 42 167 -8 q 63 178 63 92 l 63 231 q 122 374 63 321 q 294 426 181 426 l 546 426 l 546 518 q 505 629 546 593 q 354 665 464 665 l 124 665 l 124 731 q 394 753 254 753 q 592 698 529 753 q 656 524 656 643 l 656 0 l 571 0 l 550 85 q 490 53 540 76 q 374 10 439 29 q 250 -8 308 -8 m 299 74 q 390 88 336 74 q 488 117 444 101 q 546 138 532 132 l 546 371 l 319 361 q 208 324 243 358 q 172 229 172 289 l 172 196 q 209 103 172 132 q 299 74 246 74 m 707 1163 l 556 983 l 492 983 l 613 1163 l 707 1163 m 418 1013 l 571 876 l 504 876 l 376 961 l 238 876 l 171 876 l 339 1013 l 418 1013 z "},"ậ":{"ha":757,"x_min":63,"x_max":656,"o":"m 250 -8 q 115 42 167 -8 q 63 178 63 92 l 63 231 q 122 374 63 321 q 294 426 181 426 l 546 426 l 546 518 q 505 629 546 593 q 354 665 464 665 l 124 665 l 124 731 q 394 753 254 753 q 592 698 529 753 q 656 524 656 643 l 656 0 l 571 0 l 550 85 q 490 53 540 76 q 374 10 439 29 q 250 -8 308 -8 m 299 74 q 390 88 336 74 q 488 117 444 101 q 546 138 532 132 l 546 371 l 319 361 q 208 324 243 358 q 172 229 172 289 l 172 196 q 209 103 172 132 q 299 74 246 74 m 340 1064 l 418 1064 l 571 876 l 504 876 l 378 1011 l 239 876 l 171 876 l 340 1064 m 344 -292 q 328 -285 335 -292 q 322 -269 322 -279 l 322 -161 q 344 -139 322 -139 l 396 -139 q 412 -145 406 -139 q 418 -161 418 -151 l 418 -269 q 412 -285 418 -279 q 396 -292 406 -292 l 344 -292 z "},"ầ":{"ha":757,"x_min":43,"x_max":656,"o":"m 250 -8 q 115 42 167 -8 q 63 178 63 92 l 63 231 q 122 374 63 321 q 294 426 181 426 l 546 426 l 546 518 q 505 629 546 593 q 354 665 464 665 l 124 665 l 124 731 q 394 753 254 753 q 592 698 529 753 q 656 524 656 643 l 656 0 l 571 0 l 550 85 q 490 53 540 76 q 374 10 439 29 q 250 -8 308 -8 m 299 74 q 390 88 336 74 q 488 117 444 101 q 546 138 532 132 l 546 371 l 319 361 q 208 324 243 358 q 172 229 172 289 l 172 196 q 209 103 172 132 q 299 74 246 74 m 138 1163 l 258 983 l 194 983 l 43 1163 l 138 1163 m 418 1013 l 571 876 l 504 876 l 376 961 l 238 876 l 171 876 l 339 1013 l 418 1013 z "},"ẩ":{"ha":757,"x_min":63,"x_max":656,"o":"m 250 -8 q 115 42 167 -8 q 63 178 63 92 l 63 231 q 122 374 63 321 q 294 426 181 426 l 546 426 l 546 518 q 505 629 546 593 q 354 665 464 665 l 124 665 l 124 731 q 394 753 254 753 q 592 698 529 753 q 656 524 656 643 l 656 0 l 571 0 l 550 85 q 490 53 540 76 q 374 10 439 29 q 250 -8 308 -8 m 299 74 q 390 88 336 74 q 488 117 444 101 q 546 138 532 132 l 546 371 l 319 361 q 208 324 243 358 q 172 229 172 289 l 172 196 q 209 103 172 132 q 299 74 246 74 m 524 999 q 576 1028 560 1010 q 593 1069 593 1047 q 535 1121 593 1121 q 486 1113 517 1121 l 486 1154 q 549 1164 514 1164 q 624 1140 599 1164 q 649 1074 649 1115 q 618 999 649 1032 q 524 949 588 967 l 524 999 m 339 1013 l 418 1013 l 571 876 l 504 876 l 376 961 l 238 876 l 171 876 l 339 1013 z "},"ẫ":{"ha":757,"x_min":63,"x_max":656,"o":"m 250 -8 q 115 42 167 -8 q 63 178 63 92 l 63 231 q 122 374 63 321 q 294 426 181 426 l 546 426 l 546 518 q 505 629 546 593 q 354 665 464 665 l 124 665 l 124 731 q 394 753 254 753 q 592 698 529 753 q 656 524 656 643 l 656 0 l 571 0 l 550 85 q 490 53 540 76 q 374 10 439 29 q 250 -8 308 -8 m 299 74 q 390 88 336 74 q 488 117 444 101 q 546 138 532 132 l 546 371 l 319 361 q 208 324 243 358 q 172 229 172 289 l 172 196 q 209 103 172 132 q 299 74 246 74 m 264 1193 q 315 1185 290 1193 q 374 1161 339 1176 q 463 1135 429 1135 q 517 1151 496 1135 q 538 1196 538 1167 l 593 1196 q 478 1078 589 1078 q 428 1085 451 1078 q 369 1108 404 1093 q 316 1129 338 1122 q 274 1136 294 1136 q 226 1121 244 1136 q 207 1078 207 1106 l 150 1078 q 185 1167 153 1140 q 264 1193 217 1193 m 571 876 l 504 876 l 376 961 l 238 876 l 171 876 l 339 1013 l 418 1013 l 571 876 z "},"ȁ":{"ha":757,"x_min":63,"x_max":656,"o":"m 250 -8 q 115 42 167 -8 q 63 178 63 92 l 63 231 q 122 374 63 321 q 294 426 181 426 l 546 426 l 546 518 q 505 629 546 593 q 354 665 464 665 l 124 665 l 124 731 q 394 753 254 753 q 592 698 529 753 q 656 524 656 643 l 656 0 l 571 0 l 550 85 q 490 53 540 76 q 374 10 439 29 q 250 -8 308 -8 m 299 74 q 390 88 336 74 q 488 117 444 101 q 546 138 532 132 l 546 371 l 319 361 q 208 324 243 358 q 172 229 172 289 l 172 196 q 209 103 172 132 q 299 74 246 74 m 96 1065 l 190 1065 l 335 876 l 269 876 l 96 1065 m 299 1065 l 393 1065 l 538 876 l 472 876 l 299 1065 z "},"ä":{"ha":757,"x_min":63,"x_max":656,"o":"m 250 -8 q 115 42 167 -8 q 63 178 63 92 l 63 231 q 122 374 63 321 q 294 426 181 426 l 546 426 l 546 518 q 505 629 546 593 q 354 665 464 665 l 124 665 l 124 731 q 394 753 254 753 q 592 698 529 753 q 656 524 656 643 l 656 0 l 571 0 l 550 85 q 490 53 540 76 q 374 10 439 29 q 250 -8 308 -8 m 299 74 q 390 88 336 74 q 488 117 444 101 q 546 138 532 132 l 546 371 l 319 361 q 208 324 243 358 q 172 229 172 289 l 172 196 q 209 103 172 132 q 299 74 246 74 m 213 907 q 197 913 203 907 q 190 929 190 919 l 190 1038 q 213 1060 190 1060 l 263 1060 q 285 1038 285 1060 l 285 929 q 263 907 285 907 l 213 907 m 483 907 q 467 913 474 907 q 461 929 461 919 l 461 1038 q 483 1060 461 1060 l 533 1060 q 556 1038 556 1060 l 556 929 q 533 907 556 907 l 483 907 z "},"ạ":{"ha":757,"x_min":63,"x_max":656,"o":"m 250 -8 q 115 42 167 -8 q 63 178 63 92 l 63 231 q 122 374 63 321 q 294 426 181 426 l 546 426 l 546 518 q 505 629 546 593 q 354 665 464 665 l 124 665 l 124 731 q 394 753 254 753 q 592 698 529 753 q 656 524 656 643 l 656 0 l 571 0 l 550 85 q 490 53 540 76 q 374 10 439 29 q 250 -8 308 -8 m 299 74 q 390 88 336 74 q 488 117 444 101 q 546 138 532 132 l 546 371 l 319 361 q 208 324 243 358 q 172 229 172 289 l 172 196 q 209 103 172 132 q 299 74 246 74 m 344 -292 q 328 -285 335 -292 q 322 -269 322 -279 l 322 -161 q 344 -139 322 -139 l 396 -139 q 412 -145 406 -139 q 418 -161 418 -151 l 418 -269 q 412 -285 418 -279 q 396 -292 406 -292 l 344 -292 z "},"à":{"ha":757,"x_min":63,"x_max":656,"o":"m 250 -8 q 115 42 167 -8 q 63 178 63 92 l 63 231 q 122 374 63 321 q 294 426 181 426 l 546 426 l 546 518 q 505 629 546 593 q 354 665 464 665 l 124 665 l 124 731 q 394 753 254 753 q 592 698 529 753 q 656 524 656 643 l 656 0 l 571 0 l 550 85 q 490 53 540 76 q 374 10 439 29 q 250 -8 308 -8 m 299 74 q 390 88 336 74 q 488 117 444 101 q 546 138 532 132 l 546 371 l 319 361 q 208 324 243 358 q 172 229 172 289 l 172 196 q 209 103 172 132 q 299 74 246 74 m 196 1065 l 289 1065 l 433 876 l 369 876 l 196 1065 z "},"ả":{"ha":757,"x_min":63,"x_max":656,"o":"m 250 -8 q 115 42 167 -8 q 63 178 63 92 l 63 231 q 122 374 63 321 q 294 426 181 426 l 546 426 l 546 518 q 505 629 546 593 q 354 665 464 665 l 124 665 l 124 731 q 394 753 254 753 q 592 698 529 753 q 656 524 656 643 l 656 0 l 571 0 l 550 85 q 490 53 540 76 q 374 10 439 29 q 250 -8 308 -8 m 299 74 q 390 88 336 74 q 488 117 444 101 q 546 138 532 132 l 546 371 l 319 361 q 208 324 243 358 q 172 229 172 289 l 172 196 q 209 103 172 132 q 299 74 246 74 m 350 889 q 428 971 428 913 q 361 1032 428 1032 q 311 1024 336 1032 l 311 1071 q 375 1079 336 1079 q 460 1051 432 1079 q 488 972 488 1022 q 453 892 488 926 q 350 838 419 858 l 350 889 z "},"ȃ":{"ha":757,"x_min":63,"x_max":656,"o":"m 250 -8 q 115 42 167 -8 q 63 178 63 92 l 63 231 q 122 374 63 321 q 294 426 181 426 l 546 426 l 546 518 q 505 629 546 593 q 354 665 464 665 l 124 665 l 124 731 q 394 753 254 753 q 592 698 529 753 q 656 524 656 643 l 656 0 l 571 0 l 550 85 q 490 53 540 76 q 374 10 439 29 q 250 -8 308 -8 m 299 74 q 390 88 336 74 q 488 117 444 101 q 546 138 532 132 l 546 371 l 319 361 q 208 324 243 358 q 172 229 172 289 l 172 196 q 209 103 172 132 q 299 74 246 74 m 372 1071 q 504 1024 454 1071 q 554 875 554 976 l 500 875 q 465 984 500 950 q 376 1018 431 1018 q 243 875 243 1018 l 189 875 q 239 1025 189 979 q 372 1071 289 1071 z "},"ā":{"ha":757,"x_min":63,"x_max":656,"o":"m 250 -8 q 115 42 167 -8 q 63 178 63 92 l 63 231 q 122 374 63 321 q 294 426 181 426 l 546 426 l 546 518 q 505 629 546 593 q 354 665 464 665 l 124 665 l 124 731 q 394 753 254 753 q 592 698 529 753 q 656 524 656 643 l 656 0 l 571 0 l 550 85 q 490 53 540 76 q 374 10 439 29 q 250 -8 308 -8 m 299 74 q 390 88 336 74 q 488 117 444 101 q 546 138 532 132 l 546 371 l 319 361 q 208 324 243 358 q 172 229 172 289 l 172 196 q 209 103 172 132 q 299 74 246 74 m 188 999 l 556 999 l 556 933 l 188 933 l 188 999 z "},"ą":{"ha":757,"x_min":63,"x_max":692,"o":"m 692 -203 l 692 -256 q 656 -260 678 -260 q 549 -225 588 -260 q 510 -136 510 -190 q 536 -60 510 -94 q 614 0 563 -25 l 571 0 l 550 85 q 490 53 540 76 q 374 10 439 29 q 250 -8 308 -8 q 115 42 167 -8 q 63 178 63 92 l 63 231 q 122 374 63 321 q 294 426 181 426 l 546 426 l 546 518 q 505 629 546 593 q 354 665 464 665 l 124 665 l 124 731 q 394 753 254 753 q 592 698 529 753 q 656 524 656 643 l 656 0 q 568 -112 568 -49 q 599 -178 568 -154 q 683 -203 629 -203 l 692 -203 m 546 371 l 319 361 q 208 324 243 358 q 172 229 172 289 l 172 196 q 209 103 172 132 q 299 74 246 74 q 390 88 336 74 q 488 117 444 101 q 546 138 532 132 l 546 371 z "},"å":{"ha":757,"x_min":63,"x_max":656,"o":"m 250 -8 q 115 42 167 -8 q 63 178 63 92 l 63 231 q 122 374 63 321 q 294 426 181 426 l 546 426 l 546 518 q 505 629 546 593 q 354 665 464 665 l 124 665 l 124 731 q 394 753 254 753 q 592 698 529 753 q 656 524 656 643 l 656 0 l 571 0 l 550 85 q 490 53 540 76 q 374 10 439 29 q 250 -8 308 -8 m 299 74 q 390 88 336 74 q 488 117 444 101 q 546 138 532 132 l 546 371 l 319 361 q 208 324 243 358 q 172 229 172 289 l 172 196 q 209 103 172 132 q 299 74 246 74 m 376 825 q 259 858 297 825 q 221 972 221 892 q 260 1088 221 1054 q 376 1122 299 1122 q 492 1088 454 1122 q 529 972 529 1054 q 492 858 529 892 q 376 825 454 825 m 376 871 q 451 892 429 871 q 474 972 474 914 q 451 1053 474 1031 q 376 1076 429 1076 q 299 1053 324 1076 q 275 972 275 1031 q 299 893 275 915 q 376 871 324 871 z "},"ǻ":{"ha":757,"x_min":63,"x_max":656,"o":"m 376 825 q 259 858 297 825 q 221 972 221 892 q 255 1083 221 1049 q 358 1122 289 1118 l 485 1288 l 578 1288 l 422 1119 q 503 1075 476 1110 q 529 972 529 1040 q 492 858 529 892 q 376 825 454 825 m 376 1076 q 299 1053 324 1076 q 275 972 275 1031 q 299 893 275 915 q 376 871 324 871 q 451 892 429 871 q 474 972 474 914 q 451 1053 474 1031 q 376 1076 429 1076 m 394 753 q 592 698 529 753 q 656 524 656 643 l 656 0 l 571 0 l 550 85 q 490 53 540 76 q 374 10 439 29 q 250 -8 308 -8 q 115 42 167 -8 q 63 178 63 92 l 63 231 q 122 374 63 321 q 294 426 181 426 l 546 426 l 546 518 q 505 629 546 593 q 354 665 464 665 l 124 665 l 124 731 q 394 753 254 753 m 546 371 l 319 361 q 208 324 243 358 q 172 229 172 289 l 172 196 q 209 103 172 132 q 299 74 246 74 q 390 88 336 74 q 488 117 444 101 q 546 138 532 132 l 546 371 z "},"ã":{"ha":757,"x_min":63,"x_max":656,"o":"m 250 -8 q 115 42 167 -8 q 63 178 63 92 l 63 231 q 122 374 63 321 q 294 426 181 426 l 546 426 l 546 518 q 505 629 546 593 q 354 665 464 665 l 124 665 l 124 731 q 394 753 254 753 q 592 698 529 753 q 656 524 656 643 l 656 0 l 571 0 l 550 85 q 490 53 540 76 q 374 10 439 29 q 250 -8 308 -8 m 299 74 q 390 88 336 74 q 488 117 444 101 q 546 138 532 132 l 546 371 l 319 361 q 208 324 243 358 q 172 229 172 289 l 172 196 q 209 103 172 132 q 299 74 246 74 m 147 899 q 188 1011 149 975 q 281 1047 226 1047 q 338 1035 313 1047 q 401 1001 364 1024 q 452 972 431 982 q 496 963 474 963 q 556 985 532 963 q 581 1050 579 1008 l 636 1050 q 600 939 635 979 q 503 899 565 899 q 448 910 474 899 q 385 944 422 921 q 331 974 353 964 q 286 985 308 985 q 228 963 251 985 q 204 899 206 940 l 147 899 z "},"æ":{"ha":1224,"x_min":64,"x_max":1140,"o":"m 254 -8 q 113 43 161 -8 q 64 182 64 94 l 64 228 q 122 368 64 317 q 292 419 181 419 l 547 419 l 547 519 q 506 626 547 588 q 367 665 465 665 l 125 665 l 125 731 q 241 747 185 742 q 382 753 297 753 q 525 721 464 753 q 611 626 586 689 q 699 722 638 693 q 854 751 761 751 q 1072 697 1004 751 q 1140 504 1140 643 q 1087 378 1140 414 q 922 343 1033 343 l 656 343 q 717 134 654 190 q 896 78 779 78 l 1121 78 l 1121 11 q 850 -8 1011 -8 q 588 142 665 -8 q 441 35 529 78 q 254 -8 353 -8 m 919 417 q 1010 435 981 417 q 1040 506 1040 453 q 997 629 1040 593 q 849 665 954 665 q 731 644 771 665 q 674 572 690 624 q 656 417 657 519 l 919 417 m 297 74 q 440 106 369 74 q 565 197 510 139 q 546 358 547 258 l 310 353 q 206 317 239 351 q 174 229 174 283 l 174 197 q 208 103 174 132 q 297 74 243 74 z "},"ǽ":{"ha":1224,"x_min":64,"x_max":1140,"o":"m 254 -8 q 113 43 161 -8 q 64 182 64 94 l 64 228 q 122 368 64 317 q 292 419 181 419 l 547 419 l 547 519 q 506 626 547 588 q 367 665 465 665 l 125 665 l 125 731 q 241 747 185 742 q 382 753 297 753 q 525 721 464 753 q 611 626 586 689 q 699 722 638 693 q 854 751 761 751 q 1072 697 1004 751 q 1140 504 1140 643 q 1087 378 1140 414 q 922 343 1033 343 l 656 343 q 717 134 654 190 q 896 78 779 78 l 1121 78 l 1121 11 q 850 -8 1011 -8 q 588 142 665 -8 q 441 35 529 78 q 254 -8 353 -8 m 919 417 q 1010 435 981 417 q 1040 506 1040 453 q 997 629 1040 593 q 849 665 954 665 q 731 644 771 665 q 674 572 690 624 q 656 417 657 519 l 919 417 m 297 74 q 440 106 369 74 q 565 197 510 139 q 546 358 547 258 l 310 353 q 206 317 239 351 q 174 229 174 283 l 174 197 q 208 103 174 132 q 297 74 243 74 m 710 1065 l 803 1065 l 629 876 l 565 876 l 710 1065 z "},"b":{"ha":803,"x_min":106,"x_max":724,"o":"m 463 -8 q 215 75 335 -8 l 194 0 l 106 0 l 106 1060 l 215 1060 l 215 674 q 340 729 274 707 q 458 751 406 751 q 659 663 594 751 q 724 365 724 574 q 463 -8 724 -8 m 428 83 q 567 155 519 83 q 614 369 614 226 q 591 549 614 486 q 528 636 568 613 q 428 660 488 660 q 321 644 369 660 q 215 597 272 629 l 215 143 q 317 99 267 115 q 428 83 368 83 z "},"ḃ":{"ha":803,"x_min":106,"x_max":724,"o":"m 463 -8 q 215 75 335 -8 l 194 0 l 106 0 l 106 1060 l 215 1060 l 215 674 q 340 729 274 707 q 458 751 406 751 q 659 663 594 751 q 724 365 724 574 q 463 -8 724 -8 m 428 83 q 567 155 519 83 q 614 369 614 226 q 591 549 614 486 q 528 636 568 613 q 428 660 488 660 q 321 644 369 660 q 215 597 272 629 l 215 143 q 317 99 267 115 q 428 83 368 83 m 133 1194 q 117 1201 124 1194 q 111 1217 111 1207 l 111 1325 q 133 1347 111 1347 l 185 1347 q 200 1341 194 1347 q 206 1325 206 1335 l 206 1217 q 200 1201 206 1207 q 185 1194 194 1194 l 133 1194 z "},"c":{"ha":681,"x_min":79,"x_max":635,"o":"m 375 -8 q 156 74 233 -8 q 79 369 79 157 q 115 601 79 518 q 215 717 150 685 q 378 750 281 750 q 624 731 511 750 l 624 665 l 407 665 q 284 640 331 665 q 213 551 238 615 q 189 367 189 486 q 215 190 189 253 q 288 102 240 126 q 408 78 335 78 l 635 78 l 635 14 q 375 -8 504 -8 z "},"ć":{"ha":681,"x_min":79,"x_max":635,"o":"m 375 -8 q 156 74 233 -8 q 79 369 79 157 q 115 601 79 518 q 215 717 150 685 q 378 750 281 750 q 624 731 511 750 l 624 665 l 407 665 q 284 640 331 665 q 213 551 238 615 q 189 367 189 486 q 215 190 189 253 q 288 102 240 126 q 408 78 335 78 l 635 78 l 635 14 q 375 -8 504 -8 m 475 1065 l 568 1065 l 394 876 l 331 876 l 475 1065 z "},"č":{"ha":681,"x_min":79,"x_max":635,"o":"m 375 -8 q 156 74 233 -8 q 79 369 79 157 q 115 601 79 518 q 215 717 150 685 q 378 750 281 750 q 624 731 511 750 l 624 665 l 407 665 q 284 640 331 665 q 213 551 238 615 q 189 367 189 486 q 215 190 189 253 q 288 102 240 126 q 408 78 335 78 l 635 78 l 635 14 q 375 -8 504 -8 m 181 1064 l 247 1064 l 375 929 l 514 1064 l 581 1064 l 413 876 l 335 876 l 181 1064 z "},"ç":{"ha":681,"x_min":79,"x_max":635,"o":"m 635 14 q 401 -8 508 -7 l 357 -75 q 457 -164 457 -81 q 422 -237 457 -211 q 324 -264 388 -264 l 278 -264 l 278 -218 l 308 -215 q 367 -197 347 -211 q 386 -153 386 -182 q 366 -110 386 -126 q 294 -92 346 -93 l 350 -8 q 150 83 221 -1 q 79 369 79 167 q 115 601 79 518 q 215 717 150 685 q 378 750 281 750 q 624 731 511 750 l 624 665 l 407 665 q 284 640 331 665 q 213 551 238 615 q 189 367 189 486 q 215 190 189 253 q 288 102 240 126 q 408 78 335 78 l 635 78 l 635 14 z "},"ḉ":{"ha":681,"x_min":79,"x_max":635,"o":"m 394 876 l 331 876 l 475 1065 l 568 1065 l 394 876 m 635 14 q 401 -8 508 -7 l 357 -75 q 457 -164 457 -81 q 422 -237 457 -211 q 324 -264 388 -264 l 278 -264 l 278 -218 l 308 -215 q 367 -197 347 -211 q 386 -153 386 -182 q 366 -110 386 -126 q 294 -92 346 -93 l 350 -8 q 150 83 221 -1 q 79 369 79 167 q 115 601 79 518 q 215 717 150 685 q 378 750 281 750 q 624 731 511 750 l 624 665 l 407 665 q 284 640 331 665 q 213 551 238 615 q 189 367 189 486 q 215 190 189 253 q 288 102 240 126 q 408 78 335 78 l 635 78 l 635 14 z "},"ĉ":{"ha":681,"x_min":79,"x_max":635,"o":"m 375 -8 q 156 74 233 -8 q 79 369 79 157 q 115 601 79 518 q 215 717 150 685 q 378 750 281 750 q 624 731 511 750 l 624 665 l 407 665 q 284 640 331 665 q 213 551 238 615 q 189 367 189 486 q 215 190 189 253 q 288 102 240 126 q 408 78 335 78 l 635 78 l 635 14 q 375 -8 504 -8 m 340 1064 l 418 1064 l 571 876 l 504 876 l 378 1011 l 239 876 l 171 876 l 340 1064 z "},"ċ":{"ha":681,"x_min":79,"x_max":635,"o":"m 375 -8 q 156 74 233 -8 q 79 369 79 157 q 115 601 79 518 q 215 717 150 685 q 378 750 281 750 q 624 731 511 750 l 624 665 l 407 665 q 284 640 331 665 q 213 551 238 615 q 189 367 189 486 q 215 190 189 253 q 288 102 240 126 q 408 78 335 78 l 635 78 l 635 14 q 375 -8 504 -8 m 349 917 q 333 923 339 917 q 326 939 326 929 l 326 1047 q 349 1069 326 1069 l 400 1069 q 415 1063 410 1069 q 421 1047 421 1057 l 421 939 q 415 923 421 929 q 400 917 410 917 l 349 917 z "},"d":{"ha":799,"x_min":79,"x_max":697,"o":"m 346 -8 q 144 82 208 -8 q 79 365 79 172 q 107 589 79 504 q 196 713 135 674 q 360 751 257 751 q 588 707 465 751 l 588 1060 l 697 1060 l 697 0 l 608 0 l 588 75 q 481 19 554 46 q 346 -8 407 -8 m 378 82 q 485 99 436 82 q 588 144 535 117 l 588 629 q 481 657 522 649 q 389 665 440 665 q 272 638 315 665 q 209 547 229 611 q 189 369 189 483 q 232 148 189 214 q 378 82 275 82 z "},"ð":{"ha":801,"x_min":79,"x_max":722,"o":"m 722 371 q 688 138 722 219 q 584 24 653 56 q 400 -8 515 -8 q 217 24 286 -8 q 113 137 147 56 q 79 367 79 218 q 115 598 79 517 q 216 710 150 679 q 388 740 282 740 q 511 724 460 740 q 596 671 563 708 q 476 896 561 819 l 254 810 l 239 850 l 435 926 q 206 996 350 982 l 206 1065 q 526 963 411 1053 l 704 1032 l 721 990 l 564 929 q 683 714 643 850 q 722 374 722 578 l 722 372 l 722 371 l 722 371 m 400 82 q 520 102 476 82 q 588 183 564 122 q 611 368 611 244 q 588 551 611 490 q 521 632 565 613 q 400 651 476 651 q 278 632 322 651 q 212 551 235 613 q 189 368 189 490 q 212 183 189 244 q 278 102 235 122 q 400 82 322 82 z "},"ď":{"ha":799,"x_min":79,"x_max":892,"o":"m 346 -8 q 144 82 208 -8 q 79 365 79 172 q 107 589 79 504 q 196 713 135 674 q 360 751 257 751 q 588 707 465 751 l 588 1060 l 697 1060 l 697 0 l 608 0 l 588 75 q 481 19 554 46 q 346 -8 407 -8 m 378 82 q 485 99 436 82 q 588 144 535 117 l 588 629 q 481 657 522 649 q 389 665 440 665 q 272 638 315 665 q 209 547 229 611 q 189 369 189 483 q 232 148 189 214 q 378 82 275 82 m 790 1004 l 790 1088 l 892 1088 l 892 1004 l 883 808 l 799 808 l 790 1004 z "},"đ":{"ha":799,"x_min":79,"x_max":793,"o":"m 793 874 l 697 874 l 697 0 l 608 0 l 588 75 q 481 19 554 46 q 346 -8 407 -8 q 144 82 208 -8 q 79 365 79 172 q 107 589 79 504 q 196 713 135 674 q 360 751 257 751 q 588 707 465 751 l 588 874 l 394 874 l 394 922 l 588 922 l 588 1060 l 697 1060 l 697 922 l 793 922 l 793 874 m 588 629 q 481 657 522 649 q 389 665 440 665 q 272 638 315 665 q 209 547 229 611 q 189 369 189 483 q 232 148 189 214 q 378 82 275 82 q 485 99 436 82 q 588 144 535 117 l 588 629 z "},"ḋ":{"ha":799,"x_min":79,"x_max":697,"o":"m 346 -8 q 144 82 208 -8 q 79 365 79 172 q 107 589 79 504 q 196 713 135 674 q 360 751 257 751 q 588 707 465 751 l 588 1060 l 697 1060 l 697 0 l 608 0 l 588 75 q 481 19 554 46 q 346 -8 407 -8 m 378 82 q 485 99 436 82 q 588 144 535 117 l 588 629 q 481 657 522 649 q 389 665 440 665 q 272 638 315 665 q 209 547 229 611 q 189 369 189 483 q 232 148 189 214 q 378 82 275 82 m 617 1194 q 601 1201 607 1194 q 594 1217 594 1207 l 594 1325 q 617 1347 594 1347 l 668 1347 q 683 1341 678 1347 q 689 1325 689 1335 l 689 1217 q 683 1201 689 1207 q 668 1194 678 1194 l 617 1194 z "},"ḍ":{"ha":799,"x_min":79,"x_max":697,"o":"m 346 -8 q 144 82 208 -8 q 79 365 79 172 q 107 589 79 504 q 196 713 135 674 q 360 751 257 751 q 588 707 465 751 l 588 1060 l 697 1060 l 697 0 l 608 0 l 588 75 q 481 19 554 46 q 346 -8 407 -8 m 378 82 q 485 99 436 82 q 588 144 535 117 l 588 629 q 481 657 522 649 q 389 665 440 665 q 272 638 315 665 q 209 547 229 611 q 189 369 189 483 q 232 148 189 214 q 378 82 275 82 m 368 -292 q 352 -285 358 -292 q 346 -269 346 -279 l 346 -161 q 368 -139 346 -139 l 419 -139 q 435 -145 429 -139 q 442 -161 442 -151 l 442 -269 q 435 -285 442 -279 q 419 -292 429 -292 l 368 -292 z "},"ḏ":{"ha":799,"x_min":79,"x_max":697,"o":"m 346 -8 q 144 82 208 -8 q 79 365 79 172 q 107 589 79 504 q 196 713 135 674 q 360 751 257 751 q 588 707 465 751 l 588 1060 l 697 1060 l 697 0 l 608 0 l 588 75 q 481 19 554 46 q 346 -8 407 -8 m 378 82 q 485 99 436 82 q 588 144 535 117 l 588 629 q 481 657 522 649 q 389 665 440 665 q 272 638 315 665 q 209 547 229 611 q 189 369 189 483 q 232 148 189 214 q 378 82 275 82 m 210 -196 l 578 -196 l 578 -261 l 210 -261 l 210 -196 z "},"e":{"ha":751,"x_min":79,"x_max":672,"o":"m 389 -8 q 203 26 269 -8 q 108 143 138 61 q 79 372 79 225 q 109 603 79 521 q 206 718 139 685 q 390 751 272 751 q 553 729 492 751 q 643 653 614 707 q 672 506 672 600 q 617 369 672 411 q 461 326 563 326 l 189 326 q 208 178 190 231 q 275 102 226 126 q 415 78 324 78 l 654 78 l 654 11 q 521 -3 579 1 q 389 -8 463 -8 m 451 399 q 544 422 515 399 q 574 504 574 446 q 533 633 574 597 q 390 668 492 668 q 267 644 310 668 q 206 564 224 621 q 188 399 188 507 l 451 399 z "},"é":{"ha":751,"x_min":79,"x_max":672,"o":"m 389 -8 q 203 26 269 -8 q 108 143 138 61 q 79 372 79 225 q 109 603 79 521 q 206 718 139 685 q 390 751 272 751 q 553 729 492 751 q 643 653 614 707 q 672 506 672 600 q 617 369 672 411 q 461 326 563 326 l 189 326 q 208 178 190 231 q 275 102 226 126 q 415 78 324 78 l 654 78 l 654 11 q 521 -3 579 1 q 389 -8 463 -8 m 451 399 q 544 422 515 399 q 574 504 574 446 q 533 633 574 597 q 390 668 492 668 q 267 644 310 668 q 206 564 224 621 q 188 399 188 507 l 451 399 m 475 1065 l 568 1065 l 394 876 l 331 876 l 475 1065 z "},"ĕ":{"ha":751,"x_min":79,"x_max":672,"o":"m 389 -8 q 203 26 269 -8 q 108 143 138 61 q 79 372 79 225 q 109 603 79 521 q 206 718 139 685 q 390 751 272 751 q 553 729 492 751 q 643 653 614 707 q 672 506 672 600 q 617 369 672 411 q 461 326 563 326 l 189 326 q 208 178 190 231 q 275 102 226 126 q 415 78 324 78 l 654 78 l 654 11 q 521 -3 579 1 q 389 -8 463 -8 m 451 399 q 544 422 515 399 q 574 504 574 446 q 533 633 574 597 q 390 668 492 668 q 267 644 310 668 q 206 564 224 621 q 188 399 188 507 l 451 399 m 365 874 q 233 921 283 874 q 183 1069 183 968 l 238 1069 q 272 961 238 996 q 361 926 307 926 q 494 1069 494 926 l 549 1069 q 499 919 549 965 q 365 874 449 874 z "},"ě":{"ha":751,"x_min":79,"x_max":672,"o":"m 389 -8 q 203 26 269 -8 q 108 143 138 61 q 79 372 79 225 q 109 603 79 521 q 206 718 139 685 q 390 751 272 751 q 553 729 492 751 q 643 653 614 707 q 672 506 672 600 q 617 369 672 411 q 461 326 563 326 l 189 326 q 208 178 190 231 q 275 102 226 126 q 415 78 324 78 l 654 78 l 654 11 q 521 -3 579 1 q 389 -8 463 -8 m 451 399 q 544 422 515 399 q 574 504 574 446 q 533 633 574 597 q 390 668 492 668 q 267 644 310 668 q 206 564 224 621 q 188 399 188 507 l 451 399 m 181 1064 l 247 1064 l 375 929 l 514 1064 l 581 1064 l 413 876 l 335 876 l 181 1064 z "},"ḝ":{"ha":751,"x_min":79,"x_max":672,"o":"m 365 874 q 233 921 283 874 q 183 1069 183 968 l 238 1069 q 272 961 238 996 q 361 926 307 926 q 494 1069 494 926 l 549 1069 q 499 919 549 965 q 365 874 449 874 m 189 326 q 208 178 190 231 q 275 102 226 126 q 415 78 324 78 l 654 78 l 654 11 q 526 -3 582 1 q 401 -8 469 -8 l 357 -75 q 457 -164 457 -81 q 422 -237 457 -211 q 324 -264 388 -264 l 278 -264 l 278 -218 l 308 -215 q 367 -197 347 -211 q 386 -153 386 -182 q 366 -110 386 -126 q 294 -92 346 -93 l 350 -7 q 189 36 247 -1 q 105 153 131 74 q 79 372 79 233 q 109 603 79 521 q 206 718 139 685 q 390 751 272 751 q 553 729 492 751 q 643 653 614 707 q 672 506 672 600 q 617 369 672 411 q 461 326 563 326 l 189 326 m 390 668 q 267 644 310 668 q 206 564 224 621 q 188 399 188 507 l 451 399 q 544 422 515 399 q 574 504 574 446 q 533 633 574 597 q 390 668 492 668 z "},"ê":{"ha":751,"x_min":79,"x_max":672,"o":"m 389 -8 q 203 26 269 -8 q 108 143 138 61 q 79 372 79 225 q 109 603 79 521 q 206 718 139 685 q 390 751 272 751 q 553 729 492 751 q 643 653 614 707 q 672 506 672 600 q 617 369 672 411 q 461 326 563 326 l 189 326 q 208 178 190 231 q 275 102 226 126 q 415 78 324 78 l 654 78 l 654 11 q 521 -3 579 1 q 389 -8 463 -8 m 451 399 q 544 422 515 399 q 574 504 574 446 q 533 633 574 597 q 390 668 492 668 q 267 644 310 668 q 206 564 224 621 q 188 399 188 507 l 451 399 m 340 1064 l 418 1064 l 571 876 l 504 876 l 378 1011 l 239 876 l 171 876 l 340 1064 z "},"ế":{"ha":751,"x_min":79,"x_max":707,"o":"m 389 -8 q 203 26 269 -8 q 108 143 138 61 q 79 372 79 225 q 109 603 79 521 q 206 718 139 685 q 390 751 272 751 q 553 729 492 751 q 643 653 614 707 q 672 506 672 600 q 617 369 672 411 q 461 326 563 326 l 189 326 q 208 178 190 231 q 275 102 226 126 q 415 78 324 78 l 654 78 l 654 11 q 521 -3 579 1 q 389 -8 463 -8 m 451 399 q 544 422 515 399 q 574 504 574 446 q 533 633 574 597 q 390 668 492 668 q 267 644 310 668 q 206 564 224 621 q 188 399 188 507 l 451 399 m 707 1163 l 556 983 l 492 983 l 613 1163 l 707 1163 m 418 1013 l 571 876 l 504 876 l 376 961 l 238 876 l 171 876 l 339 1013 l 418 1013 z "},"ệ":{"ha":751,"x_min":79,"x_max":672,"o":"m 389 -8 q 203 26 269 -8 q 108 143 138 61 q 79 372 79 225 q 109 603 79 521 q 206 718 139 685 q 390 751 272 751 q 553 729 492 751 q 643 653 614 707 q 672 506 672 600 q 617 369 672 411 q 461 326 563 326 l 189 326 q 208 178 190 231 q 275 102 226 126 q 415 78 324 78 l 654 78 l 654 11 q 521 -3 579 1 q 389 -8 463 -8 m 451 399 q 544 422 515 399 q 574 504 574 446 q 533 633 574 597 q 390 668 492 668 q 267 644 310 668 q 206 564 224 621 q 188 399 188 507 l 451 399 m 340 1064 l 418 1064 l 571 876 l 504 876 l 378 1011 l 239 876 l 171 876 l 340 1064 m 344 -292 q 328 -285 335 -292 q 322 -269 322 -279 l 322 -161 q 344 -139 322 -139 l 396 -139 q 412 -145 406 -139 q 418 -161 418 -151 l 418 -269 q 412 -285 418 -279 q 396 -292 406 -292 l 344 -292 z "},"ề":{"ha":751,"x_min":43,"x_max":672,"o":"m 389 -8 q 203 26 269 -8 q 108 143 138 61 q 79 372 79 225 q 109 603 79 521 q 206 718 139 685 q 390 751 272 751 q 553 729 492 751 q 643 653 614 707 q 672 506 672 600 q 617 369 672 411 q 461 326 563 326 l 189 326 q 208 178 190 231 q 275 102 226 126 q 415 78 324 78 l 654 78 l 654 11 q 521 -3 579 1 q 389 -8 463 -8 m 451 399 q 544 422 515 399 q 574 504 574 446 q 533 633 574 597 q 390 668 492 668 q 267 644 310 668 q 206 564 224 621 q 188 399 188 507 l 451 399 m 138 1163 l 258 983 l 194 983 l 43 1163 l 138 1163 m 418 1013 l 571 876 l 504 876 l 376 961 l 238 876 l 171 876 l 339 1013 l 418 1013 z "},"ể":{"ha":751,"x_min":79,"x_max":672,"o":"m 389 -8 q 203 26 269 -8 q 108 143 138 61 q 79 372 79 225 q 109 603 79 521 q 206 718 139 685 q 390 751 272 751 q 553 729 492 751 q 643 653 614 707 q 672 506 672 600 q 617 369 672 411 q 461 326 563 326 l 189 326 q 208 178 190 231 q 275 102 226 126 q 415 78 324 78 l 654 78 l 654 11 q 521 -3 579 1 q 389 -8 463 -8 m 451 399 q 544 422 515 399 q 574 504 574 446 q 533 633 574 597 q 390 668 492 668 q 267 644 310 668 q 206 564 224 621 q 188 399 188 507 l 451 399 m 524 999 q 576 1028 560 1010 q 593 1069 593 1047 q 535 1121 593 1121 q 486 1113 517 1121 l 486 1154 q 549 1164 514 1164 q 624 1140 599 1164 q 649 1074 649 1115 q 618 999 649 1032 q 524 949 588 967 l 524 999 m 339 1013 l 418 1013 l 571 876 l 504 876 l 376 961 l 238 876 l 171 876 l 339 1013 z "},"ễ":{"ha":751,"x_min":79,"x_max":672,"o":"m 389 -8 q 203 26 269 -8 q 108 143 138 61 q 79 372 79 225 q 109 603 79 521 q 206 718 139 685 q 390 751 272 751 q 553 729 492 751 q 643 653 614 707 q 672 506 672 600 q 617 369 672 411 q 461 326 563 326 l 189 326 q 208 178 190 231 q 275 102 226 126 q 415 78 324 78 l 654 78 l 654 11 q 521 -3 579 1 q 389 -8 463 -8 m 451 399 q 544 422 515 399 q 574 504 574 446 q 533 633 574 597 q 390 668 492 668 q 267 644 310 668 q 206 564 224 621 q 188 399 188 507 l 451 399 m 264 1193 q 315 1185 290 1193 q 374 1161 339 1176 q 463 1135 429 1135 q 517 1151 496 1135 q 538 1196 538 1167 l 593 1196 q 478 1078 589 1078 q 428 1085 451 1078 q 369 1108 404 1093 q 316 1129 338 1122 q 274 1136 294 1136 q 226 1121 244 1136 q 207 1078 207 1106 l 150 1078 q 185 1167 153 1140 q 264 1193 217 1193 m 571 876 l 504 876 l 376 961 l 238 876 l 171 876 l 339 1013 l 418 1013 l 571 876 z "},"ȅ":{"ha":751,"x_min":79,"x_max":672,"o":"m 389 -8 q 203 26 269 -8 q 108 143 138 61 q 79 372 79 225 q 109 603 79 521 q 206 718 139 685 q 390 751 272 751 q 553 729 492 751 q 643 653 614 707 q 672 506 672 600 q 617 369 672 411 q 461 326 563 326 l 189 326 q 208 178 190 231 q 275 102 226 126 q 415 78 324 78 l 654 78 l 654 11 q 521 -3 579 1 q 389 -8 463 -8 m 451 399 q 544 422 515 399 q 574 504 574 446 q 533 633 574 597 q 390 668 492 668 q 267 644 310 668 q 206 564 224 621 q 188 399 188 507 l 451 399 m 96 1065 l 190 1065 l 335 876 l 269 876 l 96 1065 m 299 1065 l 393 1065 l 538 876 l 472 876 l 299 1065 z "},"ë":{"ha":751,"x_min":79,"x_max":672,"o":"m 389 -8 q 203 26 269 -8 q 108 143 138 61 q 79 372 79 225 q 109 603 79 521 q 206 718 139 685 q 390 751 272 751 q 553 729 492 751 q 643 653 614 707 q 672 506 672 600 q 617 369 672 411 q 461 326 563 326 l 189 326 q 208 178 190 231 q 275 102 226 126 q 415 78 324 78 l 654 78 l 654 11 q 521 -3 579 1 q 389 -8 463 -8 m 451 399 q 544 422 515 399 q 574 504 574 446 q 533 633 574 597 q 390 668 492 668 q 267 644 310 668 q 206 564 224 621 q 188 399 188 507 l 451 399 m 213 907 q 197 913 203 907 q 190 929 190 919 l 190 1038 q 213 1060 190 1060 l 263 1060 q 285 1038 285 1060 l 285 929 q 263 907 285 907 l 213 907 m 483 907 q 467 913 474 907 q 461 929 461 919 l 461 1038 q 483 1060 461 1060 l 533 1060 q 556 1038 556 1060 l 556 929 q 533 907 556 907 l 483 907 z "},"ė":{"ha":751,"x_min":79,"x_max":672,"o":"m 389 -8 q 203 26 269 -8 q 108 143 138 61 q 79 372 79 225 q 109 603 79 521 q 206 718 139 685 q 390 751 272 751 q 553 729 492 751 q 643 653 614 707 q 672 506 672 600 q 617 369 672 411 q 461 326 563 326 l 189 326 q 208 178 190 231 q 275 102 226 126 q 415 78 324 78 l 654 78 l 654 11 q 521 -3 579 1 q 389 -8 463 -8 m 451 399 q 544 422 515 399 q 574 504 574 446 q 533 633 574 597 q 390 668 492 668 q 267 644 310 668 q 206 564 224 621 q 188 399 188 507 l 451 399 m 349 917 q 333 923 339 917 q 326 939 326 929 l 326 1047 q 349 1069 326 1069 l 400 1069 q 415 1063 410 1069 q 421 1047 421 1057 l 421 939 q 415 923 421 929 q 400 917 410 917 l 349 917 z "},"ẹ":{"ha":751,"x_min":79,"x_max":672,"o":"m 389 -8 q 203 26 269 -8 q 108 143 138 61 q 79 372 79 225 q 109 603 79 521 q 206 718 139 685 q 390 751 272 751 q 553 729 492 751 q 643 653 614 707 q 672 506 672 600 q 617 369 672 411 q 461 326 563 326 l 189 326 q 208 178 190 231 q 275 102 226 126 q 415 78 324 78 l 654 78 l 654 11 q 521 -3 579 1 q 389 -8 463 -8 m 451 399 q 544 422 515 399 q 574 504 574 446 q 533 633 574 597 q 390 668 492 668 q 267 644 310 668 q 206 564 224 621 q 188 399 188 507 l 451 399 m 344 -292 q 328 -285 335 -292 q 322 -269 322 -279 l 322 -161 q 344 -139 322 -139 l 396 -139 q 412 -145 406 -139 q 418 -161 418 -151 l 418 -269 q 412 -285 418 -279 q 396 -292 406 -292 l 344 -292 z "},"è":{"ha":751,"x_min":79,"x_max":672,"o":"m 389 -8 q 203 26 269 -8 q 108 143 138 61 q 79 372 79 225 q 109 603 79 521 q 206 718 139 685 q 390 751 272 751 q 553 729 492 751 q 643 653 614 707 q 672 506 672 600 q 617 369 672 411 q 461 326 563 326 l 189 326 q 208 178 190 231 q 275 102 226 126 q 415 78 324 78 l 654 78 l 654 11 q 521 -3 579 1 q 389 -8 463 -8 m 451 399 q 544 422 515 399 q 574 504 574 446 q 533 633 574 597 q 390 668 492 668 q 267 644 310 668 q 206 564 224 621 q 188 399 188 507 l 451 399 m 196 1065 l 289 1065 l 433 876 l 369 876 l 196 1065 z "},"ẻ":{"ha":751,"x_min":79,"x_max":672,"o":"m 389 -8 q 203 26 269 -8 q 108 143 138 61 q 79 372 79 225 q 109 603 79 521 q 206 718 139 685 q 390 751 272 751 q 553 729 492 751 q 643 653 614 707 q 672 506 672 600 q 617 369 672 411 q 461 326 563 326 l 189 326 q 208 178 190 231 q 275 102 226 126 q 415 78 324 78 l 654 78 l 654 11 q 521 -3 579 1 q 389 -8 463 -8 m 451 399 q 544 422 515 399 q 574 504 574 446 q 533 633 574 597 q 390 668 492 668 q 267 644 310 668 q 206 564 224 621 q 188 399 188 507 l 451 399 m 350 889 q 428 971 428 913 q 361 1032 428 1032 q 311 1024 336 1032 l 311 1071 q 375 1079 336 1079 q 460 1051 432 1079 q 488 972 488 1022 q 453 892 488 926 q 350 838 419 858 l 350 889 z "},"ȇ":{"ha":751,"x_min":79,"x_max":672,"o":"m 389 -8 q 203 26 269 -8 q 108 143 138 61 q 79 372 79 225 q 109 603 79 521 q 206 718 139 685 q 390 751 272 751 q 553 729 492 751 q 643 653 614 707 q 672 506 672 600 q 617 369 672 411 q 461 326 563 326 l 189 326 q 208 178 190 231 q 275 102 226 126 q 415 78 324 78 l 654 78 l 654 11 q 521 -3 579 1 q 389 -8 463 -8 m 451 399 q 544 422 515 399 q 574 504 574 446 q 533 633 574 597 q 390 668 492 668 q 267 644 310 668 q 206 564 224 621 q 188 399 188 507 l 451 399 m 372 1071 q 504 1024 454 1071 q 554 875 554 976 l 500 875 q 465 984 500 950 q 376 1018 431 1018 q 243 875 243 1018 l 189 875 q 239 1025 189 979 q 372 1071 289 1071 z "},"ē":{"ha":751,"x_min":79,"x_max":672,"o":"m 389 -8 q 203 26 269 -8 q 108 143 138 61 q 79 372 79 225 q 109 603 79 521 q 206 718 139 685 q 390 751 272 751 q 553 729 492 751 q 643 653 614 707 q 672 506 672 600 q 617 369 672 411 q 461 326 563 326 l 189 326 q 208 178 190 231 q 275 102 226 126 q 415 78 324 78 l 654 78 l 654 11 q 521 -3 579 1 q 389 -8 463 -8 m 451 399 q 544 422 515 399 q 574 504 574 446 q 533 633 574 597 q 390 668 492 668 q 267 644 310 668 q 206 564 224 621 q 188 399 188 507 l 451 399 m 188 999 l 556 999 l 556 933 l 188 933 l 188 999 z "},"ḗ":{"ha":751,"x_min":79,"x_max":672,"o":"m 389 -8 q 203 26 269 -8 q 108 143 138 61 q 79 372 79 225 q 109 603 79 521 q 206 718 139 685 q 390 751 272 751 q 553 729 492 751 q 643 653 614 707 q 672 506 672 600 q 617 369 672 411 q 461 326 563 326 l 189 326 q 208 178 190 231 q 275 102 226 126 q 415 78 324 78 l 654 78 l 654 11 q 521 -3 579 1 q 389 -8 463 -8 m 451 399 q 544 422 515 399 q 574 504 574 446 q 533 633 574 597 q 390 668 492 668 q 267 644 310 668 q 206 564 224 621 q 188 399 188 507 l 451 399 m 188 999 l 556 999 l 556 933 l 188 933 l 188 999 m 471 1242 l 564 1242 l 390 1053 l 326 1053 l 471 1242 z "},"ḕ":{"ha":751,"x_min":79,"x_max":672,"o":"m 389 -8 q 203 26 269 -8 q 108 143 138 61 q 79 372 79 225 q 109 603 79 521 q 206 718 139 685 q 390 751 272 751 q 553 729 492 751 q 643 653 614 707 q 672 506 672 600 q 617 369 672 411 q 461 326 563 326 l 189 326 q 208 178 190 231 q 275 102 226 126 q 415 78 324 78 l 654 78 l 654 11 q 521 -3 579 1 q 389 -8 463 -8 m 451 399 q 544 422 515 399 q 574 504 574 446 q 533 633 574 597 q 390 668 492 668 q 267 644 310 668 q 206 564 224 621 q 188 399 188 507 l 451 399 m 188 999 l 556 999 l 556 933 l 188 933 l 188 999 m 182 1242 l 275 1242 l 419 1053 l 356 1053 l 182 1242 z "},"ę":{"ha":751,"x_min":79,"x_max":689,"o":"m 689 -169 l 689 -222 q 653 -226 674 -226 q 546 -192 585 -226 q 507 -103 507 -157 q 558 0 507 -43 q 389 -8 482 -8 q 203 26 269 -8 q 108 143 138 61 q 79 372 79 225 q 109 603 79 521 q 206 718 139 685 q 390 751 272 751 q 553 729 492 751 q 643 653 614 707 q 672 506 672 600 q 617 369 672 411 q 461 326 563 326 l 189 326 q 208 178 190 231 q 275 102 226 126 q 415 78 324 78 l 654 78 l 654 11 l 613 6 q 565 -79 565 -33 q 596 -145 565 -121 q 681 -169 626 -169 l 689 -169 m 390 668 q 267 644 310 668 q 206 564 224 621 q 188 399 188 507 l 451 399 q 544 422 515 399 q 574 504 574 446 q 533 633 574 597 q 390 668 492 668 z "},"ẽ":{"ha":751,"x_min":79,"x_max":672,"o":"m 389 -8 q 203 26 269 -8 q 108 143 138 61 q 79 372 79 225 q 109 603 79 521 q 206 718 139 685 q 390 751 272 751 q 553 729 492 751 q 643 653 614 707 q 672 506 672 600 q 617 369 672 411 q 461 326 563 326 l 189 326 q 208 178 190 231 q 275 102 226 126 q 415 78 324 78 l 654 78 l 654 11 q 521 -3 579 1 q 389 -8 463 -8 m 451 399 q 544 422 515 399 q 574 504 574 446 q 533 633 574 597 q 390 668 492 668 q 267 644 310 668 q 206 564 224 621 q 188 399 188 507 l 451 399 m 147 899 q 188 1011 149 975 q 281 1047 226 1047 q 338 1035 313 1047 q 401 1001 364 1024 q 452 972 431 982 q 496 963 474 963 q 556 985 532 963 q 581 1050 579 1008 l 636 1050 q 600 939 635 979 q 503 899 565 899 q 448 910 474 899 q 385 944 422 921 q 331 974 353 964 q 286 985 308 985 q 228 963 251 985 q 204 899 206 940 l 147 899 z "},"ə":{"ha":751,"x_min":79,"x_max":672,"o":"m 363 751 q 548 717 482 751 q 643 600 614 682 q 672 371 672 518 q 642 140 672 222 q 546 25 613 58 q 361 -8 479 -8 q 199 14 260 -8 q 108 90 138 36 q 79 238 79 143 q 134 374 79 332 q 290 417 189 417 l 563 417 q 543 565 561 513 q 476 641 525 617 q 336 665 428 665 l 97 665 l 97 732 q 231 747 172 742 q 363 751 289 751 m 300 344 q 207 321 236 344 q 178 239 178 297 q 219 110 178 146 q 361 75 260 75 q 485 99 442 75 q 546 179 528 122 q 564 344 564 236 l 300 344 z "},"f":{"ha":511,"x_min":32,"x_max":501,"o":"m 146 651 l 32 651 l 32 722 l 146 742 l 146 826 q 194 1009 146 950 q 358 1068 242 1068 q 501 1054 429 1068 l 501 976 l 378 976 q 281 942 307 976 q 256 832 256 908 l 256 742 l 486 742 l 486 651 l 256 651 l 256 0 l 146 0 l 146 651 z "},"ḟ":{"ha":511,"x_min":32,"x_max":501,"o":"m 146 651 l 32 651 l 32 722 l 146 742 l 146 826 q 194 1009 146 950 q 358 1068 242 1068 q 501 1054 429 1068 l 501 976 l 378 976 q 281 942 307 976 q 256 832 256 908 l 256 742 l 486 742 l 486 651 l 256 651 l 256 0 l 146 0 l 146 651 m 335 1208 q 319 1215 325 1208 q 313 1231 313 1221 l 313 1339 q 335 1361 313 1361 l 386 1361 q 401 1355 396 1361 q 407 1339 407 1349 l 407 1231 q 401 1215 407 1221 q 386 1208 396 1208 l 335 1208 z "},"g":{"ha":800,"x_min":43,"x_max":768,"o":"m 768 681 l 601 667 q 648 630 629 649 q 681 573 667 611 q 696 476 696 535 q 633 315 696 379 q 433 251 571 251 l 315 251 q 221 233 253 251 q 189 172 189 215 q 212 126 189 142 q 267 111 235 111 l 513 111 q 705 61 642 111 q 768 -93 768 11 l 768 -124 q 698 -283 768 -226 q 494 -340 628 -340 l 288 -340 q 109 -294 175 -340 q 43 -157 43 -247 l 43 -124 q 76 -19 43 -62 q 164 47 110 24 q 111 92 129 64 q 93 157 93 121 q 218 289 93 263 q 116 376 146 318 q 86 504 86 433 q 372 743 86 743 l 768 743 l 768 681 m 422 336 q 558 378 519 336 q 596 489 596 419 q 435 657 596 657 l 356 657 q 229 620 272 657 q 186 499 186 583 q 339 336 186 336 l 422 336 m 307 25 q 194 -8 240 25 q 147 -106 147 -40 l 147 -136 q 313 -260 147 -260 l 485 -260 q 617 -227 571 -260 q 664 -128 664 -194 l 664 -100 q 626 -8 664 -40 q 499 25 589 25 l 307 25 z "},"ğ":{"ha":800,"x_min":43,"x_max":768,"o":"m 768 681 l 601 667 q 648 630 629 649 q 681 573 667 611 q 696 476 696 535 q 633 315 696 379 q 433 251 571 251 l 315 251 q 221 233 253 251 q 189 172 189 215 q 212 126 189 142 q 267 111 235 111 l 513 111 q 705 61 642 111 q 768 -93 768 11 l 768 -124 q 698 -283 768 -226 q 494 -340 628 -340 l 288 -340 q 109 -294 175 -340 q 43 -157 43 -247 l 43 -124 q 76 -19 43 -62 q 164 47 110 24 q 111 92 129 64 q 93 157 93 121 q 218 289 93 263 q 116 376 146 318 q 86 504 86 433 q 372 743 86 743 l 768 743 l 768 681 m 422 336 q 558 378 519 336 q 596 489 596 419 q 435 657 596 657 l 356 657 q 229 620 272 657 q 186 499 186 583 q 339 336 186 336 l 422 336 m 307 25 q 194 -8 240 25 q 147 -106 147 -40 l 147 -136 q 313 -260 147 -260 l 485 -260 q 617 -227 571 -260 q 664 -128 664 -194 l 664 -100 q 626 -8 664 -40 q 499 25 589 25 l 307 25 m 392 874 q 260 921 310 874 q 210 1069 210 968 l 264 1069 q 299 961 264 996 q 388 926 333 926 q 521 1069 521 926 l 575 1069 q 525 919 575 965 q 392 874 475 874 z "},"ǧ":{"ha":800,"x_min":43,"x_max":768,"o":"m 768 681 l 601 667 q 648 630 629 649 q 681 573 667 611 q 696 476 696 535 q 633 315 696 379 q 433 251 571 251 l 315 251 q 221 233 253 251 q 189 172 189 215 q 212 126 189 142 q 267 111 235 111 l 513 111 q 705 61 642 111 q 768 -93 768 11 l 768 -124 q 698 -283 768 -226 q 494 -340 628 -340 l 288 -340 q 109 -294 175 -340 q 43 -157 43 -247 l 43 -124 q 76 -19 43 -62 q 164 47 110 24 q 111 92 129 64 q 93 157 93 121 q 218 289 93 263 q 116 376 146 318 q 86 504 86 433 q 372 743 86 743 l 768 743 l 768 681 m 422 336 q 558 378 519 336 q 596 489 596 419 q 435 657 596 657 l 356 657 q 229 620 272 657 q 186 499 186 583 q 339 336 186 336 l 422 336 m 307 25 q 194 -8 240 25 q 147 -106 147 -40 l 147 -136 q 313 -260 147 -260 l 485 -260 q 617 -227 571 -260 q 664 -128 664 -194 l 664 -100 q 626 -8 664 -40 q 499 25 589 25 l 307 25 m 207 1064 l 274 1064 l 401 929 l 540 1064 l 607 1064 l 439 876 l 361 876 l 207 1064 z "},"ĝ":{"ha":800,"x_min":43,"x_max":768,"o":"m 768 681 l 601 667 q 648 630 629 649 q 681 573 667 611 q 696 476 696 535 q 633 315 696 379 q 433 251 571 251 l 315 251 q 221 233 253 251 q 189 172 189 215 q 212 126 189 142 q 267 111 235 111 l 513 111 q 705 61 642 111 q 768 -93 768 11 l 768 -124 q 698 -283 768 -226 q 494 -340 628 -340 l 288 -340 q 109 -294 175 -340 q 43 -157 43 -247 l 43 -124 q 76 -19 43 -62 q 164 47 110 24 q 111 92 129 64 q 93 157 93 121 q 218 289 93 263 q 116 376 146 318 q 86 504 86 433 q 372 743 86 743 l 768 743 l 768 681 m 422 336 q 558 378 519 336 q 596 489 596 419 q 435 657 596 657 l 356 657 q 229 620 272 657 q 186 499 186 583 q 339 336 186 336 l 422 336 m 307 25 q 194 -8 240 25 q 147 -106 147 -40 l 147 -136 q 313 -260 147 -260 l 485 -260 q 617 -227 571 -260 q 664 -128 664 -194 l 664 -100 q 626 -8 664 -40 q 499 25 589 25 l 307 25 m 367 1064 l 444 1064 l 597 876 l 531 876 l 404 1011 l 265 876 l 197 876 l 367 1064 z "},"ģ":{"ha":800,"x_min":43,"x_max":768,"o":"m 768 681 l 601 667 q 648 630 629 649 q 681 573 667 611 q 696 476 696 535 q 633 315 696 379 q 433 251 571 251 l 315 251 q 221 233 253 251 q 189 172 189 215 q 212 126 189 142 q 267 111 235 111 l 513 111 q 705 61 642 111 q 768 -93 768 11 l 768 -124 q 698 -283 768 -226 q 494 -340 628 -340 l 288 -340 q 109 -294 175 -340 q 43 -157 43 -247 l 43 -124 q 76 -19 43 -62 q 164 47 110 24 q 111 92 129 64 q 93 157 93 121 q 218 289 93 263 q 116 376 146 318 q 86 504 86 433 q 372 743 86 743 l 768 743 l 768 681 m 422 336 q 558 378 519 336 q 596 489 596 419 q 435 657 596 657 l 356 657 q 229 620 272 657 q 186 499 186 583 q 339 336 186 336 l 422 336 m 307 25 q 194 -8 240 25 q 147 -106 147 -40 l 147 -136 q 313 -260 147 -260 l 485 -260 q 617 -227 571 -260 q 664 -128 664 -194 l 664 -100 q 626 -8 664 -40 q 499 25 589 25 l 307 25 m 328 853 q 340 967 328 926 q 385 1027 353 1008 q 479 1046 418 1046 l 532 1046 l 532 1001 l 490 994 q 435 978 454 989 q 406 939 415 968 q 396 853 396 910 l 328 853 z "},"ġ":{"ha":800,"x_min":43,"x_max":768,"o":"m 768 681 l 601 667 q 648 630 629 649 q 681 573 667 611 q 696 476 696 535 q 633 315 696 379 q 433 251 571 251 l 315 251 q 221 233 253 251 q 189 172 189 215 q 212 126 189 142 q 267 111 235 111 l 513 111 q 705 61 642 111 q 768 -93 768 11 l 768 -124 q 698 -283 768 -226 q 494 -340 628 -340 l 288 -340 q 109 -294 175 -340 q 43 -157 43 -247 l 43 -124 q 76 -19 43 -62 q 164 47 110 24 q 111 92 129 64 q 93 157 93 121 q 218 289 93 263 q 116 376 146 318 q 86 504 86 433 q 372 743 86 743 l 768 743 l 768 681 m 422 336 q 558 378 519 336 q 596 489 596 419 q 435 657 596 657 l 356 657 q 229 620 272 657 q 186 499 186 583 q 339 336 186 336 l 422 336 m 307 25 q 194 -8 240 25 q 147 -106 147 -40 l 147 -136 q 313 -260 147 -260 l 485 -260 q 617 -227 571 -260 q 664 -128 664 -194 l 664 -100 q 626 -8 664 -40 q 499 25 589 25 l 307 25 m 375 917 q 359 923 365 917 q 353 939 353 929 l 353 1047 q 375 1069 353 1069 l 426 1069 q 442 1063 436 1069 q 447 1047 447 1057 l 447 939 q 442 923 447 929 q 426 917 436 917 l 375 917 z "},"ḡ":{"ha":800,"x_min":43,"x_max":768,"o":"m 768 681 l 601 667 q 648 630 629 649 q 681 573 667 611 q 696 476 696 535 q 633 315 696 379 q 433 251 571 251 l 315 251 q 221 233 253 251 q 189 172 189 215 q 212 126 189 142 q 267 111 235 111 l 513 111 q 705 61 642 111 q 768 -93 768 11 l 768 -124 q 698 -283 768 -226 q 494 -340 628 -340 l 288 -340 q 109 -294 175 -340 q 43 -157 43 -247 l 43 -124 q 76 -19 43 -62 q 164 47 110 24 q 111 92 129 64 q 93 157 93 121 q 218 289 93 263 q 116 376 146 318 q 86 504 86 433 q 372 743 86 743 l 768 743 l 768 681 m 422 336 q 558 378 519 336 q 596 489 596 419 q 435 657 596 657 l 356 657 q 229 620 272 657 q 186 499 186 583 q 339 336 186 336 l 422 336 m 307 25 q 194 -8 240 25 q 147 -106 147 -40 l 147 -136 q 313 -260 147 -260 l 485 -260 q 617 -227 571 -260 q 664 -128 664 -194 l 664 -100 q 626 -8 664 -40 q 499 25 589 25 l 307 25 m 214 999 l 582 999 l 582 933 l 214 933 l 214 999 z "},"h":{"ha":817,"x_min":106,"x_max":715,"o":"m 106 1060 l 215 1060 l 215 660 q 344 727 272 700 q 488 754 415 754 q 658 685 600 754 q 715 506 715 615 l 715 0 l 606 0 l 606 493 q 564 609 606 564 q 451 654 522 654 q 333 637 385 654 q 215 582 281 619 l 215 0 l 106 0 l 106 1060 z "},"ħ":{"ha":817,"x_min":6,"x_max":715,"o":"m 488 754 q 658 685 600 754 q 715 506 715 615 l 715 0 l 606 0 l 606 493 q 564 609 606 564 q 451 654 522 654 q 333 637 385 654 q 215 582 281 619 l 215 0 l 106 0 l 106 874 l 6 874 l 6 922 l 106 922 l 106 1060 l 215 1060 l 215 922 l 404 922 l 404 874 l 215 874 l 215 660 q 344 727 272 700 q 488 754 415 754 z "},"ḫ":{"ha":817,"x_min":106,"x_max":715,"o":"m 106 1060 l 215 1060 l 215 660 q 344 727 272 700 q 488 754 415 754 q 658 685 600 754 q 715 506 715 615 l 715 0 l 606 0 l 606 493 q 564 609 606 564 q 451 654 522 654 q 333 637 385 654 q 215 582 281 619 l 215 0 l 106 0 l 106 1060 m 404 -307 q 272 -260 322 -307 q 222 -111 222 -212 l 276 -111 q 310 -220 276 -186 q 400 -254 344 -254 q 533 -111 533 -254 l 588 -111 q 538 -261 588 -215 q 404 -307 488 -307 z "},"ĥ":{"ha":817,"x_min":22,"x_max":715,"o":"m 106 1060 l 215 1060 l 215 660 q 344 727 272 700 q 488 754 415 754 q 658 685 600 754 q 715 506 715 615 l 715 0 l 606 0 l 606 493 q 564 609 606 564 q 451 654 522 654 q 333 637 385 654 q 215 582 281 619 l 215 0 l 106 0 l 106 1060 m 192 1314 l 269 1314 l 422 1126 l 356 1126 l 229 1261 l 90 1126 l 22 1126 l 192 1314 z "},"ḥ":{"ha":817,"x_min":106,"x_max":715,"o":"m 106 1060 l 215 1060 l 215 660 q 344 727 272 700 q 488 754 415 754 q 658 685 600 754 q 715 506 715 615 l 715 0 l 606 0 l 606 493 q 564 609 606 564 q 451 654 522 654 q 333 637 385 654 q 215 582 281 619 l 215 0 l 106 0 l 106 1060 m 379 -292 q 363 -285 369 -292 q 357 -269 357 -279 l 357 -161 q 379 -139 357 -139 l 431 -139 q 447 -145 440 -139 q 453 -161 453 -151 l 453 -269 q 447 -285 453 -279 q 431 -292 440 -292 l 379 -292 z "},"i":{"ha":321,"x_min":100,"x_max":221,"o":"m 122 874 q 106 880 113 874 q 100 896 100 886 l 100 1004 q 122 1026 100 1026 l 200 1026 q 221 1004 221 1026 l 221 896 q 200 874 221 874 l 122 874 m 106 742 l 215 742 l 215 0 l 106 0 l 106 742 z "},"ı":{"ha":317,"x_min":106,"x_max":215,"o":"m 106 742 l 215 742 l 215 0 l 106 0 l 106 742 z "},"í":{"ha":317,"x_min":106,"x_max":353,"o":"m 106 742 l 215 742 l 215 0 l 106 0 l 106 742 m 260 1065 l 353 1065 l 179 876 l 115 876 l 260 1065 z "},"ĭ":{"ha":317,"x_min":-32,"x_max":333,"o":"m 106 742 l 215 742 l 215 0 l 106 0 l 106 742 m 150 874 q 18 921 68 874 q -32 1069 -32 968 l 22 1069 q 57 961 22 996 q 146 926 92 926 q 279 1069 279 926 l 333 1069 q 283 919 333 965 q 150 874 233 874 z "},"î":{"ha":317,"x_min":-44,"x_max":356,"o":"m 106 742 l 215 742 l 215 0 l 106 0 l 106 742 m 125 1064 l 203 1064 l 356 876 l 289 876 l 163 1011 l 24 876 l -44 876 l 125 1064 z "},"ȉ":{"ha":317,"x_min":-119,"x_max":322,"o":"m 106 742 l 215 742 l 215 0 l 106 0 l 106 742 m -119 1065 l -25 1065 l 119 876 l 54 876 l -119 1065 m 83 1065 l 178 1065 l 322 876 l 257 876 l 83 1065 z "},"ï":{"ha":317,"x_min":-25,"x_max":340,"o":"m 106 742 l 215 742 l 215 0 l 106 0 l 106 742 m -3 907 q -19 913 -12 907 q -25 929 -25 919 l -25 1038 q -3 1060 -25 1060 l 47 1060 q 69 1038 69 1060 l 69 929 q 47 907 69 907 l -3 907 m 268 907 q 252 913 258 907 q 246 929 246 919 l 246 1038 q 268 1060 246 1060 l 318 1060 q 340 1038 340 1060 l 340 929 q 318 907 340 907 l 268 907 z "},"ḯ":{"ha":317,"x_min":-25,"x_max":349,"o":"m 106 742 l 215 742 l 215 0 l 106 0 l 106 742 m -3 907 q -19 913 -12 907 q -25 929 -25 919 l -25 1038 q -3 1060 -25 1060 l 47 1060 q 69 1038 69 1060 l 69 929 q 47 907 69 907 l -3 907 m 268 907 q 252 913 258 907 q 246 929 246 919 l 246 1038 q 268 1060 246 1060 l 318 1060 q 340 1038 340 1060 l 340 929 q 318 907 340 907 l 268 907 m 256 1296 l 349 1296 l 175 1107 l 111 1107 l 256 1296 z "},"ị":{"ha":321,"x_min":100,"x_max":221,"o":"m 122 874 q 106 880 113 874 q 100 896 100 886 l 100 1004 q 122 1026 100 1026 l 200 1026 q 221 1004 221 1026 l 221 896 q 200 874 221 874 l 122 874 m 106 742 l 215 742 l 215 0 l 106 0 l 106 742 m 129 -292 q 113 -285 119 -292 q 107 -269 107 -279 l 107 -161 q 129 -139 107 -139 l 181 -139 q 197 -145 190 -139 q 203 -161 203 -151 l 203 -269 q 197 -285 203 -279 q 181 -292 190 -292 l 129 -292 z "},"ì":{"ha":317,"x_min":-19,"x_max":218,"o":"m 106 742 l 215 742 l 215 0 l 106 0 l 106 742 m -19 1065 l 74 1065 l 218 876 l 154 876 l -19 1065 z "},"ỉ":{"ha":317,"x_min":96,"x_max":272,"o":"m 106 742 l 215 742 l 215 0 l 106 0 l 106 742 m 135 889 q 213 971 213 913 q 146 1032 213 1032 q 96 1024 121 1032 l 96 1071 q 160 1079 121 1079 q 244 1051 217 1079 q 272 972 272 1022 q 238 892 272 926 q 135 838 204 858 l 135 889 z "},"ȋ":{"ha":317,"x_min":-26,"x_max":339,"o":"m 106 742 l 215 742 l 215 0 l 106 0 l 106 742 m 157 1071 q 289 1024 239 1071 q 339 875 339 976 l 285 875 q 250 984 285 950 q 161 1018 215 1018 q 28 875 28 1018 l -26 875 q 24 1025 -26 979 q 157 1071 74 1071 z "},"ī":{"ha":317,"x_min":-28,"x_max":340,"o":"m 106 742 l 215 742 l 215 0 l 106 0 l 106 742 m -28 999 l 340 999 l 340 933 l -28 933 l -28 999 z "},"į":{"ha":321,"x_min":69,"x_max":251,"o":"m 122 874 q 106 880 113 874 q 100 896 100 886 l 100 1004 q 122 1026 100 1026 l 200 1026 q 221 1004 221 1026 l 221 896 q 200 874 221 874 l 122 874 m 106 742 l 215 742 l 215 0 l 106 0 l 106 742 m 215 -260 q 108 -225 147 -260 q 69 -136 69 -190 q 96 -60 69 -94 q 174 0 122 -25 l 215 0 q 128 -112 128 -49 q 158 -178 128 -154 q 243 -203 189 -203 l 251 -203 l 251 -256 q 215 -260 236 -260 z "},"ĩ":{"ha":317,"x_min":-68,"x_max":421,"o":"m 106 742 l 215 742 l 215 0 l 106 0 l 106 742 m -68 899 q -28 1011 -67 975 q 65 1047 11 1047 q 123 1035 97 1047 q 186 1001 149 1024 q 237 972 215 982 q 281 963 258 963 q 340 985 317 963 q 365 1050 364 1008 l 421 1050 q 385 939 419 979 q 288 899 350 899 q 233 910 258 899 q 169 944 207 921 q 115 974 138 964 q 71 985 93 985 q 13 963 36 985 q -11 899 -10 940 l -68 899 z "},"j":{"ha":321,"x_min":99,"x_max":221,"o":"m 121 874 q 105 880 111 874 q 99 896 99 886 l 99 1004 q 121 1026 99 1026 l 200 1026 q 215 1020 210 1026 q 221 1004 221 1014 l 221 896 q 215 880 221 886 q 200 874 210 874 l 121 874 m 106 742 l 215 742 l 215 24 q 208 -167 215 -72 q 188 -329 200 -261 l 106 -329 l 106 742 z "},"ȷ":{"ha":321,"x_min":106,"x_max":215,"o":"m 106 742 l 215 742 l 215 24 q 208 -167 215 -72 q 188 -329 200 -261 l 106 -329 l 106 742 z "},"ĵ":{"ha":321,"x_min":-44,"x_max":356,"o":"m 106 742 l 215 742 l 215 24 q 208 -167 215 -72 q 188 -329 200 -261 l 106 -329 l 106 742 m 125 1064 l 203 1064 l 356 876 l 289 876 l 163 1011 l 24 876 l -44 876 l 125 1064 z "},"k":{"ha":703,"x_min":106,"x_max":681,"o":"m 106 1060 l 215 1060 l 215 446 l 321 446 l 547 742 l 664 742 l 403 396 l 681 0 l 564 0 l 317 347 l 215 347 l 215 0 l 106 0 l 106 1060 z "},"ķ":{"ha":703,"x_min":106,"x_max":681,"o":"m 106 1060 l 215 1060 l 215 446 l 321 446 l 547 742 l 664 742 l 403 396 l 681 0 l 564 0 l 317 347 l 215 347 l 215 0 l 106 0 l 106 1060 m 242 -236 l 283 -229 q 339 -213 319 -224 q 368 -174 358 -203 q 378 -87 378 -144 l 446 -87 q 433 -201 446 -160 q 388 -261 421 -242 q 294 -281 356 -281 l 242 -281 l 242 -236 z "},"ĸ":{"ha":703,"x_min":106,"x_max":681,"o":"m 106 750 l 215 750 l 215 440 l 318 440 l 544 742 l 664 742 l 403 389 l 681 0 l 563 0 l 318 340 l 215 340 l 215 0 l 106 0 l 106 750 z "},"l":{"ha":408,"x_min":106,"x_max":394,"o":"m 300 -1 q 153 53 201 -1 q 106 238 106 107 l 106 1060 l 215 1060 l 215 251 q 240 126 215 160 q 319 86 265 93 l 394 78 l 394 -1 l 300 -1 z "},"ĺ":{"ha":408,"x_min":106,"x_max":394,"o":"m 300 -1 q 153 53 201 -1 q 106 238 106 107 l 106 1060 l 215 1060 l 215 251 q 240 126 215 160 q 319 86 265 93 l 394 78 l 394 -1 l 300 -1 m 260 1390 l 353 1390 l 179 1201 l 115 1201 l 260 1390 z "},"ľ":{"ha":408,"x_min":106,"x_max":410,"o":"m 300 -1 q 153 53 201 -1 q 106 238 106 107 l 106 1060 l 215 1060 l 215 251 q 240 126 215 160 q 319 86 265 93 l 394 78 l 394 -1 l 300 -1 m 308 1004 l 308 1088 l 410 1088 l 410 1004 l 401 808 l 317 808 l 308 1004 z "},"ļ":{"ha":408,"x_min":106,"x_max":394,"o":"m 300 -1 q 153 53 201 -1 q 106 238 106 107 l 106 1060 l 215 1060 l 215 251 q 240 126 215 160 q 319 86 265 93 l 394 78 l 394 -1 l 300 -1 m 115 -236 l 157 -229 q 213 -213 193 -224 q 242 -174 232 -203 q 251 -87 251 -144 l 319 -87 q 307 -201 319 -160 q 262 -261 294 -242 q 168 -281 229 -281 l 115 -281 l 115 -236 z "},"ŀ":{"ha":447,"x_min":106,"x_max":439,"o":"m 300 -1 q 153 53 201 -1 q 106 238 106 107 l 106 1060 l 215 1060 l 215 251 q 240 126 215 160 q 319 86 265 93 l 394 78 l 394 -1 l 300 -1 m 354 471 q 338 476 344 471 q 332 492 332 482 l 332 557 q 354 579 332 579 l 415 579 q 439 557 439 579 l 439 492 q 415 471 439 471 l 354 471 z "},"ḷ":{"ha":408,"x_min":106,"x_max":394,"o":"m 300 -1 q 153 53 201 -1 q 106 238 106 107 l 106 1060 l 215 1060 l 215 251 q 240 126 215 160 q 319 86 265 93 l 394 78 l 394 -1 l 300 -1 m 200 -292 q 184 -285 190 -292 q 178 -269 178 -279 l 178 -161 q 200 -139 178 -139 l 251 -139 q 267 -145 261 -139 q 274 -161 274 -151 l 274 -269 q 267 -285 274 -279 q 251 -292 261 -292 l 200 -292 z "},"ḻ":{"ha":408,"x_min":42,"x_max":410,"o":"m 300 -1 q 153 53 201 -1 q 106 238 106 107 l 106 1060 l 215 1060 l 215 251 q 240 126 215 160 q 319 86 265 93 l 394 78 l 394 -1 l 300 -1 m 42 -196 l 410 -196 l 410 -261 l 42 -261 l 42 -196 z "},"ł":{"ha":408,"x_min":4,"x_max":394,"o":"m 394 78 l 394 -1 l 300 -1 q 153 53 201 -1 q 106 238 106 107 l 106 532 l 4 494 l 4 560 l 106 597 l 106 1060 l 215 1060 l 215 633 l 357 683 l 357 618 l 215 568 l 215 251 q 240 126 215 160 q 319 86 265 93 l 394 78 z "},"m":{"ha":1317,"x_min":106,"x_max":1217,"o":"m 106 742 l 192 742 l 215 660 q 493 754 354 754 q 609 724 560 754 q 686 644 658 694 q 828 721 744 688 q 985 754 913 754 q 1158 683 1100 754 q 1217 500 1217 613 l 1217 0 l 1107 0 l 1107 492 q 1065 609 1107 564 q 950 654 1022 654 q 826 632 890 654 q 701 574 761 610 q 715 490 715 529 l 715 0 l 606 0 l 606 492 q 565 609 606 564 q 451 654 524 654 q 333 637 385 654 q 215 582 281 619 l 215 0 l 106 0 l 106 742 z "},"ṁ":{"ha":1317,"x_min":106,"x_max":1217,"o":"m 106 742 l 192 742 l 215 660 q 493 754 354 754 q 609 724 560 754 q 686 644 658 694 q 828 721 744 688 q 985 754 913 754 q 1158 683 1100 754 q 1217 500 1217 613 l 1217 0 l 1107 0 l 1107 492 q 1065 609 1107 564 q 950 654 1022 654 q 826 632 890 654 q 701 574 761 610 q 715 490 715 529 l 715 0 l 606 0 l 606 492 q 565 609 606 564 q 451 654 524 654 q 333 637 385 654 q 215 582 281 619 l 215 0 l 106 0 l 106 742 m 640 917 q 624 923 631 917 q 618 939 618 929 l 618 1047 q 640 1069 618 1069 l 692 1069 q 707 1063 701 1069 q 713 1047 713 1057 l 713 939 q 707 923 713 929 q 692 917 701 917 l 640 917 z "},"ṃ":{"ha":1317,"x_min":106,"x_max":1217,"o":"m 106 742 l 192 742 l 215 660 q 493 754 354 754 q 609 724 560 754 q 686 644 658 694 q 828 721 744 688 q 985 754 913 754 q 1158 683 1100 754 q 1217 500 1217 613 l 1217 0 l 1107 0 l 1107 492 q 1065 609 1107 564 q 950 654 1022 654 q 826 632 890 654 q 701 574 761 610 q 715 490 715 529 l 715 0 l 606 0 l 606 492 q 565 609 606 564 q 451 654 524 654 q 333 637 385 654 q 215 582 281 619 l 215 0 l 106 0 l 106 742 m 628 -292 q 612 -285 618 -292 q 606 -269 606 -279 l 606 -161 q 628 -139 606 -139 l 679 -139 q 695 -145 689 -139 q 701 -161 701 -151 l 701 -269 q 695 -285 701 -279 q 679 -292 689 -292 l 628 -292 z "},"n":{"ha":817,"x_min":106,"x_max":715,"o":"m 106 742 l 192 742 l 215 660 q 344 727 274 700 q 486 754 415 754 q 658 683 601 754 q 715 504 715 613 l 715 0 l 606 0 l 606 492 q 565 609 606 564 q 451 654 524 654 q 333 637 385 654 q 215 582 281 619 l 215 0 l 106 0 l 106 742 z "},"ń":{"ha":817,"x_min":106,"x_max":715,"o":"m 106 742 l 192 742 l 215 660 q 344 727 274 700 q 486 754 415 754 q 658 683 601 754 q 715 504 715 613 l 715 0 l 606 0 l 606 492 q 565 609 606 564 q 451 654 524 654 q 333 637 385 654 q 215 582 281 619 l 215 0 l 106 0 l 106 742 m 507 1065 l 600 1065 l 426 876 l 363 876 l 507 1065 z "},"ň":{"ha":817,"x_min":106,"x_max":715,"o":"m 106 742 l 192 742 l 215 660 q 344 727 274 700 q 486 754 415 754 q 658 683 601 754 q 715 504 715 613 l 715 0 l 606 0 l 606 492 q 565 609 606 564 q 451 654 524 654 q 333 637 385 654 q 215 582 281 619 l 215 0 l 106 0 l 106 742 m 213 1064 l 279 1064 l 407 929 l 546 1064 l 613 1064 l 444 876 l 367 876 l 213 1064 z "},"ņ":{"ha":817,"x_min":106,"x_max":715,"o":"m 106 742 l 192 742 l 215 660 q 344 727 274 700 q 486 754 415 754 q 658 683 601 754 q 715 504 715 613 l 715 0 l 606 0 l 606 492 q 565 609 606 564 q 451 654 524 654 q 333 637 385 654 q 215 582 281 619 l 215 0 l 106 0 l 106 742 m 293 -236 l 335 -229 q 390 -213 371 -224 q 419 -174 410 -203 q 429 -87 429 -144 l 497 -87 q 485 -201 497 -160 q 440 -261 472 -242 q 346 -281 407 -281 l 293 -281 l 293 -236 z "},"ṅ":{"ha":817,"x_min":106,"x_max":715,"o":"m 106 742 l 192 742 l 215 660 q 344 727 274 700 q 486 754 415 754 q 658 683 601 754 q 715 504 715 613 l 715 0 l 606 0 l 606 492 q 565 609 606 564 q 451 654 524 654 q 333 637 385 654 q 215 582 281 619 l 215 0 l 106 0 l 106 742 m 376 -292 q 360 -285 367 -292 q 354 -269 354 -279 l 354 -161 q 376 -139 354 -139 l 428 -139 q 444 -145 438 -139 q 450 -161 450 -151 l 450 -269 q 444 -285 450 -279 q 428 -292 438 -292 l 376 -292 z "},"ṇ":{"ha":817,"x_min":106,"x_max":715,"o":"m 106 742 l 192 742 l 215 660 q 344 727 274 700 q 486 754 415 754 q 658 683 601 754 q 715 504 715 613 l 715 0 l 606 0 l 606 492 q 565 609 606 564 q 451 654 524 654 q 333 637 385 654 q 215 582 281 619 l 215 0 l 106 0 l 106 742 m 376 -292 q 360 -285 367 -292 q 354 -269 354 -279 l 354 -161 q 376 -139 354 -139 l 428 -139 q 444 -145 438 -139 q 450 -161 450 -151 l 450 -269 q 444 -285 450 -279 q 428 -292 438 -292 l 376 -292 z "},"ŋ":{"ha":817,"x_min":106,"x_max":715,"o":"m 486 754 q 658 683 601 754 q 715 504 715 613 l 715 -1 q 536 -329 715 -232 l 447 -329 q 564 -196 522 -272 q 606 -4 606 -119 l 606 492 q 565 609 606 564 q 451 654 524 654 q 333 637 385 654 q 215 582 281 619 l 215 0 l 106 0 l 106 742 l 192 742 l 215 660 q 344 727 274 700 q 486 754 415 754 z "},"ṉ":{"ha":817,"x_min":106,"x_max":715,"o":"m 106 742 l 192 742 l 215 660 q 344 727 274 700 q 486 754 415 754 q 658 683 601 754 q 715 504 715 613 l 715 0 l 606 0 l 606 492 q 565 609 606 564 q 451 654 524 654 q 333 637 385 654 q 215 582 281 619 l 215 0 l 106 0 l 106 742 m 218 -196 l 586 -196 l 586 -261 l 218 -261 l 218 -196 z "},"ñ":{"ha":817,"x_min":106,"x_max":715,"o":"m 106 742 l 192 742 l 215 660 q 344 727 274 700 q 486 754 415 754 q 658 683 601 754 q 715 504 715 613 l 715 0 l 606 0 l 606 492 q 565 609 606 564 q 451 654 524 654 q 333 637 385 654 q 215 582 281 619 l 215 0 l 106 0 l 106 742 m 179 899 q 219 1011 181 975 q 313 1047 258 1047 q 370 1035 344 1047 q 433 1001 396 1024 q 484 972 463 982 q 528 963 506 963 q 588 985 564 963 q 613 1050 611 1008 l 668 1050 q 632 939 667 979 q 535 899 597 899 q 480 910 506 899 q 417 944 454 921 q 363 974 385 964 q 318 985 340 985 q 260 963 283 985 q 236 899 238 940 l 179 899 z "},"o":{"ha":801,"x_min":79,"x_max":722,"o":"m 400 -8 q 217 24 286 -8 q 113 138 147 56 q 79 372 79 221 q 114 608 79 525 q 217 721 149 690 q 400 751 285 751 q 583 720 514 751 q 688 606 653 689 q 722 372 722 524 q 688 138 722 221 q 584 24 653 56 q 400 -8 515 -8 m 400 82 q 520 102 476 82 q 588 185 564 122 q 611 372 611 247 q 588 559 611 497 q 521 641 565 621 q 400 661 476 661 q 278 641 322 661 q 212 559 235 621 q 189 372 189 497 q 212 185 189 247 q 278 102 235 122 q 400 82 322 82 z "},"ó":{"ha":801,"x_min":79,"x_max":722,"o":"m 400 -8 q 217 24 286 -8 q 113 138 147 56 q 79 372 79 221 q 114 608 79 525 q 217 721 149 690 q 400 751 285 751 q 583 720 514 751 q 688 606 653 689 q 722 372 722 524 q 688 138 722 221 q 584 24 653 56 q 400 -8 515 -8 m 400 82 q 520 102 476 82 q 588 185 564 122 q 611 372 611 247 q 588 559 611 497 q 521 641 565 621 q 400 661 476 661 q 278 641 322 661 q 212 559 235 621 q 189 372 189 497 q 212 185 189 247 q 278 102 235 122 q 400 82 322 82 m 500 1065 l 593 1065 l 419 876 l 356 876 l 500 1065 z "},"ŏ":{"ha":801,"x_min":79,"x_max":722,"o":"m 400 -8 q 217 24 286 -8 q 113 138 147 56 q 79 372 79 221 q 114 608 79 525 q 217 721 149 690 q 400 751 285 751 q 583 720 514 751 q 688 606 653 689 q 722 372 722 524 q 688 138 722 221 q 584 24 653 56 q 400 -8 515 -8 m 400 82 q 520 102 476 82 q 588 185 564 122 q 611 372 611 247 q 588 559 611 497 q 521 641 565 621 q 400 661 476 661 q 278 641 322 661 q 212 559 235 621 q 189 372 189 497 q 212 185 189 247 q 278 102 235 122 q 400 82 322 82 m 390 874 q 258 921 308 874 q 208 1069 208 968 l 263 1069 q 297 961 263 996 q 386 926 332 926 q 519 1069 519 926 l 574 1069 q 524 919 574 965 q 390 874 474 874 z "},"ô":{"ha":801,"x_min":79,"x_max":722,"o":"m 400 -8 q 217 24 286 -8 q 113 138 147 56 q 79 372 79 221 q 114 608 79 525 q 217 721 149 690 q 400 751 285 751 q 583 720 514 751 q 688 606 653 689 q 722 372 722 524 q 688 138 722 221 q 584 24 653 56 q 400 -8 515 -8 m 400 82 q 520 102 476 82 q 588 185 564 122 q 611 372 611 247 q 588 559 611 497 q 521 641 565 621 q 400 661 476 661 q 278 641 322 661 q 212 559 235 621 q 189 372 189 497 q 212 185 189 247 q 278 102 235 122 q 400 82 322 82 m 365 1064 l 443 1064 l 596 876 l 529 876 l 403 1011 l 264 876 l 196 876 l 365 1064 z "},"ố":{"ha":801,"x_min":79,"x_max":732,"o":"m 400 -8 q 217 24 286 -8 q 113 138 147 56 q 79 372 79 221 q 114 608 79 525 q 217 721 149 690 q 400 751 285 751 q 583 720 514 751 q 688 606 653 689 q 722 372 722 524 q 688 138 722 221 q 584 24 653 56 q 400 -8 515 -8 m 400 82 q 520 102 476 82 q 588 185 564 122 q 611 372 611 247 q 588 559 611 497 q 521 641 565 621 q 400 661 476 661 q 278 641 322 661 q 212 559 235 621 q 189 372 189 497 q 212 185 189 247 q 278 102 235 122 q 400 82 322 82 m 732 1163 l 581 983 l 517 983 l 638 1163 l 732 1163 m 443 1013 l 596 876 l 529 876 l 401 961 l 263 876 l 196 876 l 364 1013 l 443 1013 z "},"ộ":{"ha":801,"x_min":79,"x_max":722,"o":"m 400 -8 q 217 24 286 -8 q 113 138 147 56 q 79 372 79 221 q 114 608 79 525 q 217 721 149 690 q 400 751 285 751 q 583 720 514 751 q 688 606 653 689 q 722 372 722 524 q 688 138 722 221 q 584 24 653 56 q 400 -8 515 -8 m 400 82 q 520 102 476 82 q 588 185 564 122 q 611 372 611 247 q 588 559 611 497 q 521 641 565 621 q 400 661 476 661 q 278 641 322 661 q 212 559 235 621 q 189 372 189 497 q 212 185 189 247 q 278 102 235 122 q 400 82 322 82 m 365 1064 l 443 1064 l 596 876 l 529 876 l 403 1011 l 264 876 l 196 876 l 365 1064 m 369 -292 q 353 -285 360 -292 q 347 -269 347 -279 l 347 -161 q 369 -139 347 -139 l 421 -139 q 437 -145 431 -139 q 443 -161 443 -151 l 443 -269 q 437 -285 443 -279 q 421 -292 431 -292 l 369 -292 z "},"ồ":{"ha":801,"x_min":68,"x_max":722,"o":"m 400 -8 q 217 24 286 -8 q 113 138 147 56 q 79 372 79 221 q 114 608 79 525 q 217 721 149 690 q 400 751 285 751 q 583 720 514 751 q 688 606 653 689 q 722 372 722 524 q 688 138 722 221 q 584 24 653 56 q 400 -8 515 -8 m 400 82 q 520 102 476 82 q 588 185 564 122 q 611 372 611 247 q 588 559 611 497 q 521 641 565 621 q 400 661 476 661 q 278 641 322 661 q 212 559 235 621 q 189 372 189 497 q 212 185 189 247 q 278 102 235 122 q 400 82 322 82 m 163 1163 l 283 983 l 219 983 l 68 1163 l 163 1163 m 443 1013 l 596 876 l 529 876 l 401 961 l 263 876 l 196 876 l 364 1013 l 443 1013 z "},"ổ":{"ha":801,"x_min":79,"x_max":722,"o":"m 400 -8 q 217 24 286 -8 q 113 138 147 56 q 79 372 79 221 q 114 608 79 525 q 217 721 149 690 q 400 751 285 751 q 583 720 514 751 q 688 606 653 689 q 722 372 722 524 q 688 138 722 221 q 584 24 653 56 q 400 -8 515 -8 m 400 82 q 520 102 476 82 q 588 185 564 122 q 611 372 611 247 q 588 559 611 497 q 521 641 565 621 q 400 661 476 661 q 278 641 322 661 q 212 559 235 621 q 189 372 189 497 q 212 185 189 247 q 278 102 235 122 q 400 82 322 82 m 549 999 q 601 1028 585 1010 q 618 1069 618 1047 q 560 1121 618 1121 q 511 1113 542 1121 l 511 1154 q 574 1164 539 1164 q 649 1140 624 1164 q 674 1074 674 1115 q 643 999 674 1032 q 549 949 613 967 l 549 999 m 364 1013 l 443 1013 l 596 876 l 529 876 l 401 961 l 263 876 l 196 876 l 364 1013 z "},"ỗ":{"ha":801,"x_min":79,"x_max":722,"o":"m 400 -8 q 217 24 286 -8 q 113 138 147 56 q 79 372 79 221 q 114 608 79 525 q 217 721 149 690 q 400 751 285 751 q 583 720 514 751 q 688 606 653 689 q 722 372 722 524 q 688 138 722 221 q 584 24 653 56 q 400 -8 515 -8 m 400 82 q 520 102 476 82 q 588 185 564 122 q 611 372 611 247 q 588 559 611 497 q 521 641 565 621 q 400 661 476 661 q 278 641 322 661 q 212 559 235 621 q 189 372 189 497 q 212 185 189 247 q 278 102 235 122 q 400 82 322 82 m 289 1193 q 340 1185 315 1193 q 399 1161 364 1176 q 488 1135 454 1135 q 542 1151 521 1135 q 563 1196 563 1167 l 618 1196 q 503 1078 614 1078 q 453 1085 476 1078 q 394 1108 429 1093 q 341 1129 363 1122 q 299 1136 319 1136 q 251 1121 269 1136 q 232 1078 232 1106 l 175 1078 q 210 1167 178 1140 q 289 1193 242 1193 m 596 876 l 529 876 l 401 961 l 263 876 l 196 876 l 364 1013 l 443 1013 l 596 876 z "},"ȍ":{"ha":801,"x_min":79,"x_max":722,"o":"m 400 -8 q 217 24 286 -8 q 113 138 147 56 q 79 372 79 221 q 114 608 79 525 q 217 721 149 690 q 400 751 285 751 q 583 720 514 751 q 688 606 653 689 q 722 372 722 524 q 688 138 722 221 q 584 24 653 56 q 400 -8 515 -8 m 400 82 q 520 102 476 82 q 588 185 564 122 q 611 372 611 247 q 588 559 611 497 q 521 641 565 621 q 400 661 476 661 q 278 641 322 661 q 212 559 235 621 q 189 372 189 497 q 212 185 189 247 q 278 102 235 122 q 400 82 322 82 m 119 1065 l 214 1065 l 358 876 l 293 876 l 119 1065 m 322 1065 l 417 1065 l 561 876 l 496 876 l 322 1065 z "},"ö":{"ha":801,"x_min":79,"x_max":722,"o":"m 400 -8 q 217 24 286 -8 q 113 138 147 56 q 79 372 79 221 q 114 608 79 525 q 217 721 149 690 q 400 751 285 751 q 583 720 514 751 q 688 606 653 689 q 722 372 722 524 q 688 138 722 221 q 584 24 653 56 q 400 -8 515 -8 m 400 82 q 520 102 476 82 q 588 185 564 122 q 611 372 611 247 q 588 559 611 497 q 521 641 565 621 q 400 661 476 661 q 278 641 322 661 q 212 559 235 621 q 189 372 189 497 q 212 185 189 247 q 278 102 235 122 q 400 82 322 82 m 238 907 q 222 913 228 907 q 215 929 215 919 l 215 1038 q 238 1060 215 1060 l 288 1060 q 310 1038 310 1060 l 310 929 q 288 907 310 907 l 238 907 m 508 907 q 492 913 499 907 q 486 929 486 919 l 486 1038 q 508 1060 486 1060 l 558 1060 q 581 1038 581 1060 l 581 929 q 558 907 581 907 l 508 907 z "},"ȫ":{"ha":801,"x_min":79,"x_max":722,"o":"m 400 -8 q 217 24 286 -8 q 113 138 147 56 q 79 372 79 221 q 114 608 79 525 q 217 721 149 690 q 400 751 285 751 q 583 720 514 751 q 688 606 653 689 q 722 372 722 524 q 688 138 722 221 q 584 24 653 56 q 400 -8 515 -8 m 400 82 q 520 102 476 82 q 588 185 564 122 q 611 372 611 247 q 588 559 611 497 q 521 641 565 621 q 400 661 476 661 q 278 641 322 661 q 212 559 235 621 q 189 372 189 497 q 212 185 189 247 q 278 102 235 122 q 400 82 322 82 m 238 907 q 222 913 228 907 q 215 929 215 919 l 215 1038 q 238 1060 215 1060 l 288 1060 q 310 1038 310 1060 l 310 929 q 288 907 310 907 l 238 907 m 508 907 q 492 913 499 907 q 486 929 486 919 l 486 1038 q 508 1060 486 1060 l 558 1060 q 581 1038 581 1060 l 581 929 q 558 907 581 907 l 508 907 m 213 1229 l 581 1229 l 581 1164 l 213 1164 l 213 1229 z "},"ȱ":{"ha":801,"x_min":79,"x_max":722,"o":"m 400 -8 q 217 24 286 -8 q 113 138 147 56 q 79 372 79 221 q 114 608 79 525 q 217 721 149 690 q 400 751 285 751 q 583 720 514 751 q 688 606 653 689 q 722 372 722 524 q 688 138 722 221 q 584 24 653 56 q 400 -8 515 -8 m 400 82 q 520 102 476 82 q 588 185 564 122 q 611 372 611 247 q 588 559 611 497 q 521 641 565 621 q 400 661 476 661 q 278 641 322 661 q 212 559 235 621 q 189 372 189 497 q 212 185 189 247 q 278 102 235 122 q 400 82 322 82 m 374 917 q 358 923 364 917 q 351 939 351 929 l 351 1047 q 374 1069 351 1069 l 425 1069 q 440 1063 435 1069 q 446 1047 446 1057 l 446 939 q 440 923 446 929 q 425 917 435 917 l 374 917 m 213 1221 l 581 1221 l 581 1156 l 213 1156 l 213 1221 z "},"ọ":{"ha":801,"x_min":79,"x_max":722,"o":"m 400 -8 q 217 24 286 -8 q 113 138 147 56 q 79 372 79 221 q 114 608 79 525 q 217 721 149 690 q 400 751 285 751 q 583 720 514 751 q 688 606 653 689 q 722 372 722 524 q 688 138 722 221 q 584 24 653 56 q 400 -8 515 -8 m 400 82 q 520 102 476 82 q 588 185 564 122 q 611 372 611 247 q 588 559 611 497 q 521 641 565 621 q 400 661 476 661 q 278 641 322 661 q 212 559 235 621 q 189 372 189 497 q 212 185 189 247 q 278 102 235 122 q 400 82 322 82 m 369 -292 q 353 -285 360 -292 q 347 -269 347 -279 l 347 -161 q 369 -139 347 -139 l 421 -139 q 437 -145 431 -139 q 443 -161 443 -151 l 443 -269 q 437 -285 443 -279 q 421 -292 431 -292 l 369 -292 z "},"ò":{"ha":801,"x_min":79,"x_max":722,"o":"m 400 -8 q 217 24 286 -8 q 113 138 147 56 q 79 372 79 221 q 114 608 79 525 q 217 721 149 690 q 400 751 285 751 q 583 720 514 751 q 688 606 653 689 q 722 372 722 524 q 688 138 722 221 q 584 24 653 56 q 400 -8 515 -8 m 400 82 q 520 102 476 82 q 588 185 564 122 q 611 372 611 247 q 588 559 611 497 q 521 641 565 621 q 400 661 476 661 q 278 641 322 661 q 212 559 235 621 q 189 372 189 497 q 212 185 189 247 q 278 102 235 122 q 400 82 322 82 m 221 1065 l 314 1065 l 458 876 l 394 876 l 221 1065 z "},"ỏ":{"ha":801,"x_min":79,"x_max":722,"o":"m 400 -8 q 217 24 286 -8 q 113 138 147 56 q 79 372 79 221 q 114 608 79 525 q 217 721 149 690 q 400 751 285 751 q 583 720 514 751 q 688 606 653 689 q 722 372 722 524 q 688 138 722 221 q 584 24 653 56 q 400 -8 515 -8 m 400 82 q 520 102 476 82 q 588 185 564 122 q 611 372 611 247 q 588 559 611 497 q 521 641 565 621 q 400 661 476 661 q 278 641 322 661 q 212 559 235 621 q 189 372 189 497 q 212 185 189 247 q 278 102 235 122 q 400 82 322 82 m 375 889 q 453 971 453 913 q 386 1032 453 1032 q 336 1024 361 1032 l 336 1071 q 400 1079 361 1079 q 485 1051 457 1079 q 513 972 513 1022 q 478 892 513 926 q 375 838 444 858 l 375 889 z "},"ơ":{"ha":801,"x_min":79,"x_max":765,"o":"m 636 683 q 701 566 679 642 q 722 372 722 490 q 688 138 722 221 q 584 24 653 56 q 400 -8 515 -8 q 217 24 286 -8 q 113 138 147 56 q 79 372 79 221 q 114 608 79 525 q 217 721 149 690 q 400 751 285 751 q 517 742 468 751 l 576 742 q 658 778 629 742 q 686 899 686 814 l 765 899 q 731 749 765 801 q 636 683 696 697 m 400 82 q 520 102 476 82 q 588 185 564 122 q 611 372 611 247 q 588 559 611 497 q 521 641 565 621 q 400 661 476 661 q 278 641 322 661 q 212 559 235 621 q 189 372 189 497 q 212 185 189 247 q 278 102 235 122 q 400 82 322 82 z "},"ớ":{"ha":801,"x_min":79,"x_max":765,"o":"m 636 683 q 701 566 679 642 q 722 372 722 490 q 688 138 722 221 q 584 24 653 56 q 400 -8 515 -8 q 217 24 286 -8 q 113 138 147 56 q 79 372 79 221 q 114 608 79 525 q 217 721 149 690 q 400 751 285 751 q 517 742 468 751 l 576 742 q 658 778 629 742 q 686 899 686 814 l 765 899 q 731 749 765 801 q 636 683 696 697 m 400 82 q 520 102 476 82 q 588 185 564 122 q 611 372 611 247 q 588 559 611 497 q 521 641 565 621 q 400 661 476 661 q 278 641 322 661 q 212 559 235 621 q 189 372 189 497 q 212 185 189 247 q 278 102 235 122 q 400 82 322 82 m 510 1065 l 603 1065 l 429 876 l 365 876 l 510 1065 z "},"ợ":{"ha":801,"x_min":79,"x_max":765,"o":"m 636 683 q 701 566 679 642 q 722 372 722 490 q 688 138 722 221 q 584 24 653 56 q 400 -8 515 -8 q 217 24 286 -8 q 113 138 147 56 q 79 372 79 221 q 114 608 79 525 q 217 721 149 690 q 400 751 285 751 q 517 742 468 751 l 576 742 q 658 778 629 742 q 686 899 686 814 l 765 899 q 731 749 765 801 q 636 683 696 697 m 400 82 q 520 102 476 82 q 588 185 564 122 q 611 372 611 247 q 588 559 611 497 q 521 641 565 621 q 400 661 476 661 q 278 641 322 661 q 212 559 235 621 q 189 372 189 497 q 212 185 189 247 q 278 102 235 122 q 400 82 322 82 m 383 -292 q 367 -285 374 -292 q 361 -269 361 -279 l 361 -161 q 383 -139 361 -139 l 435 -139 q 451 -145 444 -139 q 457 -161 457 -151 l 457 -269 q 451 -285 457 -279 q 435 -292 444 -292 l 383 -292 z "},"ờ":{"ha":801,"x_min":79,"x_max":765,"o":"m 636 683 q 701 566 679 642 q 722 372 722 490 q 688 138 722 221 q 584 24 653 56 q 400 -8 515 -8 q 217 24 286 -8 q 113 138 147 56 q 79 372 79 221 q 114 608 79 525 q 217 721 149 690 q 400 751 285 751 q 517 742 468 751 l 576 742 q 658 778 629 742 q 686 899 686 814 l 765 899 q 731 749 765 801 q 636 683 696 697 m 400 82 q 520 102 476 82 q 588 185 564 122 q 611 372 611 247 q 588 559 611 497 q 521 641 565 621 q 400 661 476 661 q 278 641 322 661 q 212 559 235 621 q 189 372 189 497 q 212 185 189 247 q 278 102 235 122 q 400 82 322 82 m 211 1065 l 304 1065 l 449 876 l 385 876 l 211 1065 z "},"ở":{"ha":801,"x_min":79,"x_max":765,"o":"m 636 683 q 701 566 679 642 q 722 372 722 490 q 688 138 722 221 q 584 24 653 56 q 400 -8 515 -8 q 217 24 286 -8 q 113 138 147 56 q 79 372 79 221 q 114 608 79 525 q 217 721 149 690 q 400 751 285 751 q 517 742 468 751 l 576 742 q 658 778 629 742 q 686 899 686 814 l 765 899 q 731 749 765 801 q 636 683 696 697 m 400 82 q 520 102 476 82 q 588 185 564 122 q 611 372 611 247 q 588 559 611 497 q 521 641 565 621 q 400 661 476 661 q 278 641 322 661 q 212 559 235 621 q 189 372 189 497 q 212 185 189 247 q 278 102 235 122 q 400 82 322 82 m 378 889 q 456 971 456 913 q 389 1032 456 1032 q 339 1024 364 1032 l 339 1071 q 403 1079 364 1079 q 488 1051 460 1079 q 515 972 515 1022 q 481 892 515 926 q 378 838 447 858 l 378 889 z "},"ỡ":{"ha":801,"x_min":79,"x_max":765,"o":"m 636 683 q 701 566 679 642 q 722 372 722 490 q 688 138 722 221 q 584 24 653 56 q 400 -8 515 -8 q 217 24 286 -8 q 113 138 147 56 q 79 372 79 221 q 114 608 79 525 q 217 721 149 690 q 400 751 285 751 q 517 742 468 751 l 576 742 q 658 778 629 742 q 686 899 686 814 l 765 899 q 731 749 765 801 q 636 683 696 697 m 400 82 q 520 102 476 82 q 588 185 564 122 q 611 372 611 247 q 588 559 611 497 q 521 641 565 621 q 400 661 476 661 q 278 641 322 661 q 212 559 235 621 q 189 372 189 497 q 212 185 189 247 q 278 102 235 122 q 400 82 322 82 m 147 899 q 188 1011 149 975 q 281 1047 226 1047 q 338 1035 313 1047 q 401 1001 364 1024 q 452 972 431 982 q 496 963 474 963 q 556 985 532 963 q 581 1050 579 1008 l 636 1050 q 600 939 635 979 q 503 899 565 899 q 448 910 474 899 q 385 944 422 921 q 331 974 353 964 q 286 985 308 985 q 228 963 251 985 q 204 899 206 940 l 147 899 z "},"ő":{"ha":801,"x_min":79,"x_max":722,"o":"m 400 -8 q 217 24 286 -8 q 113 138 147 56 q 79 372 79 221 q 114 608 79 525 q 217 721 149 690 q 400 751 285 751 q 583 720 514 751 q 688 606 653 689 q 722 372 722 524 q 688 138 722 221 q 584 24 653 56 q 400 -8 515 -8 m 400 82 q 520 102 476 82 q 588 185 564 122 q 611 372 611 247 q 588 559 611 497 q 521 641 565 621 q 400 661 476 661 q 278 641 322 661 q 212 559 235 621 q 189 372 189 497 q 212 185 189 247 q 278 102 235 122 q 400 82 322 82 m 374 1065 l 464 1065 l 299 876 l 235 876 l 374 1065 m 582 1065 l 672 1065 l 507 876 l 443 876 l 582 1065 z "},"ȏ":{"ha":801,"x_min":79,"x_max":722,"o":"m 400 -8 q 217 24 286 -8 q 113 138 147 56 q 79 372 79 221 q 114 608 79 525 q 217 721 149 690 q 400 751 285 751 q 583 720 514 751 q 688 606 653 689 q 722 372 722 524 q 688 138 722 221 q 584 24 653 56 q 400 -8 515 -8 m 400 82 q 520 102 476 82 q 588 185 564 122 q 611 372 611 247 q 588 559 611 497 q 521 641 565 621 q 400 661 476 661 q 278 641 322 661 q 212 559 235 621 q 189 372 189 497 q 212 185 189 247 q 278 102 235 122 q 400 82 322 82 m 397 1071 q 529 1024 479 1071 q 579 875 579 976 l 525 875 q 490 984 525 950 q 401 1018 456 1018 q 268 875 268 1018 l 214 875 q 264 1025 214 979 q 397 1071 314 1071 z "},"ō":{"ha":801,"x_min":79,"x_max":722,"o":"m 400 -8 q 217 24 286 -8 q 113 138 147 56 q 79 372 79 221 q 114 608 79 525 q 217 721 149 690 q 400 751 285 751 q 583 720 514 751 q 688 606 653 689 q 722 372 722 524 q 688 138 722 221 q 584 24 653 56 q 400 -8 515 -8 m 400 82 q 520 102 476 82 q 588 185 564 122 q 611 372 611 247 q 588 559 611 497 q 521 641 565 621 q 400 661 476 661 q 278 641 322 661 q 212 559 235 621 q 189 372 189 497 q 212 185 189 247 q 278 102 235 122 q 400 82 322 82 m 213 999 l 581 999 l 581 933 l 213 933 l 213 999 z "},"ṓ":{"ha":801,"x_min":79,"x_max":722,"o":"m 400 -8 q 217 24 286 -8 q 113 138 147 56 q 79 372 79 221 q 114 608 79 525 q 217 721 149 690 q 400 751 285 751 q 583 720 514 751 q 688 606 653 689 q 722 372 722 524 q 688 138 722 221 q 584 24 653 56 q 400 -8 515 -8 m 400 82 q 520 102 476 82 q 588 185 564 122 q 611 372 611 247 q 588 559 611 497 q 521 641 565 621 q 400 661 476 661 q 278 641 322 661 q 212 559 235 621 q 189 372 189 497 q 212 185 189 247 q 278 102 235 122 q 400 82 322 82 m 213 999 l 581 999 l 581 933 l 213 933 l 213 999 m 494 1242 l 588 1242 l 414 1053 l 350 1053 l 494 1242 z "},"ṑ":{"ha":801,"x_min":79,"x_max":722,"o":"m 400 -8 q 217 24 286 -8 q 113 138 147 56 q 79 372 79 221 q 114 608 79 525 q 217 721 149 690 q 400 751 285 751 q 583 720 514 751 q 688 606 653 689 q 722 372 722 524 q 688 138 722 221 q 584 24 653 56 q 400 -8 515 -8 m 400 82 q 520 102 476 82 q 588 185 564 122 q 611 372 611 247 q 588 559 611 497 q 521 641 565 621 q 400 661 476 661 q 278 641 322 661 q 212 559 235 621 q 189 372 189 497 q 212 185 189 247 q 278 102 235 122 q 400 82 322 82 m 213 999 l 581 999 l 581 933 l 213 933 l 213 999 m 211 1242 l 304 1242 l 449 1053 l 385 1053 l 211 1242 z "},"ǫ":{"ha":801,"x_min":79,"x_max":722,"o":"m 463 -6 q 385 -112 385 -51 q 415 -178 385 -154 q 500 -203 446 -203 l 508 -203 l 508 -256 q 472 -260 493 -260 q 365 -225 404 -260 q 326 -136 326 -190 q 414 -8 326 -57 l 400 -8 q 217 24 286 -8 q 113 138 147 56 q 79 372 79 221 q 114 608 79 525 q 217 721 149 690 q 400 751 285 751 q 583 720 514 751 q 688 606 653 689 q 722 372 722 524 q 694 155 722 235 q 609 38 665 75 q 463 -6 553 1 m 189 372 q 212 185 189 247 q 278 102 235 122 q 400 82 322 82 q 520 102 476 82 q 588 185 564 122 q 611 372 611 247 q 588 559 611 497 q 521 641 565 621 q 400 661 476 661 q 278 641 322 661 q 212 559 235 621 q 189 372 189 497 z "},"ø":{"ha":801,"x_min":71,"x_max":729,"o":"m 660 656 q 722 372 722 569 q 688 138 722 221 q 584 24 653 56 q 400 -8 515 -8 q 267 6 322 -8 q 174 53 211 19 l 131 0 l 71 0 l 142 88 q 79 372 79 175 q 114 608 79 525 q 217 721 149 690 q 400 751 285 751 q 534 738 478 751 q 628 690 590 724 l 669 742 l 729 742 l 660 656 m 189 372 q 214 178 189 243 l 561 608 q 499 650 538 639 q 400 661 460 661 q 278 641 322 661 q 212 559 235 621 q 189 372 189 497 m 611 372 q 586 564 611 500 l 239 135 q 302 93 264 104 q 400 82 340 82 q 520 102 476 82 q 588 185 564 122 q 611 372 611 247 z "},"ǿ":{"ha":801,"x_min":71,"x_max":729,"o":"m 660 656 q 722 372 722 569 q 688 138 722 221 q 584 24 653 56 q 400 -8 515 -8 q 267 6 322 -8 q 174 53 211 19 l 131 0 l 71 0 l 142 88 q 79 372 79 175 q 114 608 79 525 q 217 721 149 690 q 400 751 285 751 q 534 738 478 751 q 628 690 590 724 l 669 742 l 729 742 l 660 656 m 189 372 q 214 178 189 243 l 561 608 q 499 650 538 639 q 400 661 460 661 q 278 641 322 661 q 212 559 235 621 q 189 372 189 497 m 611 372 q 586 564 611 500 l 239 135 q 302 93 264 104 q 400 82 340 82 q 520 102 476 82 q 588 185 564 122 q 611 372 611 247 m 500 1065 l 593 1065 l 419 876 l 356 876 l 500 1065 z "},"õ":{"ha":801,"x_min":79,"x_max":722,"o":"m 400 -8 q 217 24 286 -8 q 113 138 147 56 q 79 372 79 221 q 114 608 79 525 q 217 721 149 690 q 400 751 285 751 q 583 720 514 751 q 688 606 653 689 q 722 372 722 524 q 688 138 722 221 q 584 24 653 56 q 400 -8 515 -8 m 400 82 q 520 102 476 82 q 588 185 564 122 q 611 372 611 247 q 588 559 611 497 q 521 641 565 621 q 400 661 476 661 q 278 641 322 661 q 212 559 235 621 q 189 372 189 497 q 212 185 189 247 q 278 102 235 122 q 400 82 322 82 m 171 899 q 211 1011 172 975 q 304 1047 250 1047 q 362 1035 336 1047 q 425 1001 388 1024 q 476 972 454 982 q 519 963 497 963 q 579 985 556 963 q 604 1050 603 1008 l 660 1050 q 624 939 658 979 q 526 899 589 899 q 472 910 497 899 q 408 944 446 921 q 354 974 376 964 q 310 985 332 985 q 252 963 275 985 q 228 899 229 940 l 171 899 z "},"ṍ":{"ha":801,"x_min":79,"x_max":722,"o":"m 400 -8 q 217 24 286 -8 q 113 138 147 56 q 79 372 79 221 q 114 608 79 525 q 217 721 149 690 q 400 751 285 751 q 583 720 514 751 q 688 606 653 689 q 722 372 722 524 q 688 138 722 221 q 584 24 653 56 q 400 -8 515 -8 m 400 82 q 520 102 476 82 q 588 185 564 122 q 611 372 611 247 q 588 559 611 497 q 521 641 565 621 q 400 661 476 661 q 278 641 322 661 q 212 559 235 621 q 189 372 189 497 q 212 185 189 247 q 278 102 235 122 q 400 82 322 82 m 171 899 q 211 1011 172 975 q 304 1047 250 1047 q 362 1035 336 1047 q 425 1001 388 1024 q 476 972 454 982 q 519 963 497 963 q 579 985 556 963 q 604 1050 603 1008 l 660 1050 q 624 939 658 979 q 526 899 589 899 q 472 910 497 899 q 408 944 446 921 q 354 974 376 964 q 310 985 332 985 q 252 963 275 985 q 228 899 229 940 l 171 899 m 494 1278 l 588 1278 l 414 1089 l 350 1089 l 494 1278 z "},"ṏ":{"ha":801,"x_min":79,"x_max":722,"o":"m 400 -8 q 217 24 286 -8 q 113 138 147 56 q 79 372 79 221 q 114 608 79 525 q 217 721 149 690 q 400 751 285 751 q 583 720 514 751 q 688 606 653 689 q 722 372 722 524 q 688 138 722 221 q 584 24 653 56 q 400 -8 515 -8 m 400 82 q 520 102 476 82 q 588 185 564 122 q 611 372 611 247 q 588 559 611 497 q 521 641 565 621 q 400 661 476 661 q 278 641 322 661 q 212 559 235 621 q 189 372 189 497 q 212 185 189 247 q 278 102 235 122 q 400 82 322 82 m 171 899 q 211 1011 172 975 q 304 1047 250 1047 q 362 1035 336 1047 q 425 1001 388 1024 q 476 972 454 982 q 519 963 497 963 q 579 985 556 963 q 604 1050 603 1008 l 660 1050 q 624 939 658 979 q 526 899 589 899 q 472 910 497 899 q 408 944 446 921 q 354 974 376 964 q 310 985 332 985 q 252 963 275 985 q 228 899 229 940 l 171 899 m 251 1125 q 235 1131 242 1125 q 229 1147 229 1138 l 229 1256 q 251 1278 229 1278 l 301 1278 q 324 1256 324 1278 l 324 1147 q 301 1125 324 1125 l 251 1125 m 522 1125 q 506 1131 513 1125 q 500 1147 500 1138 l 500 1256 q 522 1278 500 1278 l 572 1278 q 594 1256 594 1278 l 594 1147 q 572 1125 594 1125 l 522 1125 z "},"ȭ":{"ha":801,"x_min":79,"x_max":722,"o":"m 400 -8 q 217 24 286 -8 q 113 138 147 56 q 79 372 79 221 q 114 608 79 525 q 217 721 149 690 q 400 751 285 751 q 583 720 514 751 q 688 606 653 689 q 722 372 722 524 q 688 138 722 221 q 584 24 653 56 q 400 -8 515 -8 m 400 82 q 520 102 476 82 q 588 185 564 122 q 611 372 611 247 q 588 559 611 497 q 521 641 565 621 q 400 661 476 661 q 278 641 322 661 q 212 559 235 621 q 189 372 189 497 q 212 185 189 247 q 278 102 235 122 q 400 82 322 82 m 213 1229 l 581 1229 l 581 1164 l 213 1164 l 213 1229 m 157 899 q 197 1011 158 975 q 290 1047 236 1047 q 348 1035 322 1047 q 411 1001 374 1024 q 462 972 440 982 q 506 963 483 963 q 565 985 542 963 q 590 1050 589 1008 l 646 1050 q 610 939 644 979 q 513 899 575 899 q 458 910 483 899 q 394 944 432 921 q 340 974 363 964 q 296 985 318 985 q 238 963 261 985 q 214 899 215 940 l 157 899 z "},"œ":{"ha":1279,"x_min":79,"x_max":1200,"o":"m 715 326 q 769 135 717 193 q 938 78 821 78 l 1181 78 l 1181 11 q 910 -8 1038 -8 q 758 24 818 -8 q 665 125 699 56 q 567 21 632 50 q 397 -8 503 -8 q 216 24 285 -8 q 113 138 147 56 q 79 372 79 221 q 114 608 79 525 q 217 721 149 690 q 400 751 285 751 q 567 724 503 751 q 664 624 631 696 q 755 720 696 689 q 907 751 814 751 q 1072 731 1010 751 q 1167 654 1135 710 q 1200 496 1200 599 q 1146 368 1200 410 q 1000 326 1092 326 l 715 326 m 907 668 q 756 606 799 668 q 714 399 714 543 l 979 399 q 1069 422 1039 399 q 1100 506 1100 444 q 1079 608 1100 572 q 1018 656 1058 643 q 907 668 978 668 m 400 78 q 520 99 476 78 q 588 183 564 119 q 611 372 611 246 q 588 562 611 499 q 521 645 565 625 q 400 665 476 665 q 278 645 322 665 q 212 562 235 625 q 189 372 189 499 q 212 183 189 246 q 278 99 235 119 q 400 78 322 78 z "},"p":{"ha":803,"x_min":106,"x_max":724,"o":"m 106 742 l 194 742 l 215 665 q 328 724 260 697 q 458 751 396 751 q 659 644 594 751 q 724 372 724 538 q 659 86 724 182 q 458 -10 594 -10 q 335 10 399 -10 q 215 61 272 29 l 215 -329 l 106 -329 l 106 742 m 428 83 q 614 372 614 83 q 561 589 614 518 q 428 660 508 660 q 318 642 369 660 q 215 597 267 625 l 215 143 q 428 83 321 83 z "},"ṗ":{"ha":803,"x_min":106,"x_max":724,"o":"m 106 742 l 194 742 l 215 665 q 328 724 260 697 q 458 751 396 751 q 659 644 594 751 q 724 372 724 538 q 659 86 724 182 q 458 -10 594 -10 q 335 10 399 -10 q 215 61 272 29 l 215 -329 l 106 -329 l 106 742 m 428 83 q 614 372 614 83 q 561 589 614 518 q 428 660 508 660 q 318 642 369 660 q 215 597 267 625 l 215 143 q 428 83 321 83 m 357 917 q 341 923 347 917 q 335 939 335 929 l 335 1047 q 357 1069 335 1069 l 408 1069 q 424 1063 418 1069 q 429 1047 429 1057 l 429 939 q 424 923 429 929 q 408 917 418 917 l 357 917 z "},"þ":{"ha":803,"x_min":106,"x_max":724,"o":"m 106 1060 l 215 1060 l 215 665 q 328 724 260 697 q 458 751 396 751 q 658 644 592 751 q 724 372 724 536 q 458 -10 724 -10 q 335 10 399 -10 q 215 61 272 29 l 215 -329 l 106 -329 l 106 1060 m 428 83 q 614 368 614 83 q 561 588 614 517 q 428 660 508 660 q 318 642 369 660 q 215 597 267 625 l 215 143 q 428 83 321 83 z "}}}
